<svg width="250" height="200" xmlns="http://www.w3.org/2000/svg" xmlns:xlink="http://www.w3.org/1999/xlink">
 <style type="text/css">.st0{fill:none;stroke:#ADBBF9;stroke-linejoin:round;stroke-dasharray:3.5,3.5;}
	.st1{fill:#E4E9F9;}
	.st2{fill:#FFFFFF;stroke:#ADBBF9;stroke-linejoin:round;}
	.st3{fill:none;stroke:#ADBBF9;stroke-linejoin:round;}
	.st4{fill:#00206A;}
	.st5{fill:#0948B3;}
	.st6{fill:none;stroke:#EBEBEB;stroke-miterlimit:10;}
	.st7{clip-path:url(#SVGID_2_);}
	.st8{fill:url(#SVGID_3_);}
	.st9{fill:url(#SVGID_4_);}
	.st10{fill:#FFFFFF;}
	.st11{fill:none;stroke:#4643BF;stroke-miterlimit:10;}
	.st12{fill:#D3DBF4;}
	.st13{fill:none;stroke:#FFFFFF;stroke-miterlimit:10;}
	.st14{fill:#E3EAFC;}
	.st15{fill:#F0F1FF;}
	.st16{fill:#C2CFEF;}
	.st17{fill:none;stroke:#D3DBF4;stroke-miterlimit:10;}
	.st18{fill:#FFCBBD;}
	.st19{fill:#E5EAF9;}
	.st20{fill:none;stroke:#121649;stroke-width:0.75;stroke-miterlimit:10;}
	.st21{fill:#F1F1F1;}
	.st22{fill:none;stroke:#1A3987;stroke-width:0.75;stroke-miterlimit:10;}
	.st23{fill:#212237;}
	.st24{fill:none;stroke:#E88872;stroke-width:0.5;stroke-linejoin:round;}
	.st25{fill:#28364C;}
	.st26{fill:none;stroke:#28364C;stroke-width:0.75;stroke-miterlimit:10;}
	.st27{fill:#EE5050;}
	.st28{fill:none;stroke:#A52F2D;stroke-width:0.75;stroke-miterlimit:10;}
	.st29{fill:none;stroke:#5565AA;stroke-width:0.75;stroke-miterlimit:10;}
	.st30{fill-rule:evenodd;clip-rule:evenodd;fill:#FFCBBB;}
	.st31{fill:none;stroke:#28364C;stroke-width:0.5;stroke-linecap:round;stroke-linejoin:round;}
	.st32{fill:none;stroke:#EF977F;stroke-miterlimit:10;}
	.st33{fill:#14122D;}
	.st34{fill:#FFCBBB;}
	.st35{fill:#ADBBF9;}
	.st36{fill:none;stroke:#E5EAF9;stroke-miterlimit:10;}
	.st37{fill:#FFFFFF;stroke:#C5C8EF;stroke-linejoin:round;}
	.st38{fill:none;stroke:#C5C8EF;stroke-linejoin:round;}</style>
 <metadata/>
 <g>
  <title>background</title>
  <rect fill="none" id="canvas_background" height="202" width="252" y="-1" x="-1"/>
 </g>
 <g>
  <title>Layer 1</title>
  <g stroke="null" id="Screen">
   <path stroke="null" id="svg_1" d="m89.280002,135.998568c-2.8768,-8.228323 -11.0112,-14.554622 -21.576,-14.761364c-6.1504,-0.124045 -12.0528,2.067418 -17.3104,4.548319c-7.0432,3.390565 -15.376,7.442704 -23.808,6.408995c-5.4064,-0.661574 -11.8048,-3.183824 -13.0944,-8.393717c-1.3392,-5.54068 4.0176,-9.30338 9.7216,-11.536192c4.9104,-1.902024 11.8048,-6.450344 13.9872,-10.791921c8.7296,-17.283614 -15.7232,-37.00678 -8.7792,-56.688598c7.2416,-20.591482 40.622401,-24.064744 57.436801,-10.088999c1.6368,1.323147 3.1248,2.77034 4.5136,4.300229c3.4224,3.804049 5.456,8.972594 10.2176,11.784282c6.1504,3.680004 14.1856,2.52225 20.832,0.330787c12.6976,-4.176184 16.0704,-6.946524 28.470401,-11.453495c8.928,-3.225172 19.9392,-6.119557 29.958401,-3.26652c7.192,2.067418 15.128,5.78877 19.1456,11.122708c7.4896,10.006303 4.1168,20.756876 15.9216,34.939362c5.3568,6.450344 13.888,8.228323 20.6336,12.900688c17.608,12.032372 11.7056,37.461612 -7.4896,46.144767c-15.7728,7.153266 -35.166401,5.499332 -52.228801,3.680004c-1.2896,-0.124045 -2.6288,-0.289439 -3.9184,-0.454832" class="st0"/>
   <path stroke="null" id="svg_2" d="m213.974404,42.385886c3.0256,-2.894385 5.208,-6.28495 6.3488,-10.006303l-5.8528,-1.736631c0.4464,-1.653934 0.6448,-3.390565 0.5456,-5.085848l6.1504,-0.785619c-0.2976,-3.804049 -1.6864,-7.525401 -4.0176,-10.83327l-5.6048,2.232811c-1.0912,-1.447193 -2.3808,-2.77034 -3.9184,-3.928094l3.6704,-4.176184c-3.4224,-2.52225 -7.5392,-4.341578 -12.0032,-5.29259l-2.0832,4.879106c-1.984,-0.372135 -4.0672,-0.537529 -6.1008,-0.454832l-0.9424,-5.127196c-4.5632,0.24809 -9.0272,1.364496 -12.9952,3.307869l2.6784,4.672364c-1.736,0.909664 -3.3232,2.02607 -4.7616,3.26652l-5.0096,-3.059778c-3.0256,2.853037 -5.208,6.28495 -6.3488,10.006303l5.8528,1.736631c-0.4464,1.653934 -0.6448,3.390565 -0.5456,5.085848l-6.1504,0.785619c0.2976,3.804049 1.6864,7.525401 4.0176,10.83327l5.6048,-2.232811c1.0912,1.447193 2.3808,2.77034 3.9184,3.928094l-3.6704,4.176184c3.472,2.52225 7.5392,4.341578 12.0032,5.29259l2.0832,-4.879106c1.984,0.372135 4.0672,0.537529 6.1008,0.454832l0.992,5.127196c4.5632,-0.24809 9.0272,-1.405844 12.9952,-3.349217l-2.6784,-4.672364c1.736,-0.909664 3.3232,-1.984721 4.712,-3.26652l5.0096,3.101127zm-28.768001,-5.333938c-7.1424,-3.142475 -9.8704,-10.461134 -6.1008,-16.415298s12.5488,-8.228323 19.6912,-5.085848s9.8704,10.461134 6.1008,16.415298c0,0 0,0 0,0c-3.7696,5.912815 -12.5488,8.186975 -19.6912,5.085848zm1.984,-3.101127c-5.0592,-2.232811 -6.9936,-7.442704 -4.3152,-11.660237s8.928,-5.830118 13.9872,-3.597307c5.0592,2.232811 6.9936,7.442704 4.3152,11.660237c0,0 0,0 0,0c-2.6784,4.217532 -8.928,5.830118 -13.9872,3.597307c0,0 0,0 0,0z" class="st1"/>
   <path stroke="null" id="svg_3" d="m80.748802,54.12882c1.6368,-1.943373 2.728,-4.134836 3.1744,-6.491692l-3.72,-0.785619c0.1488,-1.075057 0.1488,-2.108766 -0.0496,-3.183824l3.72,-0.826967c-0.4464,-2.356856 -1.5872,-4.548319 -3.2736,-6.450344l-3.3232,1.653934c-0.7936,-0.826967 -1.6864,-1.571238 -2.6784,-2.232811l1.9344,-2.77034c-2.3312,-1.364496 -4.96,-2.27416 -7.7872,-2.646295l-0.9424,3.101127c-1.24,-0.124045 -2.5296,-0.124045 -3.7696,0l-0.992,-3.101127c-2.8272,0.372135 -5.456,1.323147 -7.7376,2.728992l1.984,2.77034c-0.992,0.661574 -1.8848,1.405844 -2.6784,2.232811l-3.3232,-1.612586c-1.6368,1.943373 -2.728,4.134836 -3.1744,6.491692l3.72,0.74427c-0.1488,1.075057 -0.1488,2.108766 0.0496,3.183824l-3.72,0.785619c0.4464,2.356856 1.5872,4.548319 3.2736,6.450344l3.3232,-1.653934c0.7936,0.826967 1.6864,1.571238 2.6784,2.232811l-1.9344,2.77034c1.1408,0.702922 2.3808,1.281799 3.72,1.695283c1.2896,0.454832 2.6784,0.74427 4.0672,0.951012l0.9424,-3.101127c1.24,0.124045 2.5296,0.124045 3.7696,-0.041348l0.992,3.101127c2.8272,-0.372135 5.456,-1.323147 7.7376,-2.728992l-1.984,-2.728992c0.992,-0.661574 1.8848,-1.405844 2.6784,-2.232811l3.3232,1.695283zm-18.104,-1.777979c-4.6128,-1.571238 -6.8448,-5.954164 -4.96,-9.799561s7.1424,-5.706073 11.7552,-4.134836s6.8448,5.954164 4.96,9.799561c0,0 0,0 0,0c-1.8848,3.845397 -7.1424,5.706073 -11.7552,4.134836zm0.992,-2.02607c-3.3232,-1.116406 -4.9104,-4.258881 -3.5712,-6.987872s5.1088,-4.093487 8.3824,-2.977082c3.3232,1.116406 4.9104,4.258881 3.5712,6.987872c0,0 0,0 0,0.041348l0,0c-1.3392,2.728992 -5.1088,4.052139 -8.3824,2.935733z" class="st1"/>
   <path stroke="null" id="svg_4" d="m95.579202,25.474408c0.6448,-0.620225 1.24,-1.281799 1.6864,-2.02607c0.4464,-0.74427 0.7936,-1.529889 1.0416,-2.315508l-2.5296,-0.74427c0.1984,-0.702922 0.2976,-1.447193 0.248,-2.191463l2.6784,-0.330787c-0.1488,-1.653934 -0.744,-3.225172 -1.736,-4.672364l-2.4304,0.951012c-0.496,-0.620225 -1.0416,-1.199102 -1.6864,-1.736631l1.5872,-1.819328c-1.488,-1.075057 -3.2736,-1.860676 -5.208,-2.27416l-0.8928,2.108766c-0.8432,-0.165393 -1.736,-0.24809 -2.6288,-0.206742l-0.3968,-2.232811c-1.984,0.124045 -3.9184,0.620225 -5.6544,1.447193l1.1408,2.02607c-0.744,0.372135 -1.4384,0.868316 -2.0336,1.405844l-2.1824,-1.323147c-0.6448,0.620225 -1.1904,1.323147 -1.6864,2.02607c-0.4464,0.74427 -0.8432,1.529889 -1.0912,2.315508l2.5792,0.74427c-0.1984,0.702922 -0.2976,1.447193 -0.248,2.191463l-2.6784,0.330787c0.1488,1.653934 0.744,3.225172 1.736,4.672364l2.4304,-0.951012c0.4464,0.620225 1.0416,1.199102 1.6864,1.695283l-1.6368,1.819328c1.488,1.116406 3.2736,1.902024 5.208,2.315508l0.8928,-2.150115c0.8432,0.165393 1.736,0.24809 2.6288,0.206742l0.3968,2.232811c1.984,-0.124045 3.8688,-0.620225 5.6048,-1.447193l-1.1408,-2.02607c0.744,-0.372135 1.4384,-0.868316 2.0336,-1.405844l2.2816,1.364496zm-11.6064,-3.597307c-2.232,-0.992361 -3.0752,-3.26652 -1.8848,-5.127196c1.1904,-1.860676 3.9184,-2.563598 6.1504,-1.571238c2.232,0.992361 3.0752,3.26652 1.8848,5.127196l0,0c-1.1904,1.819328 -3.9184,2.52225 -6.1504,1.571238z" class="st1"/>
   <path stroke="null" id="svg_5" d="m44.491201,56.816463c0,-0.289439 -0.0496,-0.578877 -0.0992,-0.868316c-0.3472,-2.563598 -2.4304,-2.315508 -3.7696,-2.232811s-2.9264,0.124045 -3.5712,-1.075057c-0.2976,-0.49618 -0.248,-1.157754 -0.4464,-1.695283c-0.3472,-1.157754 -1.5872,-1.943373 -2.976,-1.984721c-1.2896,0 -2.48,0.620225 -3.5216,1.364496c-0.5456,0.372135 -1.1408,0.868316 -1.7856,0.702922c-0.4464,-0.165393 -0.7936,-0.413484 -0.992,-0.785619c-1.488,-2.02607 -1.488,-5.003151 -3.1248,-6.905176c-1.8352,-2.108766 -5.208,-2.150115 -7.4896,-0.620225s-3.6208,4.258881 -4.216,7.029221c-0.1984,0.909664 -0.3472,1.860676 -1.0416,2.480901c-0.9424,0.868316 -2.3808,0.578877 -3.6704,0.454832c-1.488,-0.206742 -3.0256,0.124045 -4.216,0.951012c-1.0416,0.826967 -1.5872,2.02607 -1.488,3.225172l42.408001,0l0,-0.041348z" class="st2"/>
   <path stroke="null" id="svg_6" d="m120.627202,13.979565l41.763201,0c0,0 -1.6864,-1.612586 -3.5712,-2.191463c-2.3808,-0.702922 -3.3728,1.240451 -4.8608,-1.281799c-0.8432,-1.405844 -1.4384,-3.26652 -3.6704,-3.762701c-3.472,-0.74427 -4.3648,1.653934 -6.0016,0.992361c-1.4384,-0.578877 -1.3888,-2.853037 -2.8768,-4.713713s-4.9104,-2.977082 -7.2912,-2.02607c-4.3648,1.777979 -3.7696,4.589668 -5.208,5.499332s-4.6128,-2.315508 -8.2336,1.157754c-2.5296,2.398205 -0.0496,6.326299 -0.0496,6.326299z" class="st2"/>
   <path stroke="null" id="svg_7" d="m164.176003,2.029889c0,0.826967 -0.8432,1.529889 -1.8352,1.529889s-1.8352,-0.702922 -1.8352,-1.529889c0,0 0,0 0,0c0,-0.826967 0.7936,-1.529889 1.7856,-1.529889c0,0 0.0496,0 0.0496,0l0,0c0.992,0 1.8352,0.661574 1.8352,1.529889c0,0 0,0 0,0z" class="st3"/>
   <path stroke="null" id="svg_8" d="m197.457604,61.819614c0,0.826967 -0.8432,1.529889 -1.8352,1.529889c-0.992,0 -1.8352,-0.702922 -1.8352,-1.529889c0,-0.826967 0.8432,-1.529889 1.8352,-1.529889l0,0c0.992,0 1.8352,0.661574 1.8352,1.529889c0,0 0,0 0,0z" class="st3"/>
   <path stroke="null" id="svg_9" d="m45.582401,22.66272c0,0.826967 -0.8432,1.529889 -1.8352,1.529889c-0.992,0 -1.8352,-0.702922 -1.8352,-1.529889s0.8432,-1.529889 1.8352,-1.529889l0,0l0,0c0.992,0 1.8352,0.702922 1.8352,1.529889z" class="st3"/>
   <path stroke="null" id="svg_10" d="m67.257601,15.716196c0,0.578877 -0.5456,1.033709 -1.24,1.033709s-1.24,-0.454832 -1.24,-1.033709s0.5456,-1.033709 1.24,-1.033709l0,0c0.6944,0 1.24,0.454832 1.24,1.033709z" class="st3"/>
   <circle stroke="null" id="svg_11" r="1.026101" cy="54.831742" cx="179.651203" class="st3"/>
   <path stroke="null" id="svg_12" d="m229.846404,28.740928c0,0.578877 -0.5456,1.033709 -1.24,1.033709s-1.24,-0.454832 -1.24,-1.033709s0.5456,-1.033709 1.24,-1.033709c0.6448,0 1.24,0.413484 1.24,0.951012c0,0.041348 0,0.041348 0,0.082697z" class="st3"/>
   <path stroke="null" id="svg_13" d="m227.217604,104.73921c0,0.578877 -0.5456,1.033709 -1.24,1.033709s-1.24,-0.454832 -1.24,-1.033709s0.5456,-1.033709 1.24,-1.033709c0.6944,0 1.24,0.454832 1.24,1.033709c0,0 0,0 0,0z" class="st3"/>
   <path stroke="null" id="svg_14" d="m33.926401,114.704164c0,0.578877 -0.5456,1.033709 -1.24,1.033709s-1.24,-0.454832 -1.24,-1.033709s0.5456,-1.033709 1.24,-1.033709l0,0c0.6944,0 1.24,0.454832 1.24,1.033709c0,0 0,0 0,0z" class="st3"/>
   <path stroke="null" id="svg_15" d="m37.646401,67.277598c0,0.578877 -0.5456,1.033709 -1.24,1.033709s-1.24,-0.454832 -1.24,-1.033709s0.5456,-1.033709 1.24,-1.033709l0,0c0.6944,0 1.24,0.454832 1.24,1.033709c0,0 0,0 0,0z" class="st3"/>
   <path stroke="null" id="svg_16" d="m19.592,119.83136l1.6864,0c0.2976,0 0.5456,0.206742 0.5456,0.454832l0,1.405844c0,0.24809 -0.248,0.454832 -0.5456,0.454832l-1.6864,0c-0.2976,0 -0.5456,-0.206742 -0.5456,-0.454832l0,-1.405844c0,-0.24809 0.248,-0.454832 0.5456,-0.454832z" class="st1"/>
   <path stroke="null" id="svg_17" d="m16.7152,35.273969l1.6864,0c0.2976,0 0.5456,0.206742 0.5456,0.454832l0,1.405844c0,0.24809 -0.248,0.454832 -0.5456,0.454832l-1.6864,0c-0.2976,0 -0.5456,-0.206742 -0.5456,-0.454832l0,-1.405844c0,-0.24809 0.248,-0.454832 0.5456,-0.454832z" class="st1"/>
   <path stroke="null" id="svg_18" d="m229.300804,16.749905l3.1744,0c0.5456,0 1.0416,0.372135 1.0416,0.826967c0,0 0,0.041348 0,0.041348l0,2.687643c0,0.454832 -0.4464,0.868316 -0.992,0.868316c0,0 -0.0496,0 -0.0496,0l-3.1744,0c-0.5456,0 -1.0416,-0.372135 -1.0416,-0.826967c0,0 0,-0.041348 0,-0.041348l0,-2.687643c0,-0.49618 0.4464,-0.868316 1.0416,-0.868316z" class="st1"/>
   <path stroke="null" id="svg_19" d="m200.929604,85.388178l1.6864,0c0.2976,0 0.5456,0.206742 0.5456,0.454832l0,1.405844c0,0.24809 -0.248,0.454832 -0.5456,0.454832l-1.6864,0c-0.2976,0 -0.5456,-0.206742 -0.5456,-0.454832l0,-1.405844c0,-0.24809 0.248,-0.454832 0.5456,-0.454832z" class="st1"/>
   <path stroke="null" id="svg_20" d="m164.672003,71.24704c0,-0.206742 0.0496,-0.413484 0.0496,-0.620225c0.2976,-1.819328 1.984,-1.695283 3.0752,-1.612586s2.4304,0.082697 2.9264,-0.785619c0.1488,-0.413484 0.2976,-0.826967 0.3472,-1.240451c0.3968,-0.868316 1.3888,-1.447193 2.48,-1.447193c1.0416,0.041348 2.0832,0.413484 2.8768,0.992361c2.7776,1.736631 3.5712,-2.853037 4.8608,-4.176184c1.488,-1.529889 4.2656,-2.356856 6.1504,-1.281799s2.976,3.059778 3.472,5.0445c0.1488,0.661574 0.1984,1.447193 0.8432,1.777979c1.8352,1.033709 4.1664,-0.992361 6.3984,0.578877c0.7936,0.537529 0.9424,1.860676 0.8432,2.728992l-34.323201,0.041348z" class="st2"/>
   <path stroke="null" id="svg_21" d="m81.840002,21.256876l87.048002,0c2.5296,0 4.6128,1.695283 4.6128,3.845397c0,0 0,0 0,0l0,136.573625c0,2.108766 -2.0336,3.845397 -4.6128,3.845397c0,0 0,0 0,0l-87.048002,0c-2.5296,0 -4.6128,-1.695283 -4.6128,-3.845397c0,0 0,0 0,0l0,-136.573625c0,-2.108766 2.0832,-3.845397 4.6128,-3.845397z" class="st4"/>
   <path stroke="null" id="svg_22" d="m168.888003,21.463617c2.4304,0 4.3648,1.612586 4.3648,3.638655l0,136.532277c0,2.02607 -1.9344,3.638655 -4.3648,3.638655l-87.048002,0c-2.4304,0 -4.3648,-1.612586 -4.3648,-3.638655l0,-136.532277c0,-2.02607 1.9344,-3.638655 4.3648,-3.638655l87.048002,0m0,-0.413484l-87.048002,0c-2.6784,0 -4.8608,1.819328 -4.8608,4.052139l0,0l0,136.532277c0,2.232811 2.1824,4.052139 4.8608,4.052139l87.048002,0c2.6784,0 4.8608,-1.819328 4.8608,-4.052139l0,-136.532277c0,-2.232811 -2.1824,-4.052139 -4.8608,-4.052139z" class="st5"/>
   <path stroke="null" id="svg_23" d="m129.803202,159.1123c0,2.02607 -1.984,3.680004 -4.4144,3.680004c-2.4304,0 -4.4144,-1.653934 -4.4144,-3.680004c0,-2.02607 1.984,-3.680004 4.4144,-3.680004c0,0 0,0 0,0l0,0c2.4304,0 4.4144,1.653934 4.4144,3.680004z" class="st6"/>
   <g stroke="null" id="svg_24">
    <defs stroke="null" transform="translate(0,0.5) scale(0.8740000128746033,0.8309329748153687) translate(0,-0.5) translate(0,0.6017332673072815) scale(0.7482837438583374,0.7538306713104248) translate(0,-0.6017332673072815) translate(0,0.7982339859008789) scale(0.7584097981452942,0.6601132750511169) translate(0,-0.7982339859008789) ">
     <path stroke="null" d="m165,50.2l175.5,0c5.4,0 9.8,4.4 9.8,9.8l0,330.3c0,5.4 -4.4,9.8 -9.8,9.8l-175.5,0c-5.4,0 -9.8,-4.4 -9.8,-9.8l0,-330.3c0,-5.4 4.4,-9.8 9.8,-9.8z" id="SVGID_1_"/>
    </defs>
    <clipPath stroke="null" transform="translate(0,0.5) scale(0.8740000128746033,0.8309329748153687) translate(0,-0.5) translate(0,0.6017332673072815) scale(0.7482837438583374,0.7538306713104248) translate(0,-0.6017332673072815) translate(0,0.7982339859008789) scale(0.7584097981452942,0.6601132750511169) translate(0,-0.7982339859008789) " id="SVGID_2_">
     <use stroke="null" id="svg_25" xlink:href="#SVGID_1_"/>
    </clipPath>
    <g stroke="null" id="svg_26" class="st7">
     <polygon stroke="null" id="svg_27" points="148.30399479661537,5.379106084905004 75.88799853721412,169.40803542320464 96.918403902921,169.40803542320464 169.38400531978914,5.379106084905004 " class="st8"/>
     <polygon stroke="null" id="svg_28" points="175.88160396166586,5.379106084905004 103.41600833100529,169.40803542320464 112.3439993094189,169.40803542320464 184.8096065124946,5.379106084905004 " class="st9"/>
    </g>
   </g>
   <rect stroke="null" id="svg_29" height="117.760123" width="95.232002" class="st10" y="34.529698" x="77.772801"/>
   <path stroke="null" id="svg_30" d="m119.932802,27.045646l13.4416,0c0.2976,0 0.5456,0.206742 0.5456,0.454832l0,0c0,0.24809 -0.248,0.454832 -0.5456,0.454832l-13.4416,0c-0.2976,0 -0.5456,-0.206742 -0.5456,-0.454832l0,0c0,-0.24809 0.248,-0.454832 0.5456,-0.454832z" class="st11"/>
   <circle stroke="null" id="svg_31" r="0.451485" cy="27.500478" cx="116.907202" class="st11"/>
   <rect stroke="null" id="svg_32" height="34.608575" width="41.118401" class="st12" y="80.136937" x="84.270402"/>
   <circle stroke="null" id="svg_33" r="7.059589" cy="92.458747" cx="104.804802" class="st13"/>
   <ellipse stroke="null" id="svg_34" ry="7.070569" rx="5.8528" cy="92.458747" cx="104.804802" class="st13"/>
   <ellipse stroke="null" id="svg_35" ry="7.070569" rx="2.2816" cy="92.458747" cx="104.804802" class="st13"/>
   <line stroke="null" id="svg_36" y2="92.458747" x2="113.336002" y1="92.458747" x1="96.323202" class="st13"/>
   <path stroke="null" id="svg_37" d="m97.216002,95.642571c1.6368,-0.454832 4.4144,-0.74427 7.6384,-0.74427s6.0016,0.289439 7.6384,0.74427" class="st13"/>
   <path stroke="null" id="svg_38" d="m99.646402,98.123472c1.6368,-0.49618 3.4224,-0.74427 5.1584,-0.74427c1.736,0 3.472,0.24809 5.1088,0.702922" class="st13"/>
   <path stroke="null" id="svg_39" d="m97.216002,89.357621c1.6368,0.454832 4.4144,0.74427 7.6384,0.74427s6.0016,-0.289439 7.6384,-0.74427" class="st13"/>
   <path stroke="null" id="svg_40" d="m99.646402,86.876719c3.3232,0.951012 6.8944,0.951012 10.2176,0" class="st13"/>
   <rect stroke="null" id="svg_41" height="1.819328" width="34.124801" class="st14" y="106.723931" x="87.742402"/>
   <rect stroke="null" id="svg_42" height="1.819328" width="20.3856" class="st14" y="103.333366" x="101.481602"/>
   <rect stroke="null" id="svg_43" height="1.819328" width="11.408" class="st14" y="103.333366" x="87.742402"/>
   <rect stroke="null" id="svg_44" height="1.819328" width="34.124801" class="st14" y="110.114496" x="87.742402"/>
   <rect stroke="null" id="svg_45" height="34.608575" width="41.118401" class="st15" y="80.136937" x="125.339202"/>
   <rect stroke="null" id="svg_46" height="1.819328" width="34.124801" class="st1" y="86.297842" x="128.860802"/>
   <rect stroke="null" id="svg_47" height="1.819328" width="34.124801" class="st1" y="89.688407" x="128.860802"/>
   <rect stroke="null" id="svg_48" height="1.819328" width="10.6144" class="st1" y="93.120321" x="128.811202"/>
   <rect stroke="null" id="svg_49" height="1.819328" width="20.584" class="st1" y="93.120321" x="142.302403"/>
   <rect stroke="null" id="svg_50" height="1.819328" width="34.124801" class="st1" y="96.510886" x="128.860802"/>
   <rect stroke="null" id="svg_51" height="1.819328" width="34.124801" class="st1" y="99.901452" x="128.860802"/>
   <rect stroke="null" id="svg_52" height="1.819328" width="34.124801" class="st1" y="103.333366" x="128.860802"/>
   <rect stroke="null" id="svg_53" height="1.819328" width="9.8704" class="st1" y="106.723931" x="153.115203"/>
   <rect stroke="null" id="svg_54" height="1.819328" width="21.9232" class="st1" y="106.723931" x="128.860802"/>
   <rect stroke="null" id="svg_55" height="1.819328" width="34.124801" class="st1" y="110.114496" x="128.860802"/>
   <rect stroke="null" id="svg_56" height="1.819328" width="9.0272" class="st1" y="82.907277" x="153.908803"/>
   <rect stroke="null" id="svg_57" height="1.819328" width="22.7664" class="st1" y="82.907277" x="128.811202"/>
   <rect stroke="null" id="svg_58" height="34.608575" width="41.118401" class="st15" y="114.745512" x="84.270402"/>
   <rect stroke="null" id="svg_59" height="1.819328" width="34.124801" class="st1" y="141.373855" x="87.742402"/>
   <rect stroke="null" id="svg_60" height="1.819328" width="34.124801" class="st1" y="137.941941" x="87.742402"/>
   <rect stroke="null" id="svg_61" height="1.819328" width="8.7792" class="st1" y="134.551376" x="113.088002"/>
   <rect stroke="null" id="svg_62" height="1.819328" width="22.4688" class="st1" y="134.551376" x="87.792002"/>
   <rect stroke="null" id="svg_63" height="1.819328" width="34.124801" class="st1" y="131.16081" x="87.742402"/>
   <rect stroke="null" id="svg_64" height="1.819328" width="34.124801" class="st1" y="127.728897" x="87.742402"/>
   <rect stroke="null" id="svg_65" height="1.819328" width="34.124801" class="st1" y="124.338331" x="87.742402"/>
   <rect stroke="null" id="svg_66" height="1.819328" width="15.872" class="st1" y="120.947766" x="87.742402"/>
   <rect stroke="null" id="svg_67" height="1.819328" width="15.9216" class="st1" y="120.947766" x="105.945602"/>
   <rect stroke="null" id="svg_68" height="1.819328" width="34.124801" class="st1" y="117.515852" x="87.742402"/>
   <rect stroke="null" id="svg_69" height="1.819328" width="15.9216" class="st1" y="144.76442" x="87.742402"/>
   <rect stroke="null" id="svg_70" height="1.819328" width="15.9216" class="st1" y="144.76442" x="105.995202"/>
   <rect stroke="null" id="svg_71" height="34.608575" width="41.118401" class="st12" y="114.745512" x="125.339202"/>
   <polygon stroke="null" id="svg_72" points="154.25600035463958,138.5621636764099 137.78880079307328,138.39677274659516 135.9040015403889,128.55587140720854 155.84320337976806,128.51452367475486 " class="st16"/>
   <polygon stroke="null" id="svg_73" points="155.84320337976806,128.51452367475486 135.9040015403889,128.55587140720854 145.87360246007847,121.69203702207506 " class="st16"/>
   <rect stroke="null" id="svg_74" height="23.2" width="27.4" class="st10" transform="matrix(0.49600000932640687,-0.0007216636368199075,0.0008656817122776204,0.413483576603974,-0.27627200519480866,0.5054993315688329) " y="307.8" x="280.1"/>
   <polygon stroke="null" id="svg_75" points="135.9040015403889,128.55587140720854 135.95361248406334,139.34778066555918 145.87360246007847,134.30328679850481 " class="st14"/>
   <polygon stroke="null" id="svg_76" points="155.84320337976806,128.51452367475486 155.89279117861224,139.30644300563472 145.87360246007847,134.30328679850481 " class="st14"/>
   <polygon stroke="null" id="svg_77" points="155.89279117861224,139.30644300563472 135.95361248406334,139.34778066555918 145.87360246007847,132.48396642548414 " class="st14"/>
   <polyline stroke="null" id="svg_78" points="135.95361248406334,139.34778066555918 145.87360246007847,132.48396642548414 155.89279117861224,139.30644300563472 " class="st17"/>
   <line stroke="null" id="svg_79" y2="128.514515" x2="155.843203" y1="133.476318" x1="147.312003" class="st17"/>
   <line stroke="null" id="svg_80" y2="128.555864" x2="135.904003" y1="133.476318" x1="144.484803" class="st17"/>
   <rect stroke="null" id="svg_81" height="1.819328" width="15.9216" class="st14" y="143.482621" x="137.937603"/>
   <rect stroke="null" id="svg_82" height="34.567227" width="82.236802" class="st12" y="42.509931" x="84.270402"/>
   <rect stroke="null" id="svg_83" height="2.398205" width="38.737601" class="st14" y="47.471734" x="124.198402"/>
   <rect stroke="null" id="svg_84" height="2.398205" width="38.737601" class="st14" y="51.937357" x="124.198402"/>
   <rect stroke="null" id="svg_85" height="2.398205" width="38.737601" class="st14" y="56.361631" x="124.198402"/>
   <rect stroke="null" id="svg_86" height="2.398205" width="38.737601" class="st14" y="60.827254" x="124.198402"/>
   <rect stroke="null" id="svg_87" height="2.398205" width="38.737601" class="st14" y="69.717151" x="124.198402"/>
   <rect stroke="null" id="svg_88" height="2.398205" width="23.1632" class="st14" y="65.251528" x="139.822403"/>
   <rect stroke="null" id="svg_89" height="2.398205" width="12.9456" class="st14" y="65.251528" x="124.198402"/>
   <rect stroke="null" id="svg_90" height="24.436879" width="29.313601" class="st14" y="47.595779" x="88.982402"/>
   <polygon stroke="null" id="svg_91" points="106.34240595255051,55.20387598362413 115.27039693096413,67.93917399367956 97.41439182930662,67.93917399367956 " class="st10"/>
   <polygon stroke="null" id="svg_92" points="97.31520465920312,59.38005739662185 99.2000039118875,62.4398399608408 95.77760679154153,67.93917399367956 92.00800249996519,67.93917399367956 " class="st10"/>
   <path stroke="null" id="svg_93" d="m92.752002,54.459607c0,0.74427 0.744,1.364496 1.6368,1.364496c0.8928,0 1.6368,-0.620225 1.6368,-1.364496c0,-0.74427 -0.744,-1.364496 -1.6368,-1.364496l0,0c-0.8928,0 -1.6368,0.620225 -1.6368,1.364496z" class="st10"/>
   <path stroke="null" id="svg_94" d="m102.176002,39.656895l46.376001,0c0.744,0 1.3392,-0.49618 1.3392,-1.116406c0,0 0,0 0,0l0,0c0,-0.620225 -0.5952,-1.116406 -1.3392,-1.116406c0,0 0,0 0,0l-46.376001,0c-0.744,0 -1.3392,0.49618 -1.3392,1.116406c0,0 0,0 0,0l0,0c0,0.620225 0.5952,1.116406 1.3392,1.116406c0,0 0,0 0,0z" class="st12"/>
   <line stroke="null" id="svg_95" y2="149.354088" x2="125.388802" y1="80.136937" x1="125.388802" class="st13"/>
   <line stroke="null" id="svg_96" y2="114.745512" x2="166.507203" y1="114.745512" x1="84.270402" class="st13"/>
   <path stroke="null" id="svg_97" d="m164.176003,180.778839l0.4464,12.239114l-0.496,3.845397l-17.5088,-0.082697c-0.4464,0 -0.7936,-0.289439 -0.7936,-0.661574c0,0 0,0 0,0l0,0c0,-0.289439 0.1984,-0.537529 0.496,-0.620225l7.8368,-2.977082l-1.1904,-12.735294" class="st18"/>
   <path stroke="null" id="svg_98" d="m145.080003,196.61526c0.1984,-0.49618 0.5456,-1.033709 0.8928,-1.157754l8.2832,-2.977082c4.5632,1.529889 10.4656,0.372135 10.4656,0.372135l0.4464,5.209893c0,0.165393 -0.1488,0.289439 -0.3472,0.289439c0,0 0,0 0,0l0,0l-19.592,-0.082697c-0.4464,0.041348 -0.1488,-1.612586 -0.1488,-1.653934z" class="st19"/>
   <path stroke="null" id="svg_99" d="m152.420803,192.811211c0.4464,0.49618 0.8432,1.075057 1.1904,1.653934" class="st20"/>
   <path stroke="null" id="svg_100" d="m151.379203,193.307392c0.3968,0.413484 0.6944,0.909664 0.9424,1.405844" class="st20"/>
   <path stroke="null" id="svg_101" d="m150.486403,193.720875c0.3472,0.413484 0.6448,0.826967 0.8928,1.281799" class="st20"/>
   <line stroke="null" id="svg_102" y2="197.152789" x2="144.980803" y1="197.276834" x1="165.068803" class="st20"/>
   <path stroke="null" id="svg_103" d="m164.870403,194.754584c0,0 -4.6624,0.041348 -5.0592,2.480901" class="st20"/>
   <path stroke="null" id="svg_104" d="m147.609603,194.878629c0,0 1.3392,1.571238 1.5872,2.315508" class="st20"/>
   <path stroke="null" id="svg_105" d="m162.142403,132.690699c0,0 2.1328,2.977082 2.728,5.209893c0.5456,2.356856 0.5456,4.837758 0,7.194614l-0.0496,42.79555l-12.9952,0c0,0 -2.8768,-49.328591 -1.5872,-55.696238" class="st21"/>
   <path stroke="null" id="svg_106" d="m153.809603,187.849409c0,0 -2.8768,-49.328591 -1.5872,-55.696238" class="st22"/>
   <path stroke="null" id="svg_107" d="m149.841603,175.98243l5.9024,11.205405l1.2896,3.721352l-16.2688,5.375286c-0.3968,0.124045 -0.8432,-0.041348 -1.0416,-0.372135l0,0c-0.1488,-0.24809 -0.0496,-0.578877 0.1984,-0.74427l5.9024,-5.209893l-6.8448,-11.453495" class="st18"/>
   <path stroke="null" id="svg_108" d="m139.177603,196.61526c-0.0992,-0.454832 0,-0.909664 0.2976,-1.323147l6.3488,-5.333938c4.9104,0 9.8704,-2.894385 9.8704,-2.894385l2.728,4.672364c0.0992,0.165393 0,0.330787 -0.1488,0.413484c0,0 0,0 -0.0496,0l0,0l-18.2032,5.995512c-0.3472,0.082697 -0.8432,-1.529889 -0.8432,-1.529889z" class="st19"/>
   <path stroke="null" id="svg_109" d="m144.286403,190.785142c0.6448,0.330787 1.2896,0.702922 1.8352,1.157754" class="st20"/>
   <path stroke="null" id="svg_110" d="m143.542403,191.570761c0.5456,0.289439 1.0416,0.620225 1.488,0.992361" class="st20"/>
   <path stroke="null" id="svg_111" d="m142.897603,192.190986c0.496,0.289439 0.9424,0.578877 1.3888,0.909664" class="st20"/>
   <line stroke="null" id="svg_112" y2="197.152789" x2="139.326403" y1="190.991884" x1="157.976003" class="st20"/>
   <path stroke="null" id="svg_113" d="m156.736003,188.717724c0,0 -4.3152,1.447193 -3.5712,3.845397" class="st20"/>
   <path stroke="null" id="svg_114" d="m140.764803,194.175707c0,0 1.9344,1.033709 2.5296,1.653934" class="st20"/>
   <path stroke="null" id="svg_115" d="m139.723203,139.637224c-6.696,13.686306 -6.7952,15.133499 -7.8864,21.831933c-1.1408,6.863827 11.2096,27.041826 11.2096,27.041826l11.8544,-4.341578c0,0 -7.8864,-18.441368 -7.3408,-21.625191c0.9424,-5.830118 9.0272,-15.795073 9.0272,-15.795073s3.8192,-2.52225 4.6624,-5.912815s-0.992,-6.905176 -0.992,-6.905176" class="st21"/>
   <path stroke="null" id="svg_116" d="m151.924803,141.291158l5.3072,-1.405844" class="st22"/>
   <line stroke="null" id="svg_117" y2="138.190031" x2="164.969603" y1="138.603515" x1="163.283203" class="st22"/>
   <path stroke="null" id="svg_118" d="m143.691203,139.22374c0,0 -8.2336,14.968105 -9.3744,21.831933s10.912,26.462949 10.912,26.462949" class="st22"/>
   <path stroke="null" id="svg_119" d="m150.288003,155.928476c1.8352,-3.183824 3.9184,-6.28495 6.2496,-9.220684c0,0 3.8192,-2.52225 4.6624,-5.912815" class="st22"/>
   <path stroke="null" id="svg_120" d="m138.632003,105.814267l3.4224,4.920455c0,0 -2.0336,3.680004 -7.5392,1.943373l-1.3888,-2.604947l5.5056,-4.258881z" class="st18"/>
   <path stroke="null" id="svg_121" d="m129.555202,102.46505c0,0 -1.6864,6.574389 1.24,7.732143c1.488,0.620225 5.7536,0.24809 6.7456,-1.116406c0.744,-0.992361 0.4464,-5.706073 -0.4464,-6.28495c-3.472,-2.191463 -7.5392,-0.330787 -7.5392,-0.330787z" class="st18"/>
   <path stroke="null" id="svg_122" d="m136.945603,100.521677c-1.2896,-1.860676 -3.8688,-1.488541 -8.0848,0.49618c-0.5456,0.24809 -1.7856,0.372135 -1.7856,0.909664c0,0.702922 0.5952,1.860676 1.5872,2.108766c0.5456,0.124045 1.1408,0.124045 1.6864,-0.041348c0.8928,-0.165393 2.0336,0.124045 2.0336,0.992361c0,0.206742 -0.0992,0.620225 0.1488,0.702922l0.5952,0c0.3968,0 0.5952,0.413484 0.5456,0.74427c-0.0496,0.330787 0.1984,0.578877 0.1488,0.868316c-0.0992,0.785619 1.0416,1.612586 1.984,1.695283c0.8432,0.041348 3.224,-0.289439 4.3648,-1.571238c0.992,-1.116406 0.8928,-3.01843 -0.7936,-5.830118c-0.5952,-1.033709 -1.984,-1.323147 -2.4304,-1.075057z" class="st23"/>
   <path stroke="null" id="svg_123" d="m132.283202,106.021009c0.248,-1.033709 0.9424,-1.157754 1.488,-0.868316c0.744,0.372135 0.5952,1.860676 0.2976,2.232811c-0.5456,0.74427 -1.24,0.951012 -1.5872,0.413484" class="st18"/>
   <path stroke="null" id="svg_124" d="m133.324803,110.445283c0.5456,-0.454832 0.8432,-1.075057 0.744,-1.736631" class="st24"/>
   <path stroke="null" id="svg_125" d="m129.852802,105.607525c-0.0992,0.206742 -0.1488,0.578877 0.0496,0.702922c0.0496,0.041348 0.1488,0.041348 0.1984,0c0.4464,-0.24809 0,-1.199102 -0.248,-0.702922z" class="st25"/>
   <path stroke="null" id="svg_126" d="m129.456002,104.863255c0.4464,-0.041348 0.8928,0.041348 1.2896,0.206742" class="st26"/>
   <path stroke="null" id="svg_127" d="m130.944002,108.00573l-1.2896,-0.041348c0,0 -0.0496,1.281799 0.5456,1.323147s0.744,-1.281799 0.744,-1.281799z" class="st10"/>
   <path stroke="null" id="svg_128" d="m141.211203,109.576968c0,0 2.976,-0.620225 7.1424,0.372135c3.5216,0.868316 8.0352,3.059778 11.408,6.078209c5.8528,5.209893 3.1744,18.110581 3.1744,18.110581l-7.6384,-0.24809c0,0 1.1904,-8.31102 -2.7776,-11.618889s-9.6224,-4.093487 -9.6224,-4.093487" class="st27"/>
   <path stroke="null" id="svg_129" d="m108.872002,127.728897c-2.3808,0.537529 -9.6224,1.199102 -9.7216,1.612586s2.4304,0.206742 2.2816,0.537529s-4.0672,0.868316 -4.0672,1.281799c0,0.578877 3.968,-0.124045 3.968,-0.124045s-1.6368,0.24809 -1.4384,0.74427c0.1488,0.372135 0.7936,0.454832 2.1328,0.372135c-0.6944,0.124045 -0.992,0.413484 -0.8432,0.785619s0.8432,0.330787 1.5872,0.24809c-0.496,0.082697 -0.8928,0.372135 -0.5456,0.620225c0.4464,0.330787 3.3728,0.165393 8.6304,-0.578877" class="st18"/>
   <path stroke="null" id="svg_130" d="m133.672003,111.230902c1.3888,0.413484 2.9264,0.413484 4.3152,0c1.1904,-0.330787 2.3312,-0.909664 3.224,-1.653934c0,0 5.1088,-0.289439 11.3584,4.920455s11.2096,20.13665 11.2096,20.13665l-25.8416,7.235963c0,0 -4.4144,-13.024733 -6.1504,-18.978896s1.8848,-11.660237 1.8848,-11.660237z" class="st27"/>
   <path stroke="null" id="svg_131" d="m152.272003,113.132926c5.1584,5.003151 11.5568,21.501146 11.5568,21.501146" class="st28"/>
   <path stroke="null" id="svg_132" d="m133.672003,111.230902c-3.4224,1.075057 -6.3488,3.845397 -8.1344,6.657086c-2.9264,4.631016 -4.712,8.021581 -4.712,8.021581l-14.8304,1.860676l0.744,6.615737c0,0 10.0688,-0.24809 18.0544,-1.240451c5.704,-0.702922 10.1184,-10.543831 10.1184,-10.543831" class="st27"/>
   <path stroke="null" id="svg_133" d="m132.680002,111.603037c0,0 1.6368,1.819328 5.5552,0.578877s4.0672,-2.728992 4.0672,-2.728992" class="st28"/>
   <line stroke="null" id="svg_134" y2="123.09788" x2="134.664003" y1="125.950917" x1="133.027203" class="st28"/>
   <line stroke="null" id="svg_135" y2="134.261937" x2="108.921602" y1="127.480806" x1="108.376002" class="st28"/>
   <line stroke="null" id="svg_136" y2="133.352273" x2="163.283203" y1="140.464191" x1="137.491203" class="st28"/>
   <path stroke="null" id="svg_137" d="m56.296001,143.606666l-0.4464,11.784282l0.4464,3.721352l16.864,-0.082697c0.4464,0 0.7936,-0.289439 0.7936,-0.661574c0,0 0,0 0,0l0,0c0,-0.24809 -0.1984,-0.49618 -0.496,-0.578877l-7.5392,-2.894385l1.1408,-12.280462" class="st18"/>
   <path stroke="null" id="svg_138" d="m74.747201,158.905558c-0.1984,-0.454832 -0.496,-0.992361 -0.8432,-1.116406l-7.9856,-2.853037c-4.4144,1.488541 -10.0688,0.372135 -10.0688,0.372135l-0.4464,5.003151c0,0.165393 0.1488,0.289439 0.3472,0.289439c0,0 0,0 0,0l18.848,-0.082697c0.3968,0 0.1488,-1.612586 0.1488,-1.612586z" class="st19"/>
   <path stroke="null" id="svg_139" d="m67.654401,155.225554c-0.4464,0.49618 -0.8432,1.033709 -1.1408,1.571238" class="st29"/>
   <path stroke="null" id="svg_140" d="m68.646401,155.721735c-0.3472,0.413484 -0.6944,0.868316 -0.9424,1.323147" class="st29"/>
   <path stroke="null" id="svg_141" d="m69.489601,156.09387c-0.3472,0.413484 -0.5952,0.826967 -0.8928,1.240451" class="st29"/>
   <line stroke="null" id="svg_142" y2="159.401738" x2="74.796801" y1="159.484435" x1="55.502401" class="st29"/>
   <path stroke="null" id="svg_143" d="m55.651201,157.08623c0,0 4.464,0.041348 4.8608,2.356856" class="st29"/>
   <path stroke="null" id="svg_144" d="m72.267201,157.210276c0,0 -1.2896,1.529889 -1.5376,2.232811" class="st29"/>
   <path stroke="null" id="svg_145" d="m57.883201,101.431341c0,0 8.9776,14.017093 11.8048,22.824293s-0.9424,28.654412 -0.9424,28.654412l-13.9376,0c0,0 2.7776,-21.542494 -0.496,-28.654412s-15.128,-25.884072 -15.128,-25.884072" class="st27"/>
   <path stroke="null" id="svg_146" d="m56.692801,152.868698c0,0 2.2816,-22.41081 0.8928,-27.95149s-11.0608,-18.400019 -11.0608,-18.400019" class="st28"/>
   <path stroke="null" id="svg_147" d="m40.324801,137.073625l-8.2336,9.468774l-2.232,3.225172l13.6896,8.228323c0.3472,0.206742 0.8432,0.165393 1.0912,-0.124045l0,0c0.1984,-0.206742 0.1984,-0.49618 0.0496,-0.74427l-4.0672,-6.03686l9.1264,-9.923606" class="st18"/>
   <path stroke="null" id="svg_148" d="m44.888001,158.61612c0.1984,-0.454832 0.2976,-1.033709 0.0992,-1.281799l-4.4144,-6.243602c-4.6128,-0.951012 -8.432,-4.672364 -8.432,-4.672364l-3.8688,3.845397c-0.0992,0.124045 -0.0496,0.330787 0.0992,0.413484l15.2768,9.137987c0.2976,0.206742 1.24,-1.199102 1.24,-1.199102z" class="st19"/>
   <path stroke="null" id="svg_149" d="m41.763201,152.124428c-0.6944,0.165393 -1.3888,0.413484 -2.0336,0.702922" class="st29"/>
   <path stroke="null" id="svg_150" d="m42.209601,153.034091c-0.5952,0.165393 -1.1408,0.372135 -1.6864,0.620225" class="st29"/>
   <path stroke="null" id="svg_151" d="m42.656001,153.737013c-0.5456,0.165393 -1.0912,0.372135 -1.5872,0.578877" class="st29"/>
   <line stroke="null" id="svg_152" y2="159.070952" x2="44.590401" y1="149.643526" x1="28.867201" class="st29"/>
   <path stroke="null" id="svg_153" d="m30.702401,147.78285c0,0 3.6208,2.232811 2.2816,4.300229" class="st29"/>
   <path stroke="null" id="svg_154" d="m44.094401,156.011173c-0.992,0.24809 -1.9344,0.620225 -2.8272,1.033709" class="st29"/>
   <path stroke="null" id="svg_155" d="m35.513601,98.371563c-2.6784,6.28495 0,11.205405 0,11.205405s9.0768,13.810351 9.0768,16.580691c0,2.563598 -11.6064,17.242265 -11.6064,17.242265l10.6144,7.111918c0,0 16.7152,-14.968105 16.368,-25.346543c-0.3968,-12.817991 -8.7792,-26.835084 -8.7792,-26.835084" class="st27"/>
   <path stroke="null" id="svg_156" d="m37.497601,98.785046c-2.6784,6.28495 0.5456,10.502483 0.5456,10.502483s8.5312,14.513274 8.5312,17.324962c0,2.563598 -12.0528,17.821142 -12.0528,17.821142" class="st28"/>
   <path stroke="null" id="svg_157" d="m55.750401,136.577445c2.48,-3.804049 4.3152,-7.856188 4.216,-11.370798c-0.3968,-12.817991 -8.7792,-26.835084 -8.7792,-26.835084" class="st28"/>
   <path stroke="null" id="svg_158" d="m36.604801,103.746849c0,0 4.7616,0.24809 6.5968,-2.935733" class="st28"/>
   <path stroke="null" id="svg_159" d="m54.808001,105.524828c0,0 1.2896,0.124045 1.1904,-0.413484s-1.1904,-3.431914 -1.1904,-3.431914" class="st28"/>
   <path stroke="null" id="svg_160" d="m60.859201,65.086135c0.496,2.52225 0.0992,4.755061 -2.48,5.085848s-6.2,-0.289439 -6.8944,-3.886746c-0.496,-2.52225 1.24,-4.837758 3.8192,-5.209893s5.0592,1.488541 5.5552,4.010791z" class="st30"/>
   <path stroke="null" id="svg_161" d="m58.726401,65.127483c-0.0992,0.24809 0,0.49618 0.248,0.661574c0.0496,0.041348 0.1488,0 0.1984,-0.041348c0.3472,-0.289439 -0.3472,-1.116406 -0.4464,-0.620225z" class="st25"/>
   <path stroke="null" id="svg_162" d="m57.883201,64.548606c0.5456,-0.24809 1.1904,-0.289439 1.7856,-0.082697" class="st31"/>
   <path stroke="null" id="svg_163" d="m60.412801,67.73243l-1.6864,0c0,0 -0.0992,1.157754 0.744,1.281799c0.6944,0.124045 0.9424,-1.281799 0.9424,-1.281799z" class="st10"/>
   <path stroke="null" id="svg_164" d="m56.990401,72.983671c-1.2896,0.165393 -2.6288,0.124045 -3.9184,-0.124045c-2.232,-0.49618 -2.8768,-1.281799 -2.8768,-1.281799l3.1248,-5.416635l4.8112,1.819328l-1.1408,5.003151z" class="st30"/>
   <path stroke="null" id="svg_165" d="m57.585601,70.254679c0,0 -2.0832,0.041348 -3.1744,-0.785619" class="st32"/>
   <path stroke="null" id="svg_166" d="m60.264001,65.003438c0,0 1.2896,1.571238 1.24,1.860676s-0.992,0.413484 -0.992,0.413484" class="st30"/>
   <path stroke="null" id="svg_167" d="m53.320001,68.600745c-0.2976,0.082697 -0.5952,0.165393 -0.8928,0.165393c-0.5952,0.082697 -1.24,-0.041348 -1.7856,-0.24809c-1.0416,-0.454832 -1.5872,-1.405844 -1.3888,-2.356856c0.0496,-0.165393 0.0992,-0.289439 0.0992,-0.454832c0.1488,-0.702922 -0.3472,-1.364496 -0.496,-2.067418c-0.1488,-0.702922 0.0496,-1.405844 0.5456,-1.984721c0.496,-0.578877 1.1408,-0.992361 1.9344,-1.240451c0.6448,-0.206742 1.2896,-0.24809 1.8352,-0.661574c0.248,-0.206742 0.496,-0.372135 0.744,-0.49618c1.2896,-0.661574 3.1248,-0.289439 4.2656,0.413484c0.1488,0.082697 0.2976,0.165393 0.4464,0.206742c0.2976,0.041348 0.5952,-0.041348 0.8432,0c1.0912,0.165393 1.5872,1.529889 1.5872,2.356856c0,0.24809 -0.0992,0.454832 -0.248,0.661574c-0.2976,0.24809 -0.6944,0.413484 -1.0912,0.454832c-0.5952,0 -1.1408,0.041348 -1.736,0.082697c-0.3968,0.124045 -0.744,0.289439 -1.0912,0.454832c-0.5952,0.206742 -1.2896,0.165393 -1.8848,-0.041348c0.1488,0.330787 0.1984,0.702922 0.1488,1.033709c-0.0992,0.661574 -0.7936,0.992361 -1.488,1.116406c0.2976,0.702922 0.3472,1.447193 0.1488,2.150115c-0.0992,0.206742 -0.248,0.372135 -0.496,0.454832z" class="st33"/>
   <path stroke="null" id="svg_168" d="m54.262401,65.499618c-0.2976,-0.330787 -0.8928,-0.413484 -1.3392,-0.124045c0,0 0,0 0,0l-0.0496,0c-0.9424,0.661574 0.2976,2.067418 1.0416,2.27416c0.3968,0.124045 0.7936,-0.082697 0.9424,-0.372135c0,-0.041348 0,-0.041348 0,-0.082697" class="st34"/>
   <path stroke="null" id="svg_169" d="m79.707201,92.417399c1.4384,0.082697 8.0352,0.661574 7.9856,0.992361s-2.2816,0.413484 -2.1824,0.578877c0.0992,0.24809 1.7856,0.454832 2.7776,0.49618c0.8432,0.041348 2.1824,0.206742 2.232,0.537529c0.0496,0.578877 -4.6128,0.330787 -4.6128,0.330787c0,0.165393 5.0592,-0.49618 5.1584,0c0.1488,0.702922 -5.2576,1.075057 -5.4064,1.240451c0,0 4.5632,-1.405844 4.712,-0.868316s-3.9184,1.860676 -5.2576,1.860676c1.0416,-0.165393 4.1664,-1.653934 4.2656,-1.281799s-2.6784,1.364496 -3.1248,1.447193c-2.48,0.289439 -4.96,0.372135 -7.44,0.206742" class="st18"/>
   <path stroke="null" id="svg_170" d="m57.040001,72.611536c0,0 -1.3888,0.578877 -3.5712,-0.206742c-2.3312,-0.826967 -2.8272,-1.819328 -2.8272,-1.819328s-12.5984,0.909664 -17.2112,30.101604l25.8416,2.646295c0,0 2.0832,-10.419786 1.736,-18.854851c-0.1984,-5.375286 -2.6784,-9.551471 -3.968,-11.866979" class="st21"/>
   <path stroke="null" id="svg_171" d="m49.451201,84.313121c0,0 3.968,11.08136 14.7312,13.479565c5.5552,1.281799 11.2592,1.984721 17.0128,2.108766l1.0416,-7.484053c0,0 -11.7056,-1.736631 -16.5168,-4.382926c-3.6704,-2.02607 -4.3648,-8.476413 -5.3072,-10.750573c-1.2896,-3.183824 -3.3728,-4.631016 -3.3728,-4.631016" class="st21"/>
   <path stroke="null" id="svg_172" d="m49.649601,70.833556c0,0 0.7936,2.02607 4.464,2.687643c2.6784,0.49618 3.72,-0.165393 3.72,-0.165393" class="st22"/>
   <path stroke="null" id="svg_173" d="m59.966401,96.552235c0,0 -9.7712,-3.762701 -10.3168,-14.430577" class="st22"/>
   <line stroke="null" id="svg_174" y2="99.818755" x2="78.764801" y1="92.086612" x1="80.054402" class="st22"/>
   <path stroke="null" id="svg_175" d="m197.160004,198.021105c-3.6208,-24.188789 5.1584,-33.037338 14.7808,-33.450821c4.5632,-0.206742 17.856,1.323147 1.7856,33.450821" class="st10"/>
   <path stroke="null" id="svg_176" d="m197.259204,198.021105c-0.248,-2.563598 -0.5952,-5.168545 -0.6944,-7.732143c-0.0992,-2.191463 -0.0496,-4.382926 0.0992,-6.574389c0.1984,-3.390565 1.0416,-6.781131 2.4304,-9.964954c0.992,-2.27416 2.5792,-4.341578 4.6624,-6.03686c1.6864,-1.323147 3.7696,-2.27416 6.0512,-2.687643c1.2896,-0.24809 2.6288,-0.330787 3.968,-0.206742c1.1408,0.082697 2.1824,0.372135 3.1744,0.826967c1.24,0.578877 2.232,1.447193 2.8768,2.52225c0.9424,1.571238 1.3888,3.307869 1.4384,5.0445c0.0496,2.853037 -0.2976,5.664725 -1.0912,8.435065c-1.1904,4.300229 -2.7776,8.517762 -4.7616,12.611249c-0.5952,1.240451 -1.1904,2.52225 -1.7856,3.762701c-0.0496,0.124045 0.1984,0.206742 0.248,0.082697c1.3392,-2.439553 2.48,-5.003151 3.5216,-7.525401c0.8928,-2.108766 1.6864,-4.217532 2.3808,-6.367647c1.0416,-3.059778 1.6864,-6.243602 1.8848,-9.427426c0.1488,-1.984721 -0.1984,-3.969442 -0.992,-5.871467c-0.5456,-1.240451 -1.488,-2.315508 -2.728,-3.142475c-0.992,-0.620225 -2.1328,-1.033709 -3.3232,-1.199102c-1.0912,-0.165393 -2.1824,-0.206742 -3.2736,-0.082697c-2.2816,0.206742 -4.5136,0.868316 -6.3488,2.02607c-2.1824,1.405844 -3.968,3.183824 -5.1584,5.251241c-1.6368,2.853037 -2.6784,5.912815 -3.0752,9.05529c-0.6448,4.424274 -0.6944,8.931245 -0.1488,13.35552c0.1488,1.323147 0.2976,2.604947 0.5456,3.886746c-0.0992,0.041348 0.0992,0.041348 0.0992,-0.041348l0,0z" class="st35"/>
   <line stroke="null" id="svg_177" y2="197.979756" x2="203.161604" y1="164.611632" x1="211.643204" class="st3"/>
   <path stroke="null" id="svg_178" d="m223.348804,198.227846c5.8032,-7.194614 17.4592,-23.609912 8.68,-29.398682c-4.8112,-3.183824 -13.64,0.74427 -18.352,7.773491c-4.5136,6.822479 -8.0352,14.058442 -10.5152,21.542494" class="st10"/>
   <path stroke="null" id="svg_179" d="m223.497604,198.310543c1.3888,-1.695283 2.6784,-3.390565 3.9184,-5.168545c1.488,-2.067418 2.8768,-4.217532 4.0672,-6.408995c1.24,-2.150115 2.232,-4.382926 3.0256,-6.698434c0.6944,-1.984721 0.992,-4.093487 0.7936,-6.160905c-0.1488,-1.777979 -1.0912,-3.431914 -2.5792,-4.713713c-0.7936,-0.661574 -1.7856,-1.116406 -2.8272,-1.405844c-1.1408,-0.24809 -2.2816,-0.289439 -3.4224,-0.124045c-2.728,0.372135 -5.2576,1.612586 -7.3904,3.101127c-1.24,0.868316 -2.3808,1.860676 -3.4224,2.935733c-1.0912,1.199102 -2.0336,2.439553 -2.8768,3.762701c-1.8352,2.853037 -3.472,5.747422 -4.96,8.724503c-1.5376,3.101127 -2.8768,6.28495 -4.0672,9.468774c-0.2976,0.826967 -0.5952,1.612586 -0.8928,2.439553c0,0.082697 0.0496,0.206742 0.1984,0.206742c0.0992,0 0.1984,-0.041348 0.248,-0.124045c1.0912,-3.183824 2.3312,-6.367647 3.7696,-9.468774c1.3888,-2.977082 2.9264,-5.912815 4.6624,-8.765852c1.5872,-2.646295 3.2736,-5.251241 5.704,-7.442704c1.984,-1.819328 4.4144,-3.26652 7.192,-4.134836c2.1328,-0.620225 4.6128,-0.785619 6.6464,0.24809c1.736,0.951012 2.976,2.480901 3.3728,4.176184c0.3968,1.943373 0.3472,3.969442 -0.248,5.871467c-0.5952,2.27416 -1.488,4.465623 -2.6288,6.574389c-1.1408,2.191463 -2.4304,4.341578 -3.8688,6.408995c-1.24,1.860676 -2.5792,3.638655 -3.968,5.416635c-0.2976,0.372135 -0.5456,0.702922 -0.8432,1.075057c0,0.165393 0.248,0.330787 0.3968,0.206742l0,0z" class="st35"/>
   <line stroke="null" id="svg_180" y2="198.599982" x2="214.569604" y1="168.16759" x1="230.044804" class="st3"/>
   <path stroke="null" id="svg_181" d="m218.091204,197.979756c7.6384,-9.05529 14.2352,-11.453495 20.4848,-10.750573c4.8608,0.578877 5.6048,4.755061 -4.6128,10.709225" class="st10"/>
   <path stroke="null" id="svg_182" d="m218.190404,198.021105c0.744,-0.74427 1.4384,-1.571238 2.1328,-2.315508c0.6448,-0.702922 1.3392,-1.364496 2.0832,-2.02607c1.24,-1.116406 2.5296,-2.191463 3.968,-3.142475c2.1824,-1.488541 4.7616,-2.52225 7.4896,-3.059778c1.1408,-0.206742 2.3312,-0.24809 3.5216,-0.206742c0.992,0 1.9344,0.165393 2.8272,0.49618c0.6448,0.24809 1.1904,0.702922 1.4384,1.281799c0.248,0.661574 0.1984,1.405844 -0.1488,2.02607c-0.496,0.992361 -1.1904,1.902024 -2.0832,2.687643c-1.2896,1.199102 -2.728,2.27416 -4.2656,3.225172l-1.3392,0.868316c-0.1488,0.082697 0.0496,0.24809 0.1984,0.206742c1.8352,-0.951012 3.5216,-2.108766 5.0096,-3.390565c1.0416,-0.826967 1.9344,-1.819328 2.5792,-2.894385c0.744,-1.281799 0.9424,-2.894385 -0.5456,-3.886746c-0.6944,-0.454832 -1.5376,-0.702922 -2.4304,-0.785619c-1.1904,-0.165393 -2.4304,-0.165393 -3.6208,-0.041348c-2.7776,0.289439 -5.4064,1.199102 -7.688,2.563598c-3.224,1.902024 -5.9024,4.424274 -8.2336,7.070569c-0.3968,0.413484 -0.744,0.826967 -1.0416,1.281799c-0.0992,0.041348 0.0496,0.124045 0.1488,0.041348l0,0z" class="st35"/>
   <line stroke="null" id="svg_183" y2="197.897059" x2="225.977604" y1="187.229183" x1="237.633604" class="st3"/>
   <line stroke="null" id="svg_184" y2="198.269195" x2="248.000005" y1="198.269195" x1="0" class="st36"/>
   <path stroke="null" id="svg_185" d="m25.8912,177.140184c-1.736,-4.879106 -6.2,-15.546982 1.1408,-29.191941c8.3328,9.923606 7.192,20.839572 4.7616,31.135313" class="st37"/>
   <path stroke="null" id="svg_186" d="m27.032001,147.948243c0,0 -2.8272,12.900688 0.992,30.184301" class="st38"/>
   <path stroke="null" id="svg_187" d="m28.569601,178.25659c0,0 1.5376,-23.072384 -1.5376,-30.308346" class="st38"/>
   <path stroke="null" id="svg_188" d="m29.561601,178.421983c0,0 4.464,-21.294404 -2.5296,-30.47374" class="st38"/>
   <path stroke="null" id="svg_189" d="m20.1376,180.365356c-3.472,-2.604947 -11.5568,-8.021581 -12.5984,-19.805863c10.0688,3.059778 14.6816,11.164057 17.7072,18.896199" class="st37"/>
   <path stroke="null" id="svg_190" d="m7.5392,160.559493c0,0 3.5216,9.923606 14.1856,19.971257" class="st38"/>
   <path stroke="null" id="svg_191" d="m23.4112,179.827827c0,0 -11.7552,-14.223835 -15.872,-19.226986" class="st38"/>
   <path stroke="null" id="svg_192" d="m24.2048,179.538389c0,0 -8.1344,-14.306532 -16.6656,-18.978896" class="st38"/>
   <path stroke="null" id="svg_193" d="m23.4112,177.470971c-2.7776,-3.390565 -10.8128,-13.60361 -8.3824,-24.478228c9.3248,5.830118 13.0448,17.407659 13.8384,25.222498" class="st37"/>
   <path stroke="null" id="svg_194" d="m15.0784,152.992743c0,0 3.472,16.291253 9.6224,24.560924" class="st38"/>
   <path stroke="null" id="svg_195" d="m25.9408,177.967151c0,0 -8.3328,-21.749236 -10.912,-24.974408" class="st38"/>
   <path stroke="null" id="svg_196" d="m27.627201,178.132545c0,0 -5.0096,-19.64047 -12.5488,-25.139801" class="st38"/>
   <path stroke="null" id="svg_197" d="m36.753601,177.264229c2.3808,-4.382926 8.1344,-13.893048 4.1664,-27.992838c-8.68,7.525401 -9.8704,18.772154 -9.6224,28.985199" class="st37"/>
   <path stroke="null" id="svg_198" d="m40.920001,149.230043l-7.192,28.530367" class="st38"/>
   <path stroke="null" id="svg_199" d="m40.920001,149.230043c0,0 0.9424,12.776643 -5.456,28.654412" class="st38"/>
   <path stroke="null" id="svg_200" d="m32.339201,177.925803c0,0 1.7856,-19.185638 8.5808,-28.69576" class="st38"/>
   <path stroke="null" id="svg_201" d="m37.001601,181.853897c3.0752,-2.935733 10.912,-10.254393 11.5568,-20.095302c-9.0768,4.424274 -12.896,12.528552 -15.2768,20.095302" class="st37"/>
   <path stroke="null" id="svg_202" d="m48.558401,161.799943c0,0 -5.6544,12.445856 -12.5984,19.64047" class="st38"/>
   <path stroke="null" id="svg_203" d="m34.273601,181.440413c0,0 8.4816,-14.926757 14.2848,-19.64047" class="st38"/>
   <path stroke="null" id="svg_204" d="m43.846401,176.437262l0,4.631016c0,10.295741 -5.952,16.911478 -5.952,16.911478l-18.5008,0c0,0 -6.0016,-6.615737 -6.0016,-16.911478l0,-4.631016l30.454401,0z" class="st19"/>
  </g>
 </g>
</svg>