<svg width="330" height="303" xmlns="http://www.w3.org/2000/svg" xmlns:xlink="http://www.w3.org/1999/xlink">
 <style type="text/css">.st0{fill:none;stroke:#ADBBF9;stroke-linejoin:round;stroke-dasharray:3.5,3.5;}
	.st1{fill:#E4E9F9;}
	.st2{fill:#FFFFFF;stroke:#ADBBF9;stroke-linejoin:round;}
	.st3{fill:none;stroke:#ADBBF9;stroke-linejoin:round;}
	.st4{fill:#00206A;}
	.st5{fill:#0948B3;}
	.st6{fill:none;stroke:#EBEBEB;stroke-miterlimit:10;}
	.st7{clip-path:url(#SVGID_2_);}
	.st8{fill:url(#SVGID_3_);}
	.st9{fill:url(#SVGID_4_);}
	.st10{fill:#FFFFFF;}
	.st11{fill:none;stroke:#4643BF;stroke-miterlimit:10;}
	.st12{fill:#D3DBF4;}
	.st13{fill:none;stroke:#FFFFFF;stroke-miterlimit:10;}
	.st14{fill:#E3EAFC;}
	.st15{fill:#F0F1FF;}
	.st16{fill:#C2CFEF;}
	.st17{fill:none;stroke:#D3DBF4;stroke-miterlimit:10;}
	.st18{fill:#FFCBBD;}
	.st19{fill:#E5EAF9;}
	.st20{fill:none;stroke:#121649;stroke-width:0.75;stroke-miterlimit:10;}
	.st21{fill:#F1F1F1;}
	.st22{fill:none;stroke:#1A3987;stroke-width:0.75;stroke-miterlimit:10;}
	.st23{fill:#212237;}
	.st24{fill:none;stroke:#E88872;stroke-width:0.5;stroke-linejoin:round;}
	.st25{fill:#28364C;}
	.st26{fill:none;stroke:#28364C;stroke-width:0.75;stroke-miterlimit:10;}
	.st27{fill:#EE5050;}
	.st28{fill:none;stroke:#A52F2D;stroke-width:0.75;stroke-miterlimit:10;}
	.st29{fill:none;stroke:#5565AA;stroke-width:0.75;stroke-miterlimit:10;}
	.st30{fill-rule:evenodd;clip-rule:evenodd;fill:#FFCBBB;}
	.st31{fill:none;stroke:#28364C;stroke-width:0.5;stroke-linecap:round;stroke-linejoin:round;}
	.st32{fill:none;stroke:#EF977F;stroke-miterlimit:10;}
	.st33{fill:#14122D;}
	.st34{fill:#FFCBBB;}
	.st35{fill:#ADBBF9;}
	.st36{fill:none;stroke:#E5EAF9;stroke-miterlimit:10;}
	.st37{fill:#FFFFFF;stroke:#C5C8EF;stroke-linejoin:round;}
	.st38{fill:none;stroke:#C5C8EF;stroke-linejoin:round;}</style>
 <metadata/>
 <g>
  <title>background</title>
  <rect fill="none" id="canvas_background" height="305" width="332" y="-1" x="-1"/>
 </g>
 <g>
  <title>Layer 1</title>
  <g stroke="null" id="Screen">
   <path stroke="null" id="svg_1" d="m117.72,205.765631c-3.7932,-12.465017 -14.5188,-22.048673 -28.449,-22.361865c-8.1096,-0.187915 -15.8922,3.131914 -22.8246,6.89021c-9.2868,5.136339 -20.274,11.27489 -31.392,9.708933c-7.1286,-1.002212 -15.5652,-4.823147 -17.2656,-12.71557c-1.7658,-8.393529 5.2974,-14.093612 12.8184,-17.476079c6.4746,-2.881361 15.5652,-9.771571 18.4428,-16.34859c11.5104,-26.182799 -20.7318,-56.061257 -11.5758,-85.877077c9.5484,-31.193862 53.5626,-36.455477 75.7332,-15.283739c2.1582,2.004425 4.1202,4.196765 5.9514,6.514381c4.5126,5.762721 7.194,13.592506 13.4724,17.851909c8.1096,5.574807 18.7044,3.820935 27.468,0.501106c16.7424,-6.326466 21.1896,-10.52323 37.5396,-17.350803c11.772,-4.885786 26.2908,-9.270465 39.5016,-4.948424c9.483,3.131914 19.947,8.769359 25.2444,16.849696c9.8754,15.158463 5.4282,31.444415 20.9934,52.929343c7.0632,9.771571 18.312,12.465017 27.2064,19.543142c23.217,18.227738 15.4344,56.750278 -9.8754,69.904316c-20.7972,10.836422 -46.3686,8.330891 -68.8662,5.574807c-1.7004,-0.187915 -3.4662,-0.438468 -5.1666,-0.689021" class="st0"/>
   <path stroke="null" id="svg_2" d="m282.135601,63.952574c3.9894,-4.384679 6.867,-9.521018 8.3712,-15.158463l-7.7172,-2.630808c0.5886,-2.505531 0.8502,-5.136339 0.7194,-7.704508l8.1096,-1.190127c-0.3924,-5.762721 -2.2236,-11.400166 -5.2974,-16.411228l-7.3902,3.382467c-1.4388,-2.19234 -3.1392,-4.196765 -5.1666,-5.950636l4.8396,-6.326466c-4.5126,-3.820935 -9.9408,-6.577019 -15.8268,-8.017699l-2.7468,7.391317c-2.616,-0.563744 -5.3628,-0.814298 -8.0442,-0.689021l-1.2426,-7.767146c-6.0168,0.37583 -11.9028,2.067063 -17.1348,5.011062l3.5316,7.078125c-2.289,1.378042 -4.3818,3.069276 -6.2784,4.948424l-6.6054,-4.635232c-3.9894,4.322041 -6.867,9.521018 -8.3712,15.158463l7.7172,2.630808c-0.5886,2.505531 -0.8502,5.136339 -0.7194,7.704508l-8.1096,1.190127c0.3924,5.762721 2.2236,11.400166 5.2974,16.411228l7.3902,-3.382467c1.4388,2.19234 3.1392,4.196765 5.1666,5.950636l-4.8396,6.326466c4.578,3.820935 9.9408,6.577019 15.8268,8.017699l2.7468,-7.391317c2.616,0.563744 5.3628,0.814298 8.0442,0.689021l1.308,7.767146c6.0168,-0.37583 11.9028,-2.129701 17.1348,-5.0737l-3.5316,-7.078125c2.289,-1.378042 4.3818,-3.006637 6.213,-4.948424l6.6054,4.697871zm-37.932,-8.080338c-9.4176,-4.760509 -13.0146,-15.847484 -8.0442,-24.867396s16.5462,-12.465017 25.9638,-7.704508s13.0146,15.847484 8.0442,24.867396c0,0 0,0 0,0c-4.9704,8.957273 -16.5462,12.402379 -25.9638,7.704508zm2.616,-4.697871c-6.6708,-3.382467 -9.2214,-11.27489 -5.6898,-17.663994s11.772,-8.831997 18.4428,-5.44953c6.6708,3.382467 9.2214,11.27489 5.6898,17.663994c0,0 0,0 0,0c-3.5316,6.389104 -11.772,8.831997 -18.4428,5.44953c0,0 0,0 0,0z" class="st1"/>
   <path stroke="null" id="svg_3" d="m106.4712,81.741844c2.1582,-2.943999 3.597,-6.263828 4.1856,-9.834209l-4.905,-1.190127c0.1962,-1.628595 0.1962,-3.194552 -0.0654,-4.823147l4.905,-1.252766c-0.5886,-3.570382 -2.0928,-6.89021 -4.3164,-9.771571l-4.3818,2.505531c-1.0464,-1.252766 -2.2236,-2.380254 -3.5316,-3.382467l2.5506,-4.196765c-3.0738,-2.067063 -6.54,-3.445105 -10.2678,-4.00885l-1.2426,4.697871c-1.635,-0.187915 -3.3354,-0.187915 -4.9704,0l-1.308,-4.697871c-3.7278,0.563744 -7.194,2.004425 -10.2024,4.134126l2.616,4.196765c-1.308,1.002212 -2.4852,2.129701 -3.5316,3.382467l-4.3818,-2.442893c-2.1582,2.943999 -3.597,6.263828 -4.1856,9.834209l4.905,1.127489c-0.1962,1.628595 -0.1962,3.194552 0.0654,4.823147l-4.905,1.190127c0.5886,3.570382 2.0928,6.89021 4.3164,9.771571l4.3818,-2.505531c1.0464,1.252766 2.2236,2.380254 3.5316,3.382467l-2.5506,4.196765c1.5042,1.064851 3.1392,1.941787 4.905,2.568169c1.7004,0.689021 3.5316,1.127489 5.3628,1.44068l1.2426,-4.697871c1.635,0.187915 3.3354,0.187915 4.9704,-0.062638l1.308,4.697871c3.7278,-0.563744 7.194,-2.004425 10.2024,-4.134126l-2.616,-4.134126c1.308,-1.002212 2.4852,-2.129701 3.5316,-3.382467l4.3818,2.568169zm-23.871,-2.693446c-6.0822,-2.380254 -9.0252,-9.019912 -6.54,-14.845271s9.4176,-8.644082 15.4998,-6.263828s9.0252,9.019912 6.54,14.845271c0,0 0,0 0,0c-2.4852,5.82536 -9.4176,8.644082 -15.4998,6.263828zm1.308,-3.069276c-4.3818,-1.691233 -6.4746,-6.451742 -4.7088,-10.585869s6.7362,-6.201189 11.0526,-4.509956c4.3818,1.691233 6.4746,6.451742 4.7088,10.585869c0,0 0,0 0,0.062638l0,0c-1.7658,4.134126 -6.7362,6.138551 -11.0526,4.447318z" class="st1"/>
   <path stroke="null" id="svg_4" d="m126.0258,38.333519c0.8502,-0.939574 1.635,-1.941787 2.2236,-3.069276c0.5886,-1.127489 1.0464,-2.317616 1.3734,-3.507743l-3.3354,-1.127489c0.2616,-1.064851 0.3924,-2.19234 0.327,-3.319829l3.5316,-0.501106c-0.1962,-2.505531 -0.981,-4.885786 -2.289,-7.078125l-3.2046,1.44068c-0.654,-0.939574 -1.3734,-1.81651 -2.2236,-2.630808l2.0928,-2.756084c-1.962,-1.628595 -4.3164,-2.818722 -6.867,-3.445105l-1.1772,3.194552c-1.1118,-0.250553 -2.289,-0.37583 -3.4662,-0.313191l-0.5232,-3.382467c-2.616,0.187915 -5.1666,0.939574 -7.4556,2.19234l1.5042,3.069276c-0.981,0.563744 -1.8966,1.315404 -2.6814,2.129701l-2.8776,-2.004425c-0.8502,0.939574 -1.5696,2.004425 -2.2236,3.069276c-0.5886,1.127489 -1.1118,2.317616 -1.4388,3.507743l3.4008,1.127489c-0.2616,1.064851 -0.3924,2.19234 -0.327,3.319829l-3.5316,0.501106c0.1962,2.505531 0.981,4.885786 2.289,7.078125l3.2046,-1.44068c0.5886,0.939574 1.3734,1.81651 2.2236,2.568169l-2.1582,2.756084c1.962,1.691233 4.3164,2.881361 6.867,3.507743l1.1772,-3.25719c1.1118,0.250553 2.289,0.37583 3.4662,0.313191l0.5232,3.382467c2.616,-0.187915 5.1012,-0.939574 7.3902,-2.19234l-1.5042,-3.069276c0.981,-0.563744 1.8966,-1.315404 2.6814,-2.129701l3.0084,2.067063zm-15.3036,-5.44953c-2.943,-1.503319 -4.0548,-4.948424 -2.4852,-7.767146c1.5696,-2.818722 5.1666,-3.883573 8.1096,-2.380254c2.943,1.503319 4.0548,4.948424 2.4852,7.767146l0,0c-1.5696,2.756084 -5.1666,3.820935 -8.1096,2.380254z" class="st1"/>
   <path stroke="null" id="svg_5" d="m58.6638,85.813332c0,-0.438468 -0.0654,-0.876936 -0.1308,-1.315404c-0.4578,-3.883573 -3.2046,-3.507743 -4.9704,-3.382467s-3.8586,0.187915 -4.7088,-1.628595c-0.3924,-0.751659 -0.327,-1.753872 -0.5886,-2.568169c-0.4578,-1.753872 -2.0928,-2.943999 -3.924,-3.006637c-1.7004,0 -3.27,0.939574 -4.6434,2.067063c-0.7194,0.563744 -1.5042,1.315404 -2.3544,1.064851c-0.5886,-0.250553 -1.0464,-0.626383 -1.308,-1.190127c-1.962,-3.069276 -1.962,-7.579231 -4.1202,-10.460592c-2.4198,-3.194552 -6.867,-3.25719 -9.8754,-0.939574s-4.7742,6.451742 -5.559,10.648507c-0.2616,1.378042 -0.4578,2.818722 -1.3734,3.758297c-1.2426,1.315404 -3.1392,0.876936 -4.8396,0.689021c-1.962,-0.313191 -3.9894,0.187915 -5.559,1.44068c-1.3734,1.252766 -2.0928,3.069276 -1.962,4.885786l55.917,0l0,-0.062638z" class="st2"/>
   <path stroke="null" id="svg_6" d="m159.0528,20.920078l55.0668,0c0,0 -2.2236,-2.442893 -4.7088,-3.319829c-3.1392,-1.064851 -4.4472,1.879148 -6.4092,-1.941787c-1.1118,-2.129701 -1.8966,-4.948424 -4.8396,-5.700083c-4.578,-1.127489 -5.7552,2.505531 -7.9134,1.503319c-1.8966,-0.876936 -1.8312,-4.322041 -3.7932,-7.140763s-6.4746,-4.509956 -9.6138,-3.069276c-5.7552,2.693446 -4.9704,6.952849 -6.867,8.330891s-6.0822,-3.507743 -10.8564,1.753872c-3.3354,3.63302 -0.0654,9.583656 -0.0654,9.583656z" class="st2"/>
   <path stroke="null" id="svg_7" d="m216.474001,2.817616c0,1.252766 -1.1118,2.317616 -2.4198,2.317616s-2.4198,-1.064851 -2.4198,-2.317616c0,0 0,0 0,0c0,-1.252766 1.0464,-2.317616 2.3544,-2.317616c0,0 0.0654,0 0.0654,0l0,0c1.308,0 2.4198,1.002212 2.4198,2.317616c0,0 0,0 0,0z" class="st3"/>
   <path stroke="null" id="svg_8" d="m260.357401,93.392564c0,1.252766 -1.1118,2.317616 -2.4198,2.317616c-1.308,0 -2.4198,-1.064851 -2.4198,-2.317616c0,-1.252766 1.1118,-2.317616 2.4198,-2.317616l0,0c1.308,0 2.4198,1.002212 2.4198,2.317616c0,0 0,0 0,0z" class="st3"/>
   <path stroke="null" id="svg_9" d="m60.1026,34.074116c0,1.252766 -1.1118,2.317616 -2.4198,2.317616c-1.308,0 -2.4198,-1.064851 -2.4198,-2.317616s1.1118,-2.317616 2.4198,-2.317616l0,0l0,0c1.308,0 2.4198,1.064851 2.4198,2.317616z" class="st3"/>
   <path stroke="null" id="svg_10" d="m88.6824,23.550886c0,0.876936 -0.7194,1.565957 -1.635,1.565957s-1.635,-0.689021 -1.635,-1.565957s0.7194,-1.565957 1.635,-1.565957l0,0c0.9156,0 1.635,0.689021 1.635,1.565957z" class="st3"/>
   <circle stroke="null" id="svg_11" r="1.554433" cy="82.806695" cx="236.878801" class="st3"/>
   <path stroke="null" id="svg_12" d="m303.063601,43.281943c0,0.876936 -0.7194,1.565957 -1.635,1.565957s-1.635,-0.689021 -1.635,-1.565957s0.7194,-1.565957 1.635,-1.565957c0.8502,0 1.635,0.626383 1.635,1.44068c0,0.062638 0,0.062638 0,0.125277z" class="st3"/>
   <path stroke="null" id="svg_13" d="m299.597401,158.411094c0,0.876936 -0.7194,1.565957 -1.635,1.565957s-1.635,-0.689021 -1.635,-1.565957s0.7194,-1.565957 1.635,-1.565957c0.9156,0 1.635,0.689021 1.635,1.565957c0,0 0,0 0,0z" class="st3"/>
   <path stroke="null" id="svg_14" d="m44.7336,173.506919c0,0.876936 -0.7194,1.565957 -1.635,1.565957s-1.635,-0.689021 -1.635,-1.565957s0.7194,-1.565957 1.635,-1.565957l0,0c0.9156,0 1.635,0.689021 1.635,1.565957c0,0 0,0 0,0z" class="st3"/>
   <path stroke="null" id="svg_15" d="m49.6386,101.660816c0,0.876936 -0.7194,1.565957 -1.635,1.565957s-1.635,-0.689021 -1.635,-1.565957s0.7194,-1.565957 1.635,-1.565957l0,0c0.9156,0 1.635,0.689021 1.635,1.565957c0,0 0,0 0,0z" class="st3"/>
   <path stroke="null" id="svg_16" d="m25.833,181.274065l2.2236,0c0.3924,0 0.7194,0.313191 0.7194,0.689021l0,2.129701c0,0.37583 -0.327,0.689021 -0.7194,0.689021l-2.2236,0c-0.3924,0 -0.7194,-0.313191 -0.7194,-0.689021l0,-2.129701c0,-0.37583 0.327,-0.689021 0.7194,-0.689021z" class="st1"/>
   <path stroke="null" id="svg_17" d="m22.0398,53.17879l2.2236,0c0.3924,0 0.7194,0.313191 0.7194,0.689021l0,2.129701c0,0.37583 -0.327,0.689021 -0.7194,0.689021l-2.2236,0c-0.3924,0 -0.7194,-0.313191 -0.7194,-0.689021l0,-2.129701c0,-0.37583 0.327,-0.689021 0.7194,-0.689021z" class="st1"/>
   <path stroke="null" id="svg_18" d="m302.344201,25.116843l4.1856,0c0.7194,0 1.3734,0.563744 1.3734,1.252766c0,0 0,0.062638 0,0.062638l0,4.071488c0,0.689021 -0.5886,1.315404 -1.308,1.315404c0,0 -0.0654,0 -0.0654,0l-4.1856,0c-0.7194,0 -1.3734,-0.563744 -1.3734,-1.252766c0,0 0,-0.062638 0,-0.062638l0,-4.071488c0,-0.751659 0.5886,-1.315404 1.3734,-1.315404z" class="st1"/>
   <path stroke="null" id="svg_19" d="m264.935401,129.096381l2.2236,0c0.3924,0 0.7194,0.313191 0.7194,0.689021l0,2.129701c0,0.37583 -0.327,0.689021 -0.7194,0.689021l-2.2236,0c-0.3924,0 -0.7194,-0.313191 -0.7194,-0.689021l0,-2.129701c0,-0.37583 0.327,-0.689021 0.7194,-0.689021z" class="st1"/>
   <path stroke="null" id="svg_20" d="m217.128001,107.674091c0,-0.313191 0.0654,-0.626383 0.0654,-0.939574c0.3924,-2.756084 2.616,-2.568169 4.0548,-2.442893s3.2046,0.125277 3.8586,-1.190127c0.1962,-0.626383 0.3924,-1.252766 0.4578,-1.879148c0.5232,-1.315404 1.8312,-2.19234 3.27,-2.19234c1.3734,0.062638 2.7468,0.626383 3.7932,1.503319c3.6624,2.630808 4.7088,-4.322041 6.4092,-6.326466c1.962,-2.317616 5.6244,-3.570382 8.1096,-1.941787s3.924,4.635232 4.578,7.64187c0.1962,1.002212 0.2616,2.19234 1.1118,2.693446c2.4198,1.565957 5.4936,-1.503319 8.4366,0.876936c1.0464,0.814298 1.2426,2.818722 1.1118,4.134126l-45.2568,0.062638z" class="st2"/>
   <path stroke="null" id="svg_21" d="m107.91,31.944415l114.777,0c3.3354,0 6.0822,2.568169 6.0822,5.82536c0,0 0,0 0,0l0,206.894226c0,3.194552 -2.6814,5.82536 -6.0822,5.82536c0,0 0,0 0,0l-114.777,0c-3.3354,0 -6.0822,-2.568169 -6.0822,-5.82536c0,0 0,0 0,0l0,-206.894226c0,-3.194552 2.7468,-5.82536 6.0822,-5.82536z" class="st4"/>
   <path stroke="null" id="svg_22" d="m222.687001,32.257606c3.2046,0 5.7552,2.442893 5.7552,5.512168l0,206.831588c0,3.069276 -2.5506,5.512168 -5.7552,5.512168l-114.777,0c-3.2046,0 -5.7552,-2.442893 -5.7552,-5.512168l0,-206.831588c0,-3.069276 2.5506,-5.512168 5.7552,-5.512168l114.777,0m0,-0.626383l-114.777,0c-3.5316,0 -6.4092,2.756084 -6.4092,6.138551l0,0l0,206.831588c0,3.382467 2.8776,6.138551 6.4092,6.138551l114.777,0c3.5316,0 6.4092,-2.756084 6.4092,-6.138551l0,-206.831588c0,-3.382467 -2.8776,-6.138551 -6.4092,-6.138551z" class="st5"/>
   <path stroke="null" id="svg_23" d="m171.1518,240.780428c0,3.069276 -2.616,5.574807 -5.8206,5.574807c-3.2046,0 -5.8206,-2.505531 -5.8206,-5.574807c0,-3.069276 2.616,-5.574807 5.8206,-5.574807c0,0 0,0 0,0l0,0c3.2046,0 5.8206,2.505531 5.8206,5.574807z" class="st6"/>
   <g stroke="null" id="svg_24">
    <defs stroke="null" transform="translate(0,0.5) scale(0.8740000128746033,0.8309329748153687) translate(0,-0.5) translate(0,0.6017332673072815) scale(0.7482837438583374,0.7538306713104248) translate(0,-0.6017332673072815) ">
     <path stroke="null" d="m165,50.2l175.5,0c5.4,0 9.8,4.4 9.8,9.8l0,330.3c0,5.4 -4.4,9.8 -9.8,9.8l-175.5,0c-5.4,0 -9.8,-4.4 -9.8,-9.8l0,-330.3c0,-5.4 4.4,-9.8 9.8,-9.8z" id="SVGID_1_"/>
    </defs>
    <clipPath stroke="null" transform="translate(0,0.5) scale(0.8740000128746033,0.8309329748153687) translate(0,-0.5) translate(0,0.6017332673072815) scale(0.7482837438583374,0.7538306713104248) translate(0,-0.6017332673072815) " id="SVGID_2_">
     <use stroke="null" id="svg_25" xlink:href="#SVGID_1_"/>
    </clipPath>
    <g stroke="null" id="svg_26" class="st7">
     <polygon stroke="null" id="svg_27" points="195.54598924394668,7.891316432430131 100.06199888756782,256.3773632640441 127.79159999719559,256.3773632640441 223.3410035244815,7.891316432430131 " class="st8"/>
     <polygon stroke="null" id="svg_28" points="231.90840480983024,7.891316432430131 136.35900128254434,256.3773632640441 148.13099712182157,256.3773632640441 243.68040064910747,7.891316432430131 " class="st9"/>
    </g>
   </g>
   <rect stroke="null" id="svg_29" height="178.393811" width="125.568" class="st10" y="52.051301" x="102.5472"/>
   <path stroke="null" id="svg_30" d="m158.1372,40.713773l17.7234,0c0.3924,0 0.7194,0.313191 0.7194,0.689021l0,0c0,0.37583 -0.327,0.689021 -0.7194,0.689021l-17.7234,0c-0.3924,0 -0.7194,-0.313191 -0.7194,-0.689021l0,0c0,-0.37583 0.327,-0.689021 0.7194,-0.689021z" class="st11"/>
   <circle stroke="null" id="svg_31" r="0.68395" cy="41.402794" cx="154.1478" class="st11"/>
   <rect stroke="null" id="svg_32" height="52.428237" width="54.2166" class="st12" y="121.14132" x="111.1146"/>
   <circle stroke="null" id="svg_33" r="10.694511" cy="139.807526" cx="138.1902" class="st13"/>
   <ellipse stroke="null" id="svg_34" ry="10.711145" rx="7.7172" cy="139.807526" cx="138.1902" class="st13"/>
   <ellipse stroke="null" id="svg_35" ry="10.711145" rx="3.0084" cy="139.807526" cx="138.1902" class="st13"/>
   <line stroke="null" id="svg_36" y2="139.807526" x2="149.439" y1="139.807526" x1="127.0068" class="st13"/>
   <path stroke="null" id="svg_37" d="m128.184,144.630674c2.1582,-0.689021 5.8206,-1.127489 10.0716,-1.127489s7.9134,0.438468 10.0716,1.127489" class="st13"/>
   <path stroke="null" id="svg_38" d="m131.3886,148.38897c2.1582,-0.751659 4.5126,-1.127489 6.8016,-1.127489c2.289,0 4.578,0.37583 6.7362,1.064851" class="st13"/>
   <path stroke="null" id="svg_39" d="m128.184,135.109656c2.1582,0.689021 5.8206,1.127489 10.0716,1.127489s7.9134,-0.438468 10.0716,-1.127489" class="st13"/>
   <path stroke="null" id="svg_40" d="m131.3886,131.351359c4.3818,1.44068 9.0906,1.44068 13.4724,0" class="st13"/>
   <rect stroke="null" id="svg_41" height="2.756084" width="44.9952" class="st14" y="161.417732" x="115.6926"/>
   <rect stroke="null" id="svg_42" height="2.756084" width="26.8794" class="st14" y="156.281393" x="133.8084"/>
   <rect stroke="null" id="svg_43" height="2.756084" width="15.042" class="st14" y="156.281393" x="115.6926"/>
   <rect stroke="null" id="svg_44" height="2.756084" width="44.9952" class="st14" y="166.55407" x="115.6926"/>
   <rect stroke="null" id="svg_45" height="52.428237" width="54.2166" class="st15" y="121.14132" x="165.2658"/>
   <rect stroke="null" id="svg_46" height="2.756084" width="44.9952" class="st1" y="130.474423" x="169.9092"/>
   <rect stroke="null" id="svg_47" height="2.756084" width="44.9952" class="st1" y="135.610762" x="169.9092"/>
   <rect stroke="null" id="svg_48" height="2.756084" width="13.9956" class="st1" y="140.809739" x="169.8438"/>
   <rect stroke="null" id="svg_49" height="2.756084" width="27.141" class="st1" y="140.809739" x="187.632601"/>
   <rect stroke="null" id="svg_50" height="2.756084" width="44.9952" class="st1" y="145.946077" x="169.9092"/>
   <rect stroke="null" id="svg_51" height="2.756084" width="44.9952" class="st1" y="151.082416" x="169.9092"/>
   <rect stroke="null" id="svg_52" height="2.756084" width="44.9952" class="st1" y="156.281393" x="169.9092"/>
   <rect stroke="null" id="svg_53" height="2.756084" width="13.0146" class="st1" y="161.417732" x="201.889801"/>
   <rect stroke="null" id="svg_54" height="2.756084" width="28.9068" class="st1" y="161.417732" x="169.9092"/>
   <rect stroke="null" id="svg_55" height="2.756084" width="44.9952" class="st1" y="166.55407" x="169.9092"/>
   <rect stroke="null" id="svg_56" height="2.756084" width="11.9028" class="st1" y="125.338085" x="202.936201"/>
   <rect stroke="null" id="svg_57" height="2.756084" width="30.0186" class="st1" y="125.338085" x="169.8438"/>
   <rect stroke="null" id="svg_58" height="52.428237" width="54.2166" class="st15" y="173.569557" x="111.1146"/>
   <rect stroke="null" id="svg_59" height="2.756084" width="44.9952" class="st1" y="213.908607" x="115.6926"/>
   <rect stroke="null" id="svg_60" height="2.756084" width="44.9952" class="st1" y="208.70963" x="115.6926"/>
   <rect stroke="null" id="svg_61" height="2.756084" width="11.5758" class="st1" y="203.573292" x="149.112"/>
   <rect stroke="null" id="svg_62" height="2.756084" width="29.6262" class="st1" y="203.573292" x="115.758"/>
   <rect stroke="null" id="svg_63" height="2.756084" width="44.9952" class="st1" y="198.436953" x="115.6926"/>
   <rect stroke="null" id="svg_64" height="2.756084" width="44.9952" class="st1" y="193.237976" x="115.6926"/>
   <rect stroke="null" id="svg_65" height="2.756084" width="44.9952" class="st1" y="188.101637" x="115.6926"/>
   <rect stroke="null" id="svg_66" height="2.756084" width="20.928" class="st1" y="182.965299" x="115.6926"/>
   <rect stroke="null" id="svg_67" height="2.756084" width="20.9934" class="st1" y="182.965299" x="139.6944"/>
   <rect stroke="null" id="svg_68" height="2.756084" width="44.9952" class="st1" y="177.766322" x="115.6926"/>
   <rect stroke="null" id="svg_69" height="2.756084" width="20.9934" class="st1" y="219.044946" x="115.6926"/>
   <rect stroke="null" id="svg_70" height="2.756084" width="20.9934" class="st1" y="219.044946" x="139.7598"/>
   <rect stroke="null" id="svg_71" height="52.428237" width="54.2166" class="st12" y="173.569557" x="165.2658"/>
   <polygon stroke="null" id="svg_72" points="203.39399408206737,209.6492017078781 181.6811943980847,209.3986533118441 179.1959962913843,194.49075918932795 205.48680450655593,194.42811633904785 " class="st16"/>
   <polygon stroke="null" id="svg_73" points="205.48680450655593,194.42811633904785 179.1959962913843,194.49075918932795 192.3413946900182,184.09279370813965 " class="st16"/>
   <rect stroke="null" id="svg_74" height="23.2" width="27.4" class="st10" transform="matrix(0.6540000017660432,-0.001093242120852704,0.0011414432070823211,0.6263827622190377,-0.3642780009836861,0.5083308907375131) " y="307.8" x="280.1"/>
   <polygon stroke="null" id="svg_75" points="179.1959962913843,194.49075918932795 179.26140946229134,210.83932384285436 192.3413946900182,203.1974712358424 " class="st14"/>
   <polygon stroke="null" id="svg_76" points="205.48680450655593,194.42811633904785 205.55218342375156,210.77670399766066 192.3413946900182,203.1974712358424 " class="st14"/>
   <polygon stroke="null" id="svg_77" points="205.55218342375156,210.77670399766066 179.26140946229134,210.83932384285436 192.3413946900182,200.44139286929567 " class="st14"/>
   <polyline stroke="null" id="svg_78" points="179.26140946229134,210.83932384285436 192.3413946900182,200.44139286929567 205.55218342375156,210.77670399766066 " class="st17"/>
   <line stroke="null" id="svg_79" y2="194.428103" x2="205.486801" y1="201.944696" x1="194.238001" class="st17"/>
   <line stroke="null" id="svg_80" y2="194.490741" x2="179.196" y1="201.944696" x1="190.510201" class="st17"/>
   <rect stroke="null" id="svg_81" height="2.756084" width="20.9934" class="st14" y="217.103159" x="181.8774"/>
   <rect stroke="null" id="svg_82" height="52.365599" width="108.4332" class="st12" y="64.140489" x="111.1146"/>
   <rect stroke="null" id="svg_83" height="3.63302" width="51.0774" class="st14" y="71.657082" x="163.7616"/>
   <rect stroke="null" id="svg_84" height="3.63302" width="51.0774" class="st14" y="78.422016" x="163.7616"/>
   <rect stroke="null" id="svg_85" height="3.63302" width="51.0774" class="st14" y="85.124311" x="163.7616"/>
   <rect stroke="null" id="svg_86" height="3.63302" width="51.0774" class="st14" y="91.889245" x="163.7616"/>
   <rect stroke="null" id="svg_87" height="3.63302" width="51.0774" class="st14" y="105.356474" x="163.7616"/>
   <rect stroke="null" id="svg_88" height="3.63302" width="30.5418" class="st14" y="98.591541" x="184.3626"/>
   <rect stroke="null" id="svg_89" height="3.63302" width="17.0694" class="st14" y="98.591541" x="163.7616"/>
   <rect stroke="null" id="svg_90" height="37.019221" width="38.6514" class="st14" y="71.844997" x="117.3276"/>
   <polygon stroke="null" id="svg_91" points="140.21760194860144,83.37044058284664 151.98959778787867,102.66303515884647 128.4455946914204,102.66303515884647 " class="st10"/>
   <polygon stroke="null" id="svg_92" points="128.31480260331773,89.69690260813695 130.80000071001814,94.33213995511142 126.28740534973622,102.66303515884647 121.3169977184316,102.66303515884647 " class="st10"/>
   <path stroke="null" id="svg_93" d="m122.298,82.24295c0,1.127489 0.981,2.067063 2.1582,2.067063c1.1772,0 2.1582,-0.939574 2.1582,-2.067063c0,-1.127489 -0.981,-2.067063 -2.1582,-2.067063l0,0c-1.1772,0 -2.1582,0.939574 -2.1582,2.067063z" class="st10"/>
   <path stroke="null" id="svg_94" d="m134.724,59.818448l61.149,0c0.981,0 1.7658,-0.751659 1.7658,-1.691233c0,0 0,0 0,0l0,0c0,-0.939574 -0.7848,-1.691233 -1.7658,-1.691233c0,0 0,0 0,0l-61.149,0c-0.981,0 -1.7658,0.751659 -1.7658,1.691233c0,0 0,0 0,0l0,0c0,0.939574 0.7848,1.691233 1.7658,1.691233c0,0 0,0 0,0z" class="st12"/>
   <line stroke="null" id="svg_95" y2="225.997794" x2="165.3312" y1="121.14132" x1="165.3312" class="st13"/>
   <line stroke="null" id="svg_96" y2="173.569557" x2="219.547801" y1="173.569557" x1="111.1146" class="st13"/>
   <path stroke="null" id="svg_97" d="m216.474001,273.602884l0.5886,18.54093l-0.654,5.82536l-23.0862,-0.125277c-0.5886,0 -1.0464,-0.438468 -1.0464,-1.002212c0,0 0,0 0,0l0,0c0,-0.438468 0.2616,-0.814298 0.654,-0.939574l10.3332,-4.509956l-1.5696,-19.292589" class="st18"/>
   <path stroke="null" id="svg_98" d="m191.295001,297.593344c0.2616,-0.751659 0.7194,-1.565957 1.1772,-1.753872l10.9218,-4.509956c6.0168,2.317616 13.7994,0.563744 13.7994,0.563744l0.5886,7.892423c0,0.250553 -0.1962,0.438468 -0.4578,0.438468c0,0 0,0 0,0l0,0l-25.833,-0.125277c-0.5886,0.062638 -0.1962,-2.442893 -0.1962,-2.505531z" class="st19"/>
   <path stroke="null" id="svg_99" d="m200.974201,291.830623c0.5886,0.751659 1.1118,1.628595 1.5696,2.505531" class="st20"/>
   <path stroke="null" id="svg_100" d="m199.600801,292.582282c0.5232,0.626383 0.9156,1.378042 1.2426,2.129701" class="st20"/>
   <path stroke="null" id="svg_101" d="m198.423601,293.208665c0.4578,0.626383 0.8502,1.252766 1.1772,1.941787" class="st20"/>
   <line stroke="null" id="svg_102" y2="298.407642" x2="191.164201" y1="298.595557" x1="217.651201" class="st20"/>
   <path stroke="null" id="svg_103" d="m217.389601,294.774622c0,0 -6.1476,0.062638 -6.6708,3.758297" class="st20"/>
   <path stroke="null" id="svg_104" d="m194.630401,294.962537c0,0 1.7658,2.380254 2.0928,3.507743" class="st20"/>
   <path stroke="null" id="svg_105" d="m213.792601,200.754569c0,0 2.8122,4.509956 3.597,7.892423c0.7194,3.570382 0.7194,7.328678 0,10.89906l-0.0654,64.830616l-17.1348,0c0,0 -3.7932,-74.727464 -2.0928,-84.373758" class="st21"/>
   <path stroke="null" id="svg_106" d="m202.805401,284.31403c0,0 -3.7932,-74.727464 -2.0928,-84.373758" class="st22"/>
   <path stroke="null" id="svg_107" d="m197.573401,266.336844l7.7826,16.974973l1.7004,5.637445l-21.4512,8.142976c-0.5232,0.187915 -1.1118,-0.062638 -1.3734,-0.563744l0,0c-0.1962,-0.37583 -0.0654,-0.876936 0.2616,-1.127489l7.7826,-7.892423l-9.0252,-17.350803" class="st18"/>
   <path stroke="null" id="svg_108" d="m183.5124,297.593344c-0.1308,-0.689021 0,-1.378042 0.3924,-2.004425l8.3712,-8.080338c6.4746,0 13.0146,-4.384679 13.0146,-4.384679l3.597,7.078125c0.1308,0.250553 0,0.501106 -0.1962,0.626383c0,0 0,0 -0.0654,0l0,0l-24.0018,9.08255c-0.4578,0.125277 -1.1118,-2.317616 -1.1118,-2.317616z" class="st19"/>
   <path stroke="null" id="svg_109" d="m190.248601,288.761347c0.8502,0.501106 1.7004,1.064851 2.4198,1.753872" class="st20"/>
   <path stroke="null" id="svg_110" d="m189.267601,289.951474c0.7194,0.438468 1.3734,0.939574 1.962,1.503319" class="st20"/>
   <path stroke="null" id="svg_111" d="m188.417401,290.891049c0.654,0.438468 1.2426,0.876936 1.8312,1.378042" class="st20"/>
   <line stroke="null" id="svg_112" y2="298.407642" x2="183.7086" y1="289.074539" x1="208.299001" class="st20"/>
   <path stroke="null" id="svg_113" d="m206.664001,285.629433c0,0 -5.6898,2.19234 -4.7088,5.82536" class="st20"/>
   <path stroke="null" id="svg_114" d="m185.605201,293.897686c0,0 2.5506,1.565957 3.3354,2.505531" class="st20"/>
   <path stroke="null" id="svg_115" d="m184.2318,211.277799c-8.829,20.733269 -8.9598,22.925609 -10.3986,33.07301c-1.5042,10.397954 14.7804,40.965433 14.7804,40.965433l15.6306,-6.577019c0,0 -10.3986,-27.936671 -9.6792,-32.759818c1.2426,-8.831997 11.9028,-23.927822 11.9028,-23.927822s5.0358,-3.820935 6.1476,-8.957273s-1.308,-10.460592 -1.308,-10.460592" class="st21"/>
   <path stroke="null" id="svg_116" d="m200.320201,213.783331l6.9978,-2.129701" class="st22"/>
   <line stroke="null" id="svg_117" y2="209.08546" x2="217.520401" y1="209.711843" x1="215.296801" class="st22"/>
   <path stroke="null" id="svg_118" d="m189.463801,210.651417c0,0 -10.8564,22.675056 -12.3606,33.07301s14.388,40.088497 14.388,40.088497" class="st22"/>
   <path stroke="null" id="svg_119" d="m198.162001,235.95728c2.4198,-4.823147 5.1666,-9.521018 8.2404,-13.968336c0,0 5.0358,-3.820935 6.1476,-8.957273" class="st22"/>
   <path stroke="null" id="svg_120" d="m182.793,160.03969l4.5126,7.453955c0,0 -2.6814,5.574807 -9.9408,2.943999l-1.8312,-3.946211l7.2594,-6.451742z" class="st18"/>
   <path stroke="null" id="svg_121" d="m170.8248,154.965989c0,0 -2.2236,9.959486 1.635,11.713358c1.962,0.939574 7.5864,0.37583 8.8944,-1.691233c0.981,-1.503319 0.5886,-8.644082 -0.5886,-9.521018c-4.578,-3.319829 -9.9408,-0.501106 -9.9408,-0.501106z" class="st18"/>
   <path stroke="null" id="svg_122" d="m180.5694,152.02199c-1.7004,-2.818722 -5.1012,-2.254978 -10.6602,0.751659c-0.7194,0.37583 -2.3544,0.563744 -2.3544,1.378042c0,1.064851 0.7848,2.818722 2.0928,3.194552c0.7194,0.187915 1.5042,0.187915 2.2236,-0.062638c1.1772,-0.250553 2.6814,0.187915 2.6814,1.503319c0,0.313191 -0.1308,0.939574 0.1962,1.064851l0.7848,0c0.5232,0 0.7848,0.626383 0.7194,1.127489c-0.0654,0.501106 0.2616,0.876936 0.1962,1.315404c-0.1308,1.190127 1.3734,2.442893 2.616,2.568169c1.1118,0.062638 4.251,-0.438468 5.7552,-2.380254c1.308,-1.691233 1.1772,-4.572594 -1.0464,-8.831997c-0.7848,-1.565957 -2.616,-2.004425 -3.2046,-1.628595z" class="st23"/>
   <path stroke="null" id="svg_123" d="m174.4218,160.352881c0.327,-1.565957 1.2426,-1.753872 1.962,-1.315404c0.981,0.563744 0.7848,2.818722 0.3924,3.382467c-0.7194,1.127489 -1.635,1.44068 -2.0928,0.626383" class="st18"/>
   <path stroke="null" id="svg_124" d="m175.7952,167.055176c0.7194,-0.689021 1.1118,-1.628595 0.981,-2.630808" class="st24"/>
   <path stroke="null" id="svg_125" d="m171.2172,159.726498c-0.1308,0.313191 -0.1962,0.876936 0.0654,1.064851c0.0654,0.062638 0.1962,0.062638 0.2616,0c0.5886,-0.37583 0,-1.81651 -0.327,-1.064851z" class="st25"/>
   <path stroke="null" id="svg_126" d="m170.694,158.599009c0.5886,-0.062638 1.1772,0.062638 1.7004,0.313191" class="st26"/>
   <path stroke="null" id="svg_127" d="m172.656,163.359518l-1.7004,-0.062638c0,0 -0.0654,1.941787 0.7194,2.004425s0.981,-1.941787 0.981,-1.941787z" class="st10"/>
   <path stroke="null" id="svg_128" d="m186.193801,165.739773c0,0 3.924,-0.939574 9.4176,0.563744c4.6434,1.315404 10.5948,4.635232 15.042,9.207827c7.7172,7.892423 4.1856,27.435565 4.1856,27.435565l-10.0716,-0.37583c0,0 1.5696,-12.590294 -3.6624,-17.601356s-12.6876,-6.201189 -12.6876,-6.201189" class="st27"/>
   <path stroke="null" id="svg_129" d="m143.553,193.237976c-3.1392,0.814298 -12.6876,1.81651 -12.8184,2.442893s3.2046,0.313191 3.0084,0.814298s-5.3628,1.315404 -5.3628,1.941787c0,0.876936 5.232,-0.187915 5.232,-0.187915s-2.1582,0.37583 -1.8966,1.127489c0.1962,0.563744 1.0464,0.689021 2.8122,0.563744c-0.9156,0.187915 -1.308,0.626383 -1.1118,1.190127s1.1118,0.501106 2.0928,0.37583c-0.654,0.125277 -1.1772,0.563744 -0.7194,0.939574c0.5886,0.501106 4.4472,0.250553 11.3796,-0.876936" class="st18"/>
   <path stroke="null" id="svg_130" d="m176.253,168.245304c1.8312,0.626383 3.8586,0.626383 5.6898,0c1.5696,-0.501106 3.0738,-1.378042 4.251,-2.505531c0,0 6.7362,-0.438468 14.9766,7.453955s14.7804,30.504841 14.7804,30.504841l-34.0734,10.961698c0,0 -5.8206,-19.731057 -8.1096,-28.750969s2.4852,-17.663994 2.4852,-17.663994z" class="st27"/>
   <path stroke="null" id="svg_131" d="m200.778001,171.126664c6.8016,7.579231 15.2382,32.571904 15.2382,32.571904" class="st28"/>
   <path stroke="null" id="svg_132" d="m176.253,168.245304c-4.5126,1.628595 -8.3712,5.82536 -10.7256,10.084762c-3.8586,7.015487 -6.213,12.151826 -6.213,12.151826l-19.5546,2.818722l0.981,10.022124c0,0 13.2762,-0.37583 23.8056,-1.879148c7.521,-1.064851 13.3416,-15.97276 13.3416,-15.97276" class="st27"/>
   <path stroke="null" id="svg_133" d="m174.945,168.809048c0,0 2.1582,2.756084 7.3248,0.876936s5.3628,-4.134126 5.3628,-4.134126" class="st28"/>
   <line stroke="null" id="svg_134" y2="186.222489" x2="177.561" y1="190.54453" x1="175.4028" class="st28"/>
   <line stroke="null" id="svg_135" y2="203.134824" x2="143.6184" y1="192.862146" x1="142.899" class="st28"/>
   <line stroke="null" id="svg_136" y2="201.756782" x2="215.296801" y1="212.530565" x1="181.2888" class="st28"/>
   <path stroke="null" id="svg_137" d="m74.229,217.291074l-0.5886,17.851909l0.5886,5.637445l22.236,-0.125277c0.5886,0 1.0464,-0.438468 1.0464,-1.002212c0,0 0,0 0,0l0,0c0,-0.37583 -0.2616,-0.751659 -0.654,-0.876936l-9.9408,-4.384679l1.5042,-18.603568" class="st18"/>
   <path stroke="null" id="svg_138" d="m98.5578,240.467236c-0.2616,-0.689021 -0.654,-1.503319 -1.1118,-1.691233l-10.5294,-4.322041c-5.8206,2.254978 -13.2762,0.563744 -13.2762,0.563744l-0.5886,7.579231c0,0.250553 0.1962,0.438468 0.4578,0.438468c0,0 0,0 0,0l24.852,-0.125277c0.5232,0 0.1962,-2.442893 0.1962,-2.442893z" class="st19"/>
   <path stroke="null" id="svg_139" d="m89.2056,234.89243c-0.5886,0.751659 -1.1118,1.565957 -1.5042,2.380254" class="st29"/>
   <path stroke="null" id="svg_140" d="m90.5136,235.644089c-0.4578,0.626383 -0.9156,1.315404 -1.2426,2.004425" class="st29"/>
   <path stroke="null" id="svg_141" d="m91.6254,236.207833c-0.4578,0.626383 -0.7848,1.252766 -1.1772,1.879148" class="st29"/>
   <line stroke="null" id="svg_142" y2="241.218896" x2="98.6232" y1="241.344172" x1="73.1826" class="st29"/>
   <path stroke="null" id="svg_143" d="m73.3788,237.711152c0,0 5.886,0.062638 6.4092,3.570382" class="st29"/>
   <path stroke="null" id="svg_144" d="m95.2878,237.899067c0,0 -1.7004,2.317616 -2.0274,3.382467" class="st29"/>
   <path stroke="null" id="svg_145" d="m76.3218,153.400032c0,0 11.8374,21.234376 15.5652,34.576328s-1.2426,43.408325 -1.2426,43.408325l-18.3774,0c0,0 3.6624,-32.634542 -0.654,-43.408325s-19.947,-39.211561 -19.947,-39.211561" class="st27"/>
   <path stroke="null" id="svg_146" d="m74.7522,231.322048c0,0 3.0084,-33.949946 1.1772,-42.343475s-14.5842,-27.874033 -14.5842,-27.874033" class="st28"/>
   <path stroke="null" id="svg_147" d="m53.1702,207.394226l-10.8564,14.344165l-2.943,4.885786l18.0504,12.465017c0.4578,0.313191 1.1118,0.250553 1.4388,-0.187915l0,0c0.2616,-0.313191 0.2616,-0.751659 0.0654,-1.127489l-5.3628,-9.145188l12.0336,-15.033186" class="st18"/>
   <path stroke="null" id="svg_148" d="m59.187,240.028768c0.2616,-0.689021 0.3924,-1.565957 0.1308,-1.941787l-5.8206,-9.45838c-6.0822,-1.44068 -11.118,-7.078125 -11.118,-7.078125l-5.1012,5.82536c-0.1308,0.187915 -0.0654,0.501106 0.1308,0.626383l20.1432,13.843059c0.3924,0.313191 1.635,-1.81651 1.635,-1.81651z" class="st19"/>
   <path stroke="null" id="svg_149" d="m55.0668,230.194559c-0.9156,0.250553 -1.8312,0.626383 -2.6814,1.064851" class="st29"/>
   <path stroke="null" id="svg_150" d="m55.6554,231.572601c-0.7848,0.250553 -1.5042,0.563744 -2.2236,0.939574" class="st29"/>
   <path stroke="null" id="svg_151" d="m56.244,232.637452c-0.7194,0.250553 -1.4388,0.563744 -2.0928,0.876936" class="st29"/>
   <line stroke="null" id="svg_152" y2="240.717789" x2="58.7946" y1="226.436262" x1="38.0628" class="st29"/>
   <path stroke="null" id="svg_153" d="m40.4826,223.61754c0,0 4.7742,3.382467 3.0084,6.514381" class="st29"/>
   <path stroke="null" id="svg_154" d="m58.1406,236.082557c-1.308,0.37583 -2.5506,0.939574 -3.7278,1.565957" class="st29"/>
   <path stroke="null" id="svg_155" d="m46.8264,148.7648c-3.5316,9.521018 0,16.974973 0,16.974973s11.9682,20.921184 11.9682,25.117949c0,3.883573 -15.3036,26.120161 -15.3036,26.120161l13.9956,10.773784c0,0 22.0398,-22.675056 21.582,-38.397263c-0.5232,-19.417866 -11.5758,-40.652241 -11.5758,-40.652241" class="st27"/>
   <path stroke="null" id="svg_156" d="m49.4424,149.391183c-3.5316,9.521018 0.7194,15.910122 0.7194,15.910122s11.2488,21.986035 11.2488,26.245438c0,3.883573 -15.8922,26.997097 -15.8922,26.997097" class="st28"/>
   <path stroke="null" id="svg_157" d="m73.5096,206.642567c3.27,-5.762721 5.6898,-11.901272 5.559,-17.225526c-0.5232,-19.417866 -11.5758,-40.652241 -11.5758,-40.652241" class="st28"/>
   <path stroke="null" id="svg_158" d="m48.2652,156.907776c0,0 6.2784,0.37583 8.6982,-4.447318" class="st28"/>
   <path stroke="null" id="svg_159" d="m72.267,159.601222c0,0 1.7004,0.187915 1.5696,-0.626383s-1.5696,-5.198977 -1.5696,-5.198977" class="st28"/>
   <path stroke="null" id="svg_160" d="m80.2458,98.340987c0.654,3.820935 0.1308,7.203402 -3.27,7.704508s-8.175,-0.438468 -9.0906,-5.887998c-0.654,-3.820935 1.635,-7.328678 5.0358,-7.892423s6.6708,2.254978 7.3248,6.075913z" class="st30"/>
   <path stroke="null" id="svg_161" d="m77.4336,98.403626c-0.1308,0.37583 0,0.751659 0.327,1.002212c0.0654,0.062638 0.1962,0 0.2616,-0.062638c0.4578,-0.438468 -0.4578,-1.691233 -0.5886,-0.939574z" class="st25"/>
   <path stroke="null" id="svg_162" d="m76.3218,97.52669c0.7194,-0.37583 1.5696,-0.438468 2.3544,-0.125277" class="st31"/>
   <path stroke="null" id="svg_163" d="m79.6572,102.349837l-2.2236,0c0,0 -0.1308,1.753872 0.981,1.941787c0.9156,0.187915 1.2426,-1.941787 1.2426,-1.941787z" class="st10"/>
   <path stroke="null" id="svg_164" d="m75.1446,110.304898c-1.7004,0.250553 -3.4662,0.187915 -5.1666,-0.187915c-2.943,-0.751659 -3.7932,-1.941787 -3.7932,-1.941787l4.1202,-8.205614l6.3438,2.756084l-1.5042,7.579231z" class="st30"/>
   <path stroke="null" id="svg_165" d="m75.9294,106.170772c0,0 -2.7468,0.062638 -4.1856,-1.190127" class="st32"/>
   <path stroke="null" id="svg_166" d="m79.461,98.215711c0,0 1.7004,2.380254 1.635,2.818722s-1.308,0.626383 -1.308,0.626383" class="st30"/>
   <path stroke="null" id="svg_167" d="m70.305,103.665241c-0.3924,0.125277 -0.7848,0.250553 -1.1772,0.250553c-0.7848,0.125277 -1.635,-0.062638 -2.3544,-0.37583c-1.3734,-0.689021 -2.0928,-2.129701 -1.8312,-3.570382c0.0654,-0.250553 0.1308,-0.438468 0.1308,-0.689021c0.1962,-1.064851 -0.4578,-2.067063 -0.654,-3.131914c-0.1962,-1.064851 0.0654,-2.129701 0.7194,-3.006637c0.654,-0.876936 1.5042,-1.503319 2.5506,-1.879148c0.8502,-0.313191 1.7004,-0.37583 2.4198,-1.002212c0.327,-0.313191 0.654,-0.563744 0.981,-0.751659c1.7004,-1.002212 4.1202,-0.438468 5.6244,0.626383c0.1962,0.125277 0.3924,0.250553 0.5886,0.313191c0.3924,0.062638 0.7848,-0.062638 1.1118,0c1.4388,0.250553 2.0928,2.317616 2.0928,3.570382c0,0.37583 -0.1308,0.689021 -0.327,1.002212c-0.3924,0.37583 -0.9156,0.626383 -1.4388,0.689021c-0.7848,0 -1.5042,0.062638 -2.289,0.125277c-0.5232,0.187915 -0.981,0.438468 -1.4388,0.689021c-0.7848,0.313191 -1.7004,0.250553 -2.4852,-0.062638c0.1962,0.501106 0.2616,1.064851 0.1962,1.565957c-0.1308,1.002212 -1.0464,1.503319 -1.962,1.691233c0.3924,1.064851 0.4578,2.19234 0.1962,3.25719c-0.1308,0.313191 -0.327,0.563744 -0.654,0.689021z" class="st33"/>
   <path stroke="null" id="svg_168" d="m71.5476,98.96737c-0.3924,-0.501106 -1.1772,-0.626383 -1.7658,-0.187915c0,0 0,0 0,0l-0.0654,0c-1.2426,1.002212 0.3924,3.131914 1.3734,3.445105c0.5232,0.187915 1.0464,-0.125277 1.2426,-0.563744c0,-0.062638 0,-0.062638 0,-0.125277" class="st34"/>
   <path stroke="null" id="svg_169" d="m105.0978,139.744888c1.8966,0.125277 10.5948,1.002212 10.5294,1.503319s-3.0084,0.626383 -2.8776,0.876936c0.1308,0.37583 2.3544,0.689021 3.6624,0.751659c1.1118,0.062638 2.8776,0.313191 2.943,0.814298c0.0654,0.876936 -6.0822,0.501106 -6.0822,0.501106c0,0.250553 6.6708,-0.751659 6.8016,0c0.1962,1.064851 -6.9324,1.628595 -7.1286,1.879148c0,0 6.0168,-2.129701 6.213,-1.315404s-5.1666,2.818722 -6.9324,2.818722c1.3734,-0.250553 5.4936,-2.505531 5.6244,-1.941787s-3.5316,2.067063 -4.1202,2.19234c-3.27,0.438468 -6.54,0.563744 -9.81,0.313191" class="st18"/>
   <path stroke="null" id="svg_170" d="m75.21,109.741154c0,0 -1.8312,0.876936 -4.7088,-0.313191c-3.0738,-1.252766 -3.7278,-2.756084 -3.7278,-2.756084s-16.6116,1.378042 -22.6938,45.600665l34.0734,4.00885c0,0 2.7468,-15.784846 2.289,-28.563054c-0.2616,-8.142976 -3.5316,-14.469442 -5.232,-17.977185" class="st21"/>
   <path stroke="null" id="svg_171" d="m65.2038,127.467786c0,0 5.232,16.787058 19.4238,20.420078c7.3248,1.941787 14.8458,3.006637 22.4322,3.194552l1.3734,-11.337528c0,0 -15.4344,-2.630808 -21.7782,-6.639657c-4.8396,-3.069276 -5.7552,-12.840847 -6.9978,-16.285952c-1.7004,-4.823147 -4.4472,-7.015487 -4.4472,-7.015487" class="st21"/>
   <path stroke="null" id="svg_172" d="m65.4654,107.047708c0,0 1.0464,3.069276 5.886,4.071488c3.5316,0.751659 4.905,-0.250553 4.905,-0.250553" class="st22"/>
   <path stroke="null" id="svg_173" d="m79.0686,146.008716c0,0 -12.8838,-5.700083 -13.6032,-21.860758" class="st22"/>
   <line stroke="null" id="svg_174" y2="150.957139" x2="103.8552" y1="139.243782" x1="105.5556" class="st22"/>
   <path stroke="null" id="svg_175" d="m259.965001,299.723046c-4.7742,-36.643392 6.8016,-50.047983 19.4892,-50.674365c6.0168,-0.313191 23.544,2.004425 2.3544,50.674365" class="st10"/>
   <path stroke="null" id="svg_176" d="m260.095801,299.723046c-0.327,-3.883573 -0.7848,-7.829785 -0.9156,-11.713358c-0.1308,-3.319829 -0.0654,-6.639657 0.1308,-9.959486c0.2616,-5.136339 1.3734,-10.272677 3.2046,-15.095825c1.308,-3.445105 3.4008,-6.577019 6.1476,-9.145188c2.2236,-2.004425 4.9704,-3.445105 7.9788,-4.071488c1.7004,-0.37583 3.4662,-0.501106 5.232,-0.313191c1.5042,0.125277 2.8776,0.563744 4.1856,1.252766c1.635,0.876936 2.943,2.19234 3.7932,3.820935c1.2426,2.380254 1.8312,5.011062 1.8966,7.64187c0.0654,4.322041 -0.3924,8.581444 -1.4388,12.778208c-1.5696,6.514381 -3.6624,12.903485 -6.2784,19.104674c-0.7848,1.879148 -1.5696,3.820935 -2.3544,5.700083c-0.0654,0.187915 0.2616,0.313191 0.327,0.125277c1.7658,-3.695658 3.27,-7.579231 4.6434,-11.400166c1.1772,-3.194552 2.2236,-6.389104 3.1392,-9.646295c1.3734,-4.635232 2.2236,-9.45838 2.4852,-14.281527c0.1962,-3.006637 -0.2616,-6.013275 -1.308,-8.894635c-0.7194,-1.879148 -1.962,-3.507743 -3.597,-4.760509c-1.308,-0.939574 -2.8122,-1.565957 -4.3818,-1.81651c-1.4388,-0.250553 -2.8776,-0.313191 -4.3164,-0.125277c-3.0084,0.313191 -5.9514,1.315404 -8.3712,3.069276c-2.8776,2.129701 -5.232,4.823147 -6.8016,7.955061c-2.1582,4.322041 -3.5316,8.957273 -4.0548,13.717782c-0.8502,6.702296 -0.9156,13.529868 -0.1962,20.232163c0.1962,2.004425 0.3924,3.946211 0.7194,5.887998c-0.1308,0.062638 0.1308,0.062638 0.1308,-0.062638l0,0z" class="st35"/>
   <line stroke="null" id="svg_177" y2="299.660407" x2="267.878401" y1="249.111318" x1="279.061801" class="st3"/>
   <path stroke="null" id="svg_178" d="m294.496201,300.036237c7.6518,-10.89906 23.0208,-35.766456 11.445,-44.535814c-6.3438,-4.823147 -17.985,1.127489 -24.198,11.775996c-5.9514,10.335316 -10.5948,21.297014 -13.8648,32.634542" class="st10"/>
   <path stroke="null" id="svg_179" d="m294.692401,300.161513c1.8312,-2.568169 3.5316,-5.136339 5.1666,-7.829785c1.962,-3.131914 3.7932,-6.389104 5.3628,-9.708933c1.635,-3.25719 2.943,-6.639657 3.9894,-10.147401c0.9156,-3.006637 1.308,-6.201189 1.0464,-9.333103c-0.1962,-2.693446 -1.4388,-5.198977 -3.4008,-7.140763c-1.0464,-1.002212 -2.3544,-1.691233 -3.7278,-2.129701c-1.5042,-0.37583 -3.0084,-0.438468 -4.5126,-0.187915c-3.597,0.563744 -6.9324,2.442893 -9.7446,4.697871c-1.635,1.315404 -3.1392,2.818722 -4.5126,4.447318c-1.4388,1.81651 -2.6814,3.695658 -3.7932,5.700083c-2.4198,4.322041 -4.578,8.70672 -6.54,13.216676c-2.0274,4.697871 -3.7932,9.521018 -5.3628,14.344165c-0.3924,1.252766 -0.7848,2.442893 -1.1772,3.695658c0,0.125277 0.0654,0.313191 0.2616,0.313191c0.1308,0 0.2616,-0.062638 0.327,-0.187915c1.4388,-4.823147 3.0738,-9.646295 4.9704,-14.344165c1.8312,-4.509956 3.8586,-8.957273 6.1476,-13.279315c2.0928,-4.00885 4.3164,-7.955061 7.521,-11.27489c2.616,-2.756084 5.8206,-4.948424 9.483,-6.263828c2.8122,-0.939574 6.0822,-1.190127 8.7636,0.37583c2.289,1.44068 3.924,3.758297 4.4472,6.326466c0.5232,2.943999 0.4578,6.013275 -0.327,8.894635c-0.7848,3.445105 -1.962,6.764934 -3.4662,9.959486c-1.5042,3.319829 -3.2046,6.577019 -5.1012,9.708933c-1.635,2.818722 -3.4008,5.512168 -5.232,8.205614c-0.3924,0.563744 -0.7194,1.064851 -1.1118,1.628595c0,0.250553 0.327,0.501106 0.5232,0.313191l0,0z" class="st35"/>
   <line stroke="null" id="svg_180" y2="300.599981" x2="282.920401" y1="254.49821" x1="303.325201" class="st3"/>
   <path stroke="null" id="svg_181" d="m287.563801,299.660407c10.0716,-13.717782 18.7698,-17.350803 27.0102,-16.285952c6.4092,0.876936 7.3902,7.203402 -6.0822,16.223314" class="st10"/>
   <path stroke="null" id="svg_182" d="m287.694601,299.723046c0.981,-1.127489 1.8966,-2.380254 2.8122,-3.507743c0.8502,-1.064851 1.7658,-2.067063 2.7468,-3.069276c1.635,-1.691233 3.3354,-3.319829 5.232,-4.760509c2.8776,-2.254978 6.2784,-3.820935 9.8754,-4.635232c1.5042,-0.313191 3.0738,-0.37583 4.6434,-0.313191c1.308,0 2.5506,0.250553 3.7278,0.751659c0.8502,0.37583 1.5696,1.064851 1.8966,1.941787c0.327,1.002212 0.2616,2.129701 -0.1962,3.069276c-0.654,1.503319 -1.5696,2.881361 -2.7468,4.071488c-1.7004,1.81651 -3.597,3.445105 -5.6244,4.885786l-1.7658,1.315404c-0.1962,0.125277 0.0654,0.37583 0.2616,0.313191c2.4198,-1.44068 4.6434,-3.194552 6.6054,-5.136339c1.3734,-1.252766 2.5506,-2.756084 3.4008,-4.384679c0.981,-1.941787 1.2426,-4.384679 -0.7194,-5.887998c-0.9156,-0.689021 -2.0274,-1.064851 -3.2046,-1.190127c-1.5696,-0.250553 -3.2046,-0.250553 -4.7742,-0.062638c-3.6624,0.438468 -7.1286,1.81651 -10.137,3.883573c-4.251,2.881361 -7.7826,6.702296 -10.8564,10.711145c-0.5232,0.626383 -0.981,1.252766 -1.3734,1.941787c-0.1308,0.062638 0.0654,0.187915 0.1962,0.062638l0,0z" class="st35"/>
   <line stroke="null" id="svg_183" y2="299.535131" x2="297.962401" y1="283.374455" x1="313.331401" class="st3"/>
   <line stroke="null" id="svg_184" y2="300.098875" x2="327.000001" y1="300.098875" x1="0" class="st36"/>
   <path stroke="null" id="svg_185" d="m34.1388,268.090716c-2.289,-7.391317 -8.175,-23.551992 1.5042,-44.222623c10.9872,15.033186 9.483,31.569691 6.2784,47.166622" class="st37"/>
   <path stroke="null" id="svg_186" d="m35.643,223.868093c0,0 -3.7278,19.543142 1.308,45.725942" class="st38"/>
   <path stroke="null" id="svg_187" d="m37.6704,269.781949c0,0 2.0274,-34.952158 -2.0274,-45.913856" class="st38"/>
   <path stroke="null" id="svg_188" d="m38.9784,270.032503c0,0 5.886,-32.258712 -3.3354,-46.16441" class="st38"/>
   <path stroke="null" id="svg_189" d="m26.5524,272.976502c-4.578,-3.946211 -15.2382,-12.151826 -16.6116,-30.003734c13.2762,4.635232 19.3584,16.912335 23.3478,28.625692" class="st37"/>
   <path stroke="null" id="svg_190" d="m9.9408,242.972767c0,0 4.6434,15.033186 18.7044,30.254287" class="st38"/>
   <path stroke="null" id="svg_191" d="m30.8688,272.162204c0,0 -15.4998,-21.547567 -20.928,-29.126798" class="st38"/>
   <path stroke="null" id="svg_192" d="m31.9152,271.723736c0,0 -10.7256,-21.672844 -21.9744,-28.750969" class="st38"/>
   <path stroke="null" id="svg_193" d="m30.8688,268.591822c-3.6624,-5.136339 -14.2572,-20.607993 -11.0526,-37.08186c12.2952,8.831997 17.2002,26.370714 18.2466,38.209348" class="st37"/>
   <path stroke="null" id="svg_194" d="m19.8816,231.509963c0,0 4.578,24.679481 12.6876,37.207136" class="st38"/>
   <path stroke="null" id="svg_195" d="m34.2042,269.343482c0,0 -10.9872,-32.947733 -14.388,-37.833519" class="st38"/>
   <path stroke="null" id="svg_196" d="m36.4278,269.594035c0,0 -6.6054,-29.753181 -16.5462,-38.084072" class="st38"/>
   <path stroke="null" id="svg_197" d="m48.4614,268.278631c3.1392,-6.639657 10.7256,-21.046461 5.4936,-42.406113c-11.445,11.400166 -13.0146,28.437777 -12.6876,43.909432" class="st37"/>
   <path stroke="null" id="svg_198" d="m53.955,225.80988l-9.483,43.220411" class="st38"/>
   <path stroke="null" id="svg_199" d="m53.955,225.80988c0,0 1.2426,19.355227 -7.194,43.408325" class="st38"/>
   <path stroke="null" id="svg_200" d="m42.6408,269.280843c0,0 2.3544,-29.06416 11.3142,-43.470964" class="st38"/>
   <path stroke="null" id="svg_201" d="m48.7884,275.23148c4.0548,-4.447318 14.388,-15.534293 15.2382,-30.442202c-11.9682,6.702296 -17.004,18.979398 -20.1432,30.442202" class="st37"/>
   <path stroke="null" id="svg_202" d="m64.0266,244.851916c0,0 -7.4556,18.854121 -16.6116,29.753181" class="st38"/>
   <path stroke="null" id="svg_203" d="m45.1914,274.605097c0,0 11.1834,-22.612418 18.8352,-29.753181" class="st38"/>
   <path stroke="null" id="svg_204" d="m57.8136,267.025865l0,7.015487c0,15.596931 -7.848,25.619055 -7.848,25.619055l-24.3942,0c0,0 -7.9134,-10.022124 -7.9134,-25.619055l0,-7.015487l40.1556,0z" class="st19"/>
  </g>
 </g>
</svg>