<svg width="440" height="400" xmlns="http://www.w3.org/2000/svg" xmlns:xlink="http://www.w3.org/1999/xlink">
 <style type="text/css">.st0{fill:none;stroke:#ADBBF9;stroke-linejoin:round;stroke-dasharray:3.5,3.5;}
	.st1{fill:#E4E9F9;}
	.st2{fill:#FFFFFF;stroke:#ADBBF9;stroke-linejoin:round;}
	.st3{fill:none;stroke:#ADBBF9;stroke-linejoin:round;}
	.st4{fill:#00206A;}
	.st5{fill:#0948B3;}
	.st6{fill:none;stroke:#EBEBEB;stroke-miterlimit:10;}
	.st7{clip-path:url(#SVGID_2_);}
	.st8{fill:url(#SVGID_3_);}
	.st9{fill:url(#SVGID_4_);}
	.st10{fill:#FFFFFF;}
	.st11{fill:none;stroke:#4643BF;stroke-miterlimit:10;}
	.st12{fill:#D3DBF4;}
	.st13{fill:none;stroke:#FFFFFF;stroke-miterlimit:10;}
	.st14{fill:#E3EAFC;}
	.st15{fill:#F0F1FF;}
	.st16{fill:#C2CFEF;}
	.st17{fill:none;stroke:#D3DBF4;stroke-miterlimit:10;}
	.st18{fill:#FFCBBD;}
	.st19{fill:#E5EAF9;}
	.st20{fill:none;stroke:#121649;stroke-width:0.75;stroke-miterlimit:10;}
	.st21{fill:#F1F1F1;}
	.st22{fill:none;stroke:#1A3987;stroke-width:0.75;stroke-miterlimit:10;}
	.st23{fill:#212237;}
	.st24{fill:none;stroke:#E88872;stroke-width:0.5;stroke-linejoin:round;}
	.st25{fill:#28364C;}
	.st26{fill:none;stroke:#28364C;stroke-width:0.75;stroke-miterlimit:10;}
	.st27{fill:#EE5050;}
	.st28{fill:none;stroke:#A52F2D;stroke-width:0.75;stroke-miterlimit:10;}
	.st29{fill:none;stroke:#5565AA;stroke-width:0.75;stroke-miterlimit:10;}
	.st30{fill-rule:evenodd;clip-rule:evenodd;fill:#FFCBBB;}
	.st31{fill:none;stroke:#28364C;stroke-width:0.5;stroke-linecap:round;stroke-linejoin:round;}
	.st32{fill:none;stroke:#EF977F;stroke-miterlimit:10;}
	.st33{fill:#14122D;}
	.st34{fill:#FFCBBB;}
	.st35{fill:#ADBBF9;}
	.st36{fill:none;stroke:#E5EAF9;stroke-miterlimit:10;}
	.st37{fill:#FFFFFF;stroke:#C5C8EF;stroke-linejoin:round;}
	.st38{fill:none;stroke:#C5C8EF;stroke-linejoin:round;}</style>
 <metadata/>
 <g>
  <title>background</title>
  <rect fill="none" id="canvas_background" height="402" width="442" y="-1" x="-1"/>
 </g>
 <g>
  <title>Layer 1</title>
  <g stroke="null" id="Screen">
   <path stroke="null" id="svg_1" d="m157.320002,272.796736c-5.0692,-16.535566 -19.4028,-29.248841 -38.019001,-29.664307c-10.8376,-0.24928 -21.2382,4.154665 -30.5026,9.140263c-12.4108,6.81365 -27.094,14.956794 -41.952001,12.879461c-9.5266,-1.329493 -20.8012,-6.398184 -23.0736,-16.867939c-2.3598,-11.134502 7.0794,-18.695992 17.1304,-23.18303c8.6526,-3.822292 20.8012,-12.962554 24.6468,-21.687351c15.3824,-34.732998 -27.7058,-74.368501 -15.4698,-113.920911c12.7604,-41.380462 71.580601,-48.360299 101.209201,-20.274765c2.8842,2.658986 5.5062,5.567251 7.9534,8.641703c6.0306,7.644583 9.614,18.031246 18.0044,23.68159c10.8376,7.395303 24.9964,5.068691 36.708001,0.664746c22.3744,-8.392423 28.3176,-13.959674 50.167601,-23.016843c15.732,-6.481277 35.134801,-12.297808 52.789601,-6.564371c12.673,4.154665 26.657,11.633062 33.7364,22.352097c13.1974,20.108578 7.2542,41.712835 28.0554,70.213836c9.4392,12.962554 24.472,16.535566 36.358401,25.925109c31.027,24.18015 20.6264,75.282528 -13.1974,92.73212c-27.7932,14.37514 -61.966601,11.051409 -92.032201,7.395303c-2.2724,-0.24928 -4.6322,-0.581653 -6.9046,-0.914026" class="st0"/>
   <path stroke="null" id="svg_2" d="m377.043606,84.67351c5.3314,-5.816531 9.177,-12.630181 11.1872,-20.108578l-10.3132,-3.489918c0.7866,-3.323732 1.1362,-6.81365 0.9614,-10.220476l10.8376,-1.578773c-0.5244,-7.644583 -2.9716,-15.12298 -7.0794,-21.770444l-9.8762,4.487038c-1.9228,-2.908265 -4.1952,-5.567251 -6.9046,-7.893863l6.4676,-8.392423c-6.0306,-5.068691 -13.2848,-8.724796 -21.1508,-10.635942l-3.6708,9.805009c-3.496,-0.74784 -7.1668,-1.080213 -10.7502,-0.914026l-1.6606,-10.303569c-8.0408,0.49856 -15.9068,2.742079 -22.8988,6.647464l4.7196,9.389543c-3.059,1.828053 -5.8558,4.071572 -8.3904,6.564371l-8.8274,-6.148904c-5.3314,5.733438 -9.177,12.630181 -11.1872,20.108578l10.3132,3.489918c-0.7866,3.323732 -1.1362,6.81365 -0.9614,10.220476l-10.8376,1.578773c0.5244,7.644583 2.9716,15.12298 7.0794,21.770444l9.8762,-4.487038c1.9228,2.908265 4.1952,5.567251 6.9046,7.893863l-6.4676,8.392423c6.118,5.068691 13.2848,8.724796 21.1508,10.635942l3.6708,-9.805009c3.496,0.74784 7.1668,1.080213 10.7502,0.914026l1.748,10.303569c8.0408,-0.49856 15.9068,-2.825172 22.8988,-6.730557l-4.7196,-9.389543c3.059,-1.828053 5.8558,-3.988478 8.303,-6.564371l8.8274,6.231997zm-50.692001,-10.719035c-12.5856,-6.315091 -17.3926,-21.022604 -10.7502,-32.988039s22.1122,-16.535566 34.697801,-10.220476s17.3926,21.022604 10.7502,32.988039c0,0 0,0 0,0c-6.6424,11.882342 -22.1122,16.452473 -34.697801,10.220476zm3.496,-6.231997c-8.9148,-4.487038 -12.3234,-14.956794 -7.6038,-23.43231s15.732,-11.716155 24.6468,-7.229117c8.9148,4.487038 12.3234,14.956794 7.6038,23.43231c0,0 0,0 0,0c-4.7196,8.475516 -15.732,11.716155 -24.6468,7.229117c0,0 0,0 0,0z" class="st1"/>
   <path stroke="null" id="svg_3" d="m142.287202,108.272007c2.8842,-3.905385 4.807,-8.30933 5.5936,-13.045648l-6.555,-1.578773c0.2622,-2.160426 0.2622,-4.237758 -0.0874,-6.398184l6.555,-1.661866c-0.7866,-4.736318 -2.7968,-9.140263 -5.7684,-12.962554l-5.8558,3.323732c-1.3984,-1.661866 -2.9716,-3.157545 -4.7196,-4.487038l3.4086,-5.567251c-4.1078,-2.742079 -8.74,-4.570131 -13.7218,-5.317971l-1.6606,6.231997c-2.185,-0.24928 -4.4574,-0.24928 -6.6424,0l-1.748,-6.231997c-4.9818,0.74784 -9.614,2.658986 -13.6344,5.484158l3.496,5.567251c-1.748,1.329493 -3.3212,2.825172 -4.7196,4.487038l-5.8558,-3.240639c-2.8842,3.905385 -4.807,8.30933 -5.5936,13.045648l6.555,1.495679c-0.2622,2.160426 -0.2622,4.237758 0.0874,6.398184l-6.555,1.578773c0.7866,4.736318 2.7968,9.140263 5.7684,12.962554l5.8558,-3.323732c1.3984,1.661866 2.9716,3.157545 4.7196,4.487038l-3.4086,5.567251c2.0102,1.412586 4.1952,2.575892 6.555,3.406825c2.2724,0.914026 4.7196,1.495679 7.1668,1.911146l1.6606,-6.231997c2.185,0.24928 4.4574,0.24928 6.6424,-0.083093l1.748,6.231997c4.9818,-0.74784 9.614,-2.658986 13.6344,-5.484158l-3.496,-5.484158c1.748,-1.329493 3.3212,-2.825172 4.7196,-4.487038l5.8558,3.406825zm-31.901,-3.573012c-8.1282,-3.157545 -12.0612,-11.965435 -8.74,-19.693112s12.5856,-11.466875 20.7138,-8.30933s12.0612,11.965435 8.74,19.693112c0,0 0,0 0,0c-3.3212,7.727677 -12.5856,11.466875 -20.7138,8.30933zm1.748,-4.071572c-5.8558,-2.243519 -8.6526,-8.55861 -6.2928,-14.042767s9.0022,-8.226236 14.7706,-5.982717c5.8558,2.243519 8.6526,8.55861 6.2928,14.042767c0,0 0,0 0,0.083093l0,0c-2.3598,5.484158 -9.0022,8.143143 -14.7706,5.899624z" class="st1"/>
   <path stroke="null" id="svg_4" d="m168.419802,50.688352c1.1362,-1.246399 2.185,-2.575892 2.9716,-4.071572c0.7866,-1.495679 1.3984,-3.074452 1.8354,-4.653225l-4.4574,-1.495679c0.3496,-1.412586 0.5244,-2.908265 0.437,-4.403945l4.7196,-0.664746c-0.2622,-3.323732 -1.311,-6.481277 -3.059,-9.389543l-4.2826,1.911146c-0.874,-1.246399 -1.8354,-2.409706 -2.9716,-3.489918l2.7968,-3.656105c-2.622,-2.160426 -5.7684,-3.739198 -9.177,-4.570131l-1.5732,4.237758c-1.4858,-0.332373 -3.059,-0.49856 -4.6322,-0.415466l-0.6992,-4.487038c-3.496,0.24928 -6.9046,1.246399 -9.9636,2.908265l2.0102,4.071572c-1.311,0.74784 -2.5346,1.744959 -3.5834,2.825172l-3.8456,-2.658986c-1.1362,1.246399 -2.0976,2.658986 -2.9716,4.071572c-0.7866,1.495679 -1.4858,3.074452 -1.9228,4.653225l4.5448,1.495679c-0.3496,1.412586 -0.5244,2.908265 -0.437,4.403945l-4.7196,0.664746c0.2622,3.323732 1.311,6.481277 3.059,9.389543l4.2826,-1.911146c0.7866,1.246399 1.8354,2.409706 2.9716,3.406825l-2.8842,3.656105c2.622,2.243519 5.7684,3.822292 9.177,4.653225l1.5732,-4.320851c1.4858,0.332373 3.059,0.49856 4.6322,0.415466l0.6992,4.487038c3.496,-0.24928 6.8172,-1.246399 9.8762,-2.908265l-2.0102,-4.071572c1.311,-0.74784 2.5346,-1.744959 3.5834,-2.825172l4.0204,2.742079zm-20.4516,-7.229117c-3.933,-1.994239 -5.4188,-6.564371 -3.3212,-10.303569c2.0976,-3.739198 6.9046,-5.151784 10.8376,-3.157545c3.933,1.994239 5.4188,6.564371 3.3212,10.303569l0,0c-2.0976,3.656105 -6.9046,5.068691 -10.8376,3.157545z" class="st1"/>
   <path stroke="null" id="svg_5" d="m78.397801,113.673071c0,-0.581653 -0.0874,-1.163306 -0.1748,-1.744959c-0.6118,-5.151784 -4.2826,-4.653225 -6.6424,-4.487038s-5.1566,0.24928 -6.2928,-2.160426c-0.5244,-0.99712 -0.437,-2.326612 -0.7866,-3.406825c-0.6118,-2.326612 -2.7968,-3.905385 -5.244,-3.988478c-2.2724,0 -4.37,1.246399 -6.2054,2.742079c-0.9614,0.74784 -2.0102,1.744959 -3.1464,1.412586c-0.7866,-0.332373 -1.3984,-0.830933 -1.748,-1.578773c-2.622,-4.071572 -2.622,-10.054289 -5.5062,-13.876581c-3.2338,-4.237758 -9.177,-4.320851 -13.1974,-1.246399s-6.3802,8.55861 -7.429,14.125861c-0.3496,1.828053 -0.6118,3.739198 -1.8354,4.985598c-1.6606,1.744959 -4.1952,1.163306 -6.4676,0.914026c-2.622,-0.415466 -5.3314,0.24928 -7.429,1.911146c-1.8354,1.661866 -2.7968,4.071572 -2.622,6.481277l74.727001,0l0,-0.083093z" class="st2"/>
   <path stroke="null" id="svg_6" d="m212.556803,27.588415l73.590801,0c0,0 -2.9716,-3.240639 -6.2928,-4.403945c-4.1952,-1.412586 -5.9432,2.492799 -8.5652,-2.575892c-1.4858,-2.825172 -2.5346,-6.564371 -6.4676,-7.56149c-6.118,-1.495679 -7.6912,3.323732 -10.5754,1.994239c-2.5346,-1.163306 -2.4472,-5.733438 -5.0692,-9.472636s-8.6526,-5.982717 -12.8478,-4.071572c-7.6912,3.573012 -6.6424,9.223356 -9.177,11.051409s-8.1282,-4.653225 -14.5084,2.326612c-4.4574,4.819411 -0.0874,12.713275 -0.0874,12.713275z" class="st2"/>
   <path stroke="null" id="svg_7" d="m289.294004,3.574452c0,1.661866 -1.4858,3.074452 -3.2338,3.074452s-3.2338,-1.412586 -3.2338,-3.074452c0,0 0,0 0,0c0,-1.661866 1.3984,-3.074452 3.1464,-3.074452c0,0 0.0874,0 0.0874,0l0,0c1.748,0 3.2338,1.329493 3.2338,3.074452c0,0 0,0 0,0z" class="st3"/>
   <path stroke="null" id="svg_8" d="m347.939405,123.72736c0,1.661866 -1.4858,3.074452 -3.2338,3.074452c-1.748,0 -3.2338,-1.412586 -3.2338,-3.074452c0,-1.661866 1.4858,-3.074452 3.2338,-3.074452l0,0c1.748,0 3.2338,1.329493 3.2338,3.074452c0,0 0,0 0,0z" class="st3"/>
   <path stroke="null" id="svg_9" d="m80.320601,45.038007c0,1.661866 -1.4858,3.074452 -3.2338,3.074452c-1.748,0 -3.2338,-1.412586 -3.2338,-3.074452s1.4858,-3.074452 3.2338,-3.074452l0,0l0,0c1.748,0 3.2338,1.412586 3.2338,3.074452z" class="st3"/>
   <path stroke="null" id="svg_10" d="m118.514402,31.078333c0,1.163306 -0.9614,2.077332 -2.185,2.077332s-2.185,-0.914026 -2.185,-2.077332s0.9614,-2.077332 2.185,-2.077332l0,0c1.2236,0 2.185,0.914026 2.185,2.077332z" class="st3"/>
   <circle stroke="null" id="svg_11" r="2.077332" cy="109.684593" cx="316.562805" class="st3"/>
   <path stroke="null" id="svg_12" d="m405.011606,57.252722c0,1.163306 -0.9614,2.077332 -2.185,2.077332s-2.185,-0.914026 -2.185,-2.077332s0.9614,-2.077332 2.185,-2.077332c1.1362,0 2.185,0.830933 2.185,1.911146c0,0.083093 0,0.083093 0,0.166187z" class="st3"/>
   <path stroke="null" id="svg_13" d="m400.379406,209.978203c0,1.163306 -0.9614,2.077332 -2.185,2.077332s-2.185,-0.914026 -2.185,-2.077332s0.9614,-2.077332 2.185,-2.077332c1.2236,0 2.185,0.914026 2.185,2.077332c0,0 0,0 0,0z" class="st3"/>
   <path stroke="null" id="svg_14" d="m59.781601,230.003688c0,1.163306 -0.9614,2.077332 -2.185,2.077332s-2.185,-0.914026 -2.185,-2.077332s0.9614,-2.077332 2.185,-2.077332l0,0c1.2236,0 2.185,0.914026 2.185,2.077332c0,0 0,0 0,0z" class="st3"/>
   <path stroke="null" id="svg_15" d="m66.336601,134.695675c0,1.163306 -0.9614,2.077332 -2.185,2.077332s-2.185,-0.914026 -2.185,-2.077332s0.9614,-2.077332 2.185,-2.077332l0,0c1.2236,0 2.185,0.914026 2.185,2.077332c0,0 0,0 0,0z" class="st3"/>
   <path stroke="null" id="svg_16" d="m34.523001,240.307257l2.9716,0c0.5244,0 0.9614,0.415466 0.9614,0.914026l0,2.825172c0,0.49856 -0.437,0.914026 -0.9614,0.914026l-2.9716,0c-0.5244,0 -0.9614,-0.415466 -0.9614,-0.914026l0,-2.825172c0,-0.49856 0.437,-0.914026 0.9614,-0.914026z" class="st1"/>
   <path stroke="null" id="svg_17" d="m29.4538,70.381463l2.9716,0c0.5244,0 0.9614,0.415466 0.9614,0.914026l0,2.825172c0,0.49856 -0.437,0.914026 -0.9614,0.914026l-2.9716,0c-0.5244,0 -0.9614,-0.415466 -0.9614,-0.914026l0,-2.825172c0,-0.49856 0.437,-0.914026 0.9614,-0.914026z" class="st1"/>
   <path stroke="null" id="svg_18" d="m404.050206,33.155666l5.5936,0c0.9614,0 1.8354,0.74784 1.8354,1.661866c0,0 0,0.083093 0,0.083093l0,5.401064c0,0.914026 -0.7866,1.744959 -1.748,1.744959c0,0 -0.0874,0 -0.0874,0l-5.5936,0c-0.9614,0 -1.8354,-0.74784 -1.8354,-1.661866c0,0 0,-0.083093 0,-0.083093l0,-5.401064c0,-0.99712 0.7866,-1.744959 1.8354,-1.744959z" class="st1"/>
   <path stroke="null" id="svg_19" d="m354.057405,171.09054l2.9716,0c0.5244,0 0.9614,0.415466 0.9614,0.914026l0,2.825172c0,0.49856 -0.437,0.914026 -0.9614,0.914026l-2.9716,0c-0.5244,0 -0.9614,-0.415466 -0.9614,-0.914026l0,-2.825172c0,-0.49856 0.437,-0.914026 0.9614,-0.914026z" class="st1"/>
   <path stroke="null" id="svg_20" d="m290.168004,142.672632c0,-0.415466 0.0874,-0.830933 0.0874,-1.246399c0.5244,-3.656105 3.496,-3.406825 5.4188,-3.240639s4.2826,0.166187 5.1566,-1.578773c0.2622,-0.830933 0.5244,-1.661866 0.6118,-2.492799c0.6992,-1.744959 2.4472,-2.908265 4.37,-2.908265c1.8354,0.083093 3.6708,0.830933 5.0692,1.994239c4.8944,3.489918 6.2928,-5.733438 8.5652,-8.392423c2.622,-3.074452 7.5164,-4.736318 10.8376,-2.575892s5.244,6.148904 6.118,10.137382c0.2622,1.329493 0.3496,2.908265 1.4858,3.573012c3.2338,2.077332 7.3416,-1.994239 11.2746,1.163306c1.3984,1.080213 1.6606,3.739198 1.4858,5.484158l-60.480801,0.083093z" class="st2"/>
   <path stroke="null" id="svg_21" d="m144.210002,42.212835l153.387002,0c4.4574,0 8.1282,3.406825 8.1282,7.727677c0,0 0,0 0,0l0,274.457162c0,4.237758 -3.5834,7.727677 -8.1282,7.727677c0,0 0,0 0,0l-153.387002,0c-4.4574,0 -8.1282,-3.406825 -8.1282,-7.727677c0,0 0,0 0,0l0,-274.457162c0,-4.237758 3.6708,-7.727677 8.1282,-7.727677z" class="st4"/>
   <path stroke="null" id="svg_22" d="m297.597004,42.628302c4.2826,0 7.6912,3.240639 7.6912,7.31221l0,274.374068c0,4.071572 -3.4086,7.31221 -7.6912,7.31221l-153.387002,0c-4.2826,0 -7.6912,-3.240639 -7.6912,-7.31221l0,-274.374068c0,-4.071572 3.4086,-7.31221 7.6912,-7.31221l153.387002,0m0,-0.830933l-153.387002,0c-4.7196,0 -8.5652,3.656105 -8.5652,8.143143l0,0l0,274.374068c0,4.487038 3.8456,8.143143 8.5652,8.143143l153.387002,0c4.7196,0 8.5652,-3.656105 8.5652,-8.143143l0,-274.374068c0,-4.487038 -3.8456,-8.143143 -8.5652,-8.143143z" class="st5"/>
   <path stroke="null" id="svg_23" d="m228.725803,319.245889c0,4.071572 -3.496,7.395303 -7.7786,7.395303c-4.2826,0 -7.7786,-3.323732 -7.7786,-7.395303c0,-4.071572 3.496,-7.395303 7.7786,-7.395303c0,0 0,0 0,0l0,0c4.2826,0 7.7786,3.323732 7.7786,7.395303z" class="st6"/>
   <g stroke="null" id="svg_24">
    <defs transform="translate(0,0.5) scale(0.8740000128746033,0.8309329748153687) translate(0,-0.5) " stroke="null">
     <path stroke="null" d="m165,50.2l175.5,0c5.4,0 9.8,4.4 9.8,9.8l0,330.3c0,5.4 -4.4,9.8 -9.8,9.8l-175.5,0c-5.4,0 -9.8,-4.4 -9.8,-9.8l0,-330.3c0,-5.4 4.4,-9.8 9.8,-9.8z" id="SVGID_1_"/>
    </defs>
    <clipPath transform="translate(0,0.5) scale(0.8740000128746033,0.8309329748153687) translate(0,-0.5) " stroke="null" id="SVGID_2_">
     <use stroke="null" id="svg_25" xlink:href="#SVGID_1_"/>
    </clipPath>
    <g stroke="null" id="svg_26" class="st7">
     <polygon stroke="null" id="svg_27" points="261.3260038495064,10.305009261309237 133.7220019698143,339.9361202120781 170.77959718122474,339.9361202120781 298.471004396677,10.305009261309237 " class="st8"/>
     <polygon stroke="null" id="svg_28" points="309.92040989980705,10.305009261309237 182.22900268435478,339.9361202120781 197.96100291609764,339.9361202120781 325.6524101315499,10.305009261309237 " class="st9"/>
    </g>
   </g>
   <rect stroke="null" id="svg_29" height="236.649711" width="167.808002" class="st10" y="68.885784" x="137.043202"/>
   <path stroke="null" id="svg_30" d="m211.333203,53.845897l23.6854,0c0.5244,0 0.9614,0.415466 0.9614,0.914026l0,0c0,0.49856 -0.437,0.914026 -0.9614,0.914026l-23.6854,0c-0.5244,0 -0.9614,-0.415466 -0.9614,-0.914026l0,0c0,-0.49856 0.437,-0.914026 0.9614,-0.914026z" class="st11"/>
   <circle stroke="null" id="svg_31" r="0.914025" cy="54.759923" cx="206.001803" class="st11"/>
   <rect stroke="null" id="svg_32" height="69.54909" width="72.454601" class="st12" y="160.537691" x="148.492602"/>
   <circle stroke="null" id="svg_33" r="14.292051" cy="185.299494" cx="184.676203" class="st13"/>
   <ellipse stroke="null" id="svg_34" ry="14.208954" rx="10.3132" cy="185.299494" cx="184.676203" class="st13"/>
   <ellipse stroke="null" id="svg_35" ry="14.208954" rx="4.0204" cy="185.299494" cx="184.676203" class="st13"/>
   <line stroke="null" id="svg_36" y2="185.299494" x2="199.709003" y1="185.299494" x1="169.730803" class="st13"/>
   <path stroke="null" id="svg_37" d="m171.304003,191.697678c2.8842,-0.914026 7.7786,-1.495679 13.4596,-1.495679s10.5754,0.581653 13.4596,1.495679" class="st13"/>
   <path stroke="null" id="svg_38" d="m175.586603,196.683275c2.8842,-0.99712 6.0306,-1.495679 9.0896,-1.495679c3.059,0 6.118,0.49856 9.0022,1.412586" class="st13"/>
   <path stroke="null" id="svg_39" d="m171.304003,179.067496c2.8842,0.914026 7.7786,1.495679 13.4596,1.495679s10.5754,-0.581653 13.4596,-1.495679" class="st13"/>
   <path stroke="null" id="svg_40" d="m175.586603,174.081898c5.8558,1.911146 12.1486,1.911146 18.0044,0" class="st13"/>
   <rect stroke="null" id="svg_41" height="3.656105" width="60.131201" class="st14" y="213.966681" x="154.610602"/>
   <rect stroke="null" id="svg_42" height="3.656105" width="35.921401" class="st14" y="207.153031" x="178.820403"/>
   <rect stroke="null" id="svg_43" height="3.656105" width="20.102" class="st14" y="207.153031" x="154.610602"/>
   <rect stroke="null" id="svg_44" height="3.656105" width="60.131201" class="st14" y="220.780332" x="154.610602"/>
   <rect stroke="null" id="svg_45" height="69.54909" width="72.454601" class="st15" y="160.537691" x="220.859803"/>
   <rect stroke="null" id="svg_46" height="3.656105" width="60.131201" class="st1" y="172.918592" x="227.065203"/>
   <rect stroke="null" id="svg_47" height="3.656105" width="60.131201" class="st1" y="179.732243" x="227.065203"/>
   <rect stroke="null" id="svg_48" height="3.656105" width="18.7036" class="st1" y="186.628986" x="226.977803"/>
   <rect stroke="null" id="svg_49" height="3.656105" width="36.271001" class="st1" y="186.628986" x="250.750604"/>
   <rect stroke="null" id="svg_50" height="3.656105" width="60.131201" class="st1" y="193.442637" x="227.065203"/>
   <rect stroke="null" id="svg_51" height="3.656105" width="60.131201" class="st1" y="200.256287" x="227.065203"/>
   <rect stroke="null" id="svg_52" height="3.656105" width="60.131201" class="st1" y="207.153031" x="227.065203"/>
   <rect stroke="null" id="svg_53" height="3.656105" width="17.3926" class="st1" y="213.966681" x="269.803804"/>
   <rect stroke="null" id="svg_54" height="3.656105" width="38.630801" class="st1" y="213.966681" x="227.065203"/>
   <rect stroke="null" id="svg_55" height="3.656105" width="60.131201" class="st1" y="220.780332" x="227.065203"/>
   <rect stroke="null" id="svg_56" height="3.656105" width="15.9068" class="st1" y="166.104942" x="271.202204"/>
   <rect stroke="null" id="svg_57" height="3.656105" width="40.116601" class="st1" y="166.104942" x="226.977803"/>
   <rect stroke="null" id="svg_58" height="69.54909" width="72.454601" class="st15" y="230.086781" x="148.492602"/>
   <rect stroke="null" id="svg_59" height="3.656105" width="60.131201" class="st1" y="283.598865" x="154.610602"/>
   <rect stroke="null" id="svg_60" height="3.656105" width="60.131201" class="st1" y="276.702121" x="154.610602"/>
   <rect stroke="null" id="svg_61" height="3.656105" width="15.4698" class="st1" y="269.88847" x="199.272003"/>
   <rect stroke="null" id="svg_62" height="3.656105" width="39.592201" class="st1" y="269.88847" x="154.698002"/>
   <rect stroke="null" id="svg_63" height="3.656105" width="60.131201" class="st1" y="263.07482" x="154.610602"/>
   <rect stroke="null" id="svg_64" height="3.656105" width="60.131201" class="st1" y="256.178076" x="154.610602"/>
   <rect stroke="null" id="svg_65" height="3.656105" width="60.131201" class="st1" y="249.364426" x="154.610602"/>
   <rect stroke="null" id="svg_66" height="3.656105" width="27.968" class="st1" y="242.550776" x="154.610602"/>
   <rect stroke="null" id="svg_67" height="3.656105" width="28.0554" class="st1" y="242.550776" x="186.686403"/>
   <rect stroke="null" id="svg_68" height="3.656105" width="60.131201" class="st1" y="235.654032" x="154.610602"/>
   <rect stroke="null" id="svg_69" height="3.656105" width="28.0554" class="st1" y="290.412515" x="154.610602"/>
   <rect stroke="null" id="svg_70" height="3.656105" width="28.0554" class="st1" y="290.412515" x="186.773803"/>
   <rect stroke="null" id="svg_71" height="69.54909" width="72.454601" class="st12" y="230.086781" x="220.859803"/>
   <polygon stroke="null" id="svg_72" points="271.8140040040016,277.9485152192392 242.79719290761932,277.61614710092545 239.4760035276413,257.83995244354446 274.6108147141458,257.75685407445053 " class="st16"/>
   <polygon stroke="null" id="svg_73" points="274.6108147141458,257.75685407445053 239.4760035276413,257.83995244354446 257.04340912089356,244.04645998999695 " class="st16"/>
   <rect stroke="null" id="svg_74" height="23.2" width="27.4" class="st10" transform="matrix(0.8740000128746033,-0.001450248925202608,0.0015254149464703798,0.8309329748153687,-0.4868180071711541,0.5110514085650444) " y="307.8" x="280.1"/>
   <polygon stroke="null" id="svg_75" points="239.4760035276413,257.83995244354446 239.5634088634015,279.527282799776 257.04340912089356,269.3899157218657 " class="st14"/>
   <polygon stroke="null" id="svg_76" points="274.6108147141458,257.75685407445053 274.69819337754234,279.44420978874405 257.04340912089356,269.3899157218657 " class="st14"/>
   <polygon stroke="null" id="svg_77" points="274.69819337754234,279.44420978874405 239.5634088634015,279.527282799776 257.04340912089356,265.73381570429046 " class="st14"/>
   <polyline stroke="null" id="svg_78" points="239.5634088634015,279.527282799776 257.04340912089356,265.73381570429046 274.69819337754234,279.44420978874405 " class="st17"/>
   <line stroke="null" id="svg_79" y2="257.756849" x2="274.610804" y1="267.728045" x1="259.578004" class="st17"/>
   <line stroke="null" id="svg_80" y2="257.839942" x2="239.476004" y1="267.728045" x1="254.596204" class="st17"/>
   <rect stroke="null" id="svg_81" height="3.656105" width="28.0554" class="st14" y="287.836623" x="243.059404"/>
   <rect stroke="null" id="svg_82" height="69.465997" width="144.909202" class="st12" y="84.92279" x="148.492602"/>
   <rect stroke="null" id="svg_83" height="4.819411" width="68.259401" class="st14" y="94.893986" x="218.849603"/>
   <rect stroke="null" id="svg_84" height="4.819411" width="68.259401" class="st14" y="103.868062" x="218.849603"/>
   <rect stroke="null" id="svg_85" height="4.819411" width="68.259401" class="st14" y="112.759045" x="218.849603"/>
   <rect stroke="null" id="svg_86" height="4.819411" width="68.259401" class="st14" y="121.733121" x="218.849603"/>
   <rect stroke="null" id="svg_87" height="4.819411" width="68.259401" class="st14" y="139.59818" x="218.849603"/>
   <rect stroke="null" id="svg_88" height="4.819411" width="40.815801" class="st14" y="130.624104" x="246.380604"/>
   <rect stroke="null" id="svg_89" height="4.819411" width="22.8114" class="st14" y="130.624104" x="218.849603"/>
   <rect stroke="null" id="svg_90" height="49.108139" width="51.653401" class="st14" y="95.143266" x="156.795602"/>
   <polygon stroke="null" id="svg_91" points="187.3855974258422,110.43243510387947 203.11759765758507,136.02517326399902 171.65359719409935,136.02517326399902 " class="st10"/>
   <polygon stroke="null" id="svg_92" points="171.4787998587608,118.8248505420961 174.80000257492065,124.97376216314842 168.76940782055863,136.02517326399902 162.1270023882389,136.02517326399902 " class="st10"/>
   <path stroke="null" id="svg_93" d="m163.438002,108.936753c0,1.495679 1.311,2.742079 2.8842,2.742079c1.5732,0 2.8842,-1.246399 2.8842,-2.742079c0,-1.495679 -1.311,-2.742079 -2.8842,-2.742079l0,0c-1.5732,0 -2.8842,1.246399 -2.8842,2.742079z" class="st10"/>
   <path stroke="null" id="svg_94" d="m180.044003,79.189353l81.719001,0c1.311,0 2.3598,-0.99712 2.3598,-2.243519c0,0 0,0 0,0l0,0c0,-1.246399 -1.0488,-2.243519 -2.3598,-2.243519c0,0 0,0 0,0l-81.719001,0c-1.311,0 -2.3598,0.99712 -2.3598,2.243519c0,0 0,0 0,0l0,0c0,1.246399 1.0488,2.243519 2.3598,2.243519c0,0 0,0 0,0z" class="st12"/>
   <line stroke="null" id="svg_95" y2="299.635871" x2="220.947203" y1="160.537691" x1="220.947203" class="st13"/>
   <line stroke="null" id="svg_96" y2="230.086781" x2="293.401804" y1="230.086781" x1="148.492602" class="st13"/>
   <path stroke="null" id="svg_97" d="m289.294004,362.786777l0.7866,24.595616l-0.874,7.727677l-30.8522,-0.166187c-0.7866,0 -1.3984,-0.581653 -1.3984,-1.329493c0,0 0,0 0,0l0,0c0,-0.581653 0.3496,-1.080213 0.874,-1.246399l13.8092,-5.982717l-2.0976,-25.592736" class="st18"/>
   <path stroke="null" id="svg_98" d="m255.645004,394.61151c0.3496,-0.99712 0.9614,-2.077332 1.5732,-2.326612l14.5958,-5.982717c8.0408,3.074452 18.4414,0.74784 18.4414,0.74784l0.7866,10.469755c0,0.332373 -0.2622,0.581653 -0.6118,0.581653c0,0 0,0 0,0l0,0l-34.523001,-0.166187c-0.7866,0.083093 -0.2622,-3.240639 -0.2622,-3.323732z" class="st19"/>
   <path stroke="null" id="svg_99" d="m268.580204,386.966927c0.7866,0.99712 1.4858,2.160426 2.0976,3.323732" class="st20"/>
   <path stroke="null" id="svg_100" d="m266.744804,387.964046c0.6992,0.830933 1.2236,1.828053 1.6606,2.825172" class="st20"/>
   <path stroke="null" id="svg_101" d="m265.171604,388.794979c0.6118,0.830933 1.1362,1.661866 1.5732,2.575892" class="st20"/>
   <line stroke="null" id="svg_102" y2="395.691723" x2="255.470204" y1="395.941003" x1="290.867204" class="st20"/>
   <path stroke="null" id="svg_103" d="m290.517604,390.872312c0,0 -8.2156,0.083093 -8.9148,4.985598" class="st20"/>
   <path stroke="null" id="svg_104" d="m260.102404,391.121591c0,0 2.3598,3.157545 2.7968,4.653225" class="st20"/>
   <path stroke="null" id="svg_105" d="m285.710604,266.149272c0,0 3.7582,5.982717 4.807,10.469755c0.9614,4.736318 0.9614,9.721916 0,14.458234l-0.0874,86.001563l-22.8988,0c0,0 -5.0692,-99.130304 -2.7968,-111.926672" class="st21"/>
   <path stroke="null" id="svg_106" d="m271.027404,376.995731c0,0 -5.0692,-99.130304 -2.7968,-111.926672" class="st22"/>
   <path stroke="null" id="svg_107" d="m264.035404,353.147955l10.4006,22.518284l2.2724,7.478397l-28.6672,10.802129c-0.6992,0.24928 -1.4858,-0.083093 -1.8354,-0.74784l0,0c-0.2622,-0.49856 -0.0874,-1.163306 0.3496,-1.495679l10.4006,-10.469755l-12.0612,-23.016843" class="st18"/>
   <path stroke="null" id="svg_108" d="m245.244404,394.61151c-0.1748,-0.914026 0,-1.828053 0.5244,-2.658986l11.1872,-10.719035c8.6526,0 17.3926,-5.816531 17.3926,-5.816531l4.807,9.389543c0.1748,0.332373 0,0.664746 -0.2622,0.830933c0,0 0,0 -0.0874,0l0,0l-32.0758,12.048528c-0.6118,0.166187 -1.4858,-3.074452 -1.4858,-3.074452z" class="st19"/>
   <path stroke="null" id="svg_109" d="m254.246604,382.895355c1.1362,0.664746 2.2724,1.412586 3.2338,2.326612" class="st20"/>
   <path stroke="null" id="svg_110" d="m252.935604,384.474128c0.9614,0.581653 1.8354,1.246399 2.622,1.994239" class="st20"/>
   <path stroke="null" id="svg_111" d="m251.799404,385.720527c0.874,0.581653 1.6606,1.163306 2.4472,1.828053" class="st20"/>
   <line stroke="null" id="svg_112" y2="395.691723" x2="245.506604" y1="383.310821" x1="278.369004" class="st20"/>
   <path stroke="null" id="svg_113" d="m276.184004,378.74069c0,0 -7.6038,2.908265 -6.2928,7.727677" class="st20"/>
   <path stroke="null" id="svg_114" d="m248.041204,389.709005c0,0 3.4086,2.077332 4.4574,3.323732" class="st20"/>
   <path stroke="null" id="svg_115" d="m246.205804,280.108946c-11.799,27.503881 -11.9738,30.412147 -13.8966,43.873261c-2.0102,13.793487 19.7524,54.343017 19.7524,54.343017l20.8886,-8.724796c0,0 -13.8966,-37.059611 -12.9352,-43.457795c1.6606,-11.716155 15.9068,-31.74164 15.9068,-31.74164s6.7298,-5.068691 8.2156,-11.882342s-1.748,-13.876581 -1.748,-13.876581" class="st21"/>
   <path stroke="null" id="svg_116" d="m267.706204,283.432678l9.3518,-2.825172" class="st22"/>
   <line stroke="null" id="svg_117" y2="277.200681" x2="290.692404" y1="278.031614" x1="287.720804" class="st22"/>
   <path stroke="null" id="svg_118" d="m253.197804,279.278013c0,0 -14.5084,30.079774 -16.5186,43.873261s19.228,53.17971 19.228,53.17971" class="st22"/>
   <path stroke="null" id="svg_119" d="m264.822004,312.847705c3.2338,-6.398184 6.9046,-12.630181 11.0124,-18.529805c0,0 6.7298,-5.068691 8.2156,-11.882342" class="st22"/>
   <path stroke="null" id="svg_120" d="m244.283004,212.138629l6.0306,9.888102c0,0 -3.5834,7.395303 -13.2848,3.905385l-2.4472,-5.234878l9.7014,-8.55861z" class="st18"/>
   <path stroke="null" id="svg_121" d="m228.288803,205.408072c0,0 -2.9716,13.211834 2.185,15.538447c2.622,1.246399 10.1384,0.49856 11.8864,-2.243519c1.311,-1.994239 0.7866,-11.466875 -0.7866,-12.630181c-6.118,-4.403945 -13.2848,-0.664746 -13.2848,-0.664746z" class="st18"/>
   <path stroke="null" id="svg_122" d="m241.311404,201.502687c-2.2724,-3.739198 -6.8172,-2.991359 -14.2462,0.99712c-0.9614,0.49856 -3.1464,0.74784 -3.1464,1.828053c0,1.412586 1.0488,3.739198 2.7968,4.237758c0.9614,0.24928 2.0102,0.24928 2.9716,-0.083093c1.5732,-0.332373 3.5834,0.24928 3.5834,1.994239c0,0.415466 -0.1748,1.246399 0.2622,1.412586l1.0488,0c0.6992,0 1.0488,0.830933 0.9614,1.495679c-0.0874,0.664746 0.3496,1.163306 0.2622,1.744959c-0.1748,1.578773 1.8354,3.240639 3.496,3.406825c1.4858,0.083093 5.681,-0.581653 7.6912,-3.157545c1.748,-2.243519 1.5732,-6.065811 -1.3984,-11.716155c-1.0488,-2.077332 -3.496,-2.658986 -4.2826,-2.160426z" class="st23"/>
   <path stroke="null" id="svg_123" d="m233.095803,212.554095c0.437,-2.077332 1.6606,-2.326612 2.622,-1.744959c1.311,0.74784 1.0488,3.739198 0.5244,4.487038c-0.9614,1.495679 -2.185,1.911146 -2.7968,0.830933" class="st18"/>
   <path stroke="null" id="svg_124" d="m234.931203,221.445078c0.9614,-0.914026 1.4858,-2.160426 1.311,-3.489918" class="st24"/>
   <path stroke="null" id="svg_125" d="m228.813203,211.723162c-0.1748,0.415466 -0.2622,1.163306 0.0874,1.412586c0.0874,0.083093 0.2622,0.083093 0.3496,0c0.7866,-0.49856 0,-2.409706 -0.437,-1.412586z" class="st25"/>
   <path stroke="null" id="svg_126" d="m228.114003,210.227483c0.7866,-0.083093 1.5732,0.083093 2.2724,0.415466" class="st26"/>
   <path stroke="null" id="svg_127" d="m230.736003,216.542573l-2.2724,-0.083093c0,0 -0.0874,2.575892 0.9614,2.658986s1.311,-2.575892 1.311,-2.575892z" class="st10"/>
   <path stroke="null" id="svg_128" d="m248.827804,219.700119c0,0 5.244,-1.246399 12.5856,0.74784c6.2054,1.744959 14.1588,6.148904 20.102,12.214715c10.3132,10.469755 5.5936,36.394864 5.5936,36.394864l-13.4596,-0.49856c0,0 2.0976,-16.701753 -4.8944,-23.349217s-16.9556,-8.226236 -16.9556,-8.226236" class="st27"/>
   <path stroke="null" id="svg_129" d="m191.843003,256.178076c-4.1952,1.080213 -16.9556,2.409706 -17.1304,3.240639s4.2826,0.415466 4.0204,1.080213s-7.1668,1.744959 -7.1668,2.575892c0,1.163306 6.992,-0.24928 6.992,-0.24928s-2.8842,0.49856 -2.5346,1.495679c0.2622,0.74784 1.3984,0.914026 3.7582,0.74784c-1.2236,0.24928 -1.748,0.830933 -1.4858,1.578773s1.4858,0.664746 2.7968,0.49856c-0.874,0.166187 -1.5732,0.74784 -0.9614,1.246399c0.7866,0.664746 5.9432,0.332373 15.2076,-1.163306" class="st18"/>
   <path stroke="null" id="svg_130" d="m235.543003,223.023851c2.4472,0.830933 5.1566,0.830933 7.6038,0c2.0976,-0.664746 4.1078,-1.828053 5.681,-3.323732c0,0 9.0022,-0.581653 20.0146,9.888102s19.7524,40.466436 19.7524,40.466436l-45.535401,14.541327c0,0 -7.7786,-26.174389 -10.8376,-38.139824s3.3212,-23.43231 3.3212,-23.43231z" class="st27"/>
   <path stroke="null" id="svg_131" d="m268.318004,226.846142c9.0896,10.054289 20.3642,43.208515 20.3642,43.208515" class="st28"/>
   <path stroke="null" id="svg_132" d="m235.543003,223.023851c-6.0306,2.160426 -11.1872,7.727677 -14.3336,13.378021c-5.1566,9.306449 -8.303,16.1201 -8.303,16.1201l-26.1326,3.739198l1.311,13.294928c0,0 17.7422,-0.49856 31.8136,-2.492799c10.051,-1.412586 17.8296,-21.188791 17.8296,-21.188791" class="st27"/>
   <path stroke="null" id="svg_133" d="m233.795003,223.77169c0,0 2.8842,3.656105 9.7888,1.163306s7.1668,-5.484158 7.1668,-5.484158" class="st28"/>
   <line stroke="null" id="svg_134" y2="246.871627" x2="237.291003" y1="252.605065" x1="234.406803" class="st28"/>
   <line stroke="null" id="svg_135" y2="269.306817" x2="191.930403" y1="255.679517" x1="190.969003" class="st28"/>
   <line stroke="null" id="svg_136" y2="267.478765" x2="287.720804" y1="281.770812" x1="242.272804" class="st28"/>
   <path stroke="null" id="svg_137" d="m99.199001,288.085903l-0.7866,23.68159l0.7866,7.478397l29.716,-0.166187c0.7866,0 1.3984,-0.581653 1.3984,-1.329493c0,0 0,0 0,0l0,0c0,-0.49856 -0.3496,-0.99712 -0.874,-1.163306l-13.2848,-5.816531l2.0102,-24.678709" class="st18"/>
   <path stroke="null" id="svg_138" d="m131.711802,318.830423c-0.3496,-0.914026 -0.874,-1.994239 -1.4858,-2.243519l-14.0714,-5.733438c-7.7786,2.991359 -17.7422,0.74784 -17.7422,0.74784l-0.7866,10.054289c0,0.332373 0.2622,0.581653 0.6118,0.581653c0,0 0,0 0,0l33.212,-0.166187c0.6992,0 0.2622,-3.240639 0.2622,-3.240639z" class="st19"/>
   <path stroke="null" id="svg_139" d="m119.213602,311.435119c-0.7866,0.99712 -1.4858,2.077332 -2.0102,3.157545" class="st29"/>
   <path stroke="null" id="svg_140" d="m120.961602,312.432239c-0.6118,0.830933 -1.2236,1.744959 -1.6606,2.658986" class="st29"/>
   <path stroke="null" id="svg_141" d="m122.447402,313.180078c-0.6118,0.830933 -1.0488,1.661866 -1.5732,2.492799" class="st29"/>
   <line stroke="null" id="svg_142" y2="319.827542" x2="131.799202" y1="319.993729" x1="97.800601" class="st29"/>
   <path stroke="null" id="svg_143" d="m98.062801,315.174318c0,0 7.866,0.083093 8.5652,4.736318" class="st29"/>
   <path stroke="null" id="svg_144" d="m127.341802,315.423597c0,0 -2.2724,3.074452 -2.7094,4.487038" class="st29"/>
   <path stroke="null" id="svg_145" d="m101.995802,203.330739c0,0 15.8194,28.168628 20.8012,45.8675s-1.6606,57.583655 -1.6606,57.583655l-24.5594,0c0,0 4.8944,-43.291608 -0.874,-57.583655s-26.657,-52.016404 -26.657,-52.016404" class="st27"/>
   <path stroke="null" id="svg_146" d="m99.898201,306.698801c0,0 4.0204,-45.036567 1.5732,-56.171069s-19.4902,-36.976517 -19.4902,-36.976517" class="st28"/>
   <path stroke="null" id="svg_147" d="m71.056201,274.957162l-14.5084,19.028365l-3.933,6.481277l24.1224,16.535566c0.6118,0.415466 1.4858,0.332373 1.9228,-0.24928l0,0c0.3496,-0.415466 0.3496,-0.99712 0.0874,-1.495679l-7.1668,-12.131621l16.0816,-19.942391" class="st18"/>
   <path stroke="null" id="svg_148" d="m79.097001,318.24877c0.3496,-0.914026 0.5244,-2.077332 0.1748,-2.575892l-7.7786,-12.547088c-8.1282,-1.911146 -14.858,-9.389543 -14.858,-9.389543l-6.8172,7.727677c-0.1748,0.24928 -0.0874,0.664746 0.1748,0.830933l26.9192,18.363619c0.5244,0.415466 2.185,-2.409706 2.185,-2.409706z" class="st19"/>
   <path stroke="null" id="svg_149" d="m73.590801,305.203122c-1.2236,0.332373 -2.4472,0.830933 -3.5834,1.412586" class="st29"/>
   <path stroke="null" id="svg_150" d="m74.377401,307.031174c-1.0488,0.332373 -2.0102,0.74784 -2.9716,1.246399" class="st29"/>
   <path stroke="null" id="svg_151" d="m75.164001,308.44376c-0.9614,0.332373 -1.9228,0.74784 -2.7968,1.163306" class="st29"/>
   <line stroke="null" id="svg_152" y2="319.162796" x2="78.572601" y1="300.217524" x1="50.866801" class="st29"/>
   <path stroke="null" id="svg_153" d="m54.100601,296.478326c0,0 6.3802,4.487038 4.0204,8.641703" class="st29"/>
   <path stroke="null" id="svg_154" d="m77.698601,313.013892c-1.748,0.49856 -3.4086,1.246399 -4.9818,2.077332" class="st29"/>
   <path stroke="null" id="svg_155" d="m62.578401,197.181835c-4.7196,12.630181 0,22.518284 0,22.518284s15.9942,27.753161 15.9942,33.320412c0,5.151784 -20.4516,34.649905 -20.4516,34.649905l18.7036,14.292047c0,0 29.4538,-30.079774 28.842,-50.936191c-0.6992,-25.758922 -15.4698,-53.92755 -15.4698,-53.92755" class="st27"/>
   <path stroke="null" id="svg_156" d="m66.074401,198.012768c-4.7196,12.630181 0.9614,21.105698 0.9614,21.105698s15.0328,29.165747 15.0328,34.816092c0,5.151784 -21.2382,35.813211 -21.2382,35.813211" class="st28"/>
   <path stroke="null" id="svg_157" d="m98.237601,273.960042c4.37,-7.644583 7.6038,-15.787727 7.429,-22.850657c-0.6992,-25.758922 -15.4698,-53.92755 -15.4698,-53.92755" class="st28"/>
   <path stroke="null" id="svg_158" d="m64.501201,207.983964c0,0 8.3904,0.49856 11.6242,-5.899624" class="st28"/>
   <path stroke="null" id="svg_159" d="m96.577001,211.556976c0,0 2.2724,0.24928 2.0976,-0.830933s-2.0976,-6.896744 -2.0976,-6.896744" class="st28"/>
   <path stroke="null" id="svg_160" d="m107.239802,130.291731c0.874,5.068691 0.1748,9.555729 -4.37,10.220476s-10.925,-0.581653 -12.1486,-7.81077c-0.874,-5.068691 2.185,-9.721916 6.7298,-10.469755s8.9148,2.991359 9.7888,8.06005z" class="st30"/>
   <path stroke="null" id="svg_161" d="m103.481602,130.374824c-0.1748,0.49856 0,0.99712 0.437,1.329493c0.0874,0.083093 0.2622,0 0.3496,-0.083093c0.6118,-0.581653 -0.6118,-2.243519 -0.7866,-1.246399z" class="st25"/>
   <path stroke="null" id="svg_162" d="m101.995802,129.211518c0.9614,-0.49856 2.0976,-0.581653 3.1464,-0.166187" class="st31"/>
   <path stroke="null" id="svg_163" d="m106.453202,135.609702l-2.9716,0c0,0 -0.1748,2.326612 1.311,2.575892c1.2236,0.24928 1.6606,-2.575892 1.6606,-2.575892z" class="st10"/>
   <path stroke="null" id="svg_164" d="m100.422601,146.16255c-2.2724,0.332373 -4.6322,0.24928 -6.9046,-0.24928c-3.933,-0.99712 -5.0692,-2.575892 -5.0692,-2.575892l5.5062,-10.885222l8.4778,3.656105l-2.0102,10.054289z" class="st30"/>
   <path stroke="null" id="svg_165" d="m101.471401,140.678393c0,0 -3.6708,0.083093 -5.5936,-1.578773" class="st32"/>
   <path stroke="null" id="svg_166" d="m106.191002,130.125544c0,0 2.2724,3.157545 2.185,3.739198s-1.748,0.830933 -1.748,0.830933" class="st30"/>
   <path stroke="null" id="svg_167" d="m93.955001,137.354661c-0.5244,0.166187 -1.0488,0.332373 -1.5732,0.332373c-1.0488,0.166187 -2.185,-0.083093 -3.1464,-0.49856c-1.8354,-0.914026 -2.7968,-2.825172 -2.4472,-4.736318c0.0874,-0.332373 0.1748,-0.581653 0.1748,-0.914026c0.2622,-1.412586 -0.6118,-2.742079 -0.874,-4.154665c-0.2622,-1.412586 0.0874,-2.825172 0.9614,-3.988478c0.874,-1.163306 2.0102,-1.994239 3.4086,-2.492799c1.1362,-0.415466 2.2724,-0.49856 3.2338,-1.329493c0.437,-0.415466 0.874,-0.74784 1.311,-0.99712c2.2724,-1.329493 5.5062,-0.581653 7.5164,0.830933c0.2622,0.166187 0.5244,0.332373 0.7866,0.415466c0.5244,0.083093 1.0488,-0.083093 1.4858,0c1.9228,0.332373 2.7968,3.074452 2.7968,4.736318c0,0.49856 -0.1748,0.914026 -0.437,1.329493c-0.5244,0.49856 -1.2236,0.830933 -1.9228,0.914026c-1.0488,0 -2.0102,0.083093 -3.059,0.166187c-0.6992,0.24928 -1.311,0.581653 -1.9228,0.914026c-1.0488,0.415466 -2.2724,0.332373 -3.3212,-0.083093c0.2622,0.664746 0.3496,1.412586 0.2622,2.077332c-0.1748,1.329493 -1.3984,1.994239 -2.622,2.243519c0.5244,1.412586 0.6118,2.908265 0.2622,4.320851c-0.1748,0.415466 -0.437,0.74784 -0.874,0.914026z" class="st33"/>
   <path stroke="null" id="svg_168" d="m95.615601,131.122664c-0.5244,-0.664746 -1.5732,-0.830933 -2.3598,-0.24928c0,0 0,0 0,0l-0.0874,0c-1.6606,1.329493 0.5244,4.154665 1.8354,4.570131c0.6992,0.24928 1.3984,-0.166187 1.6606,-0.74784c0,-0.083093 0,-0.083093 0,-0.166187" class="st34"/>
   <path stroke="null" id="svg_169" d="m140.451802,185.2164c2.5346,0.166187 14.1588,1.329493 14.0714,1.994239s-4.0204,0.830933 -3.8456,1.163306c0.1748,0.49856 3.1464,0.914026 4.8944,0.99712c1.4858,0.083093 3.8456,0.415466 3.933,1.080213c0.0874,1.163306 -8.1282,0.664746 -8.1282,0.664746c0,0.332373 8.9148,-0.99712 9.0896,0c0.2622,1.412586 -9.2644,2.160426 -9.5266,2.492799c0,0 8.0408,-2.825172 8.303,-1.744959s-6.9046,3.739198 -9.2644,3.739198c1.8354,-0.332373 7.3416,-3.323732 7.5164,-2.575892s-4.7196,2.742079 -5.5062,2.908265c-4.37,0.581653 -8.74,0.74784 -13.11,0.415466" class="st18"/>
   <path stroke="null" id="svg_170" d="m100.510001,145.414711c0,0 -2.4472,1.163306 -6.2928,-0.415466c-4.1078,-1.661866 -4.9818,-3.656105 -4.9818,-3.656105s-22.1996,1.828053 -30.3278,60.491921l45.535401,5.317971c0,0 3.6708,-20.939511 3.059,-37.890544c-0.3496,-10.802129 -4.7196,-19.194552 -6.992,-23.847776" class="st21"/>
   <path stroke="null" id="svg_171" d="m87.137801,168.930114c0,0 6.992,22.269004 25.9578,27.088415c9.7888,2.575892 19.8398,3.988478 29.9782,4.237758l1.8354,-15.039887c0,0 -20.6264,-3.489918 -29.1042,-8.80789c-6.4676,-4.071572 -7.6912,-17.034126 -9.3518,-21.604257c-2.2724,-6.398184 -5.9432,-9.306449 -5.9432,-9.306449" class="st21"/>
   <path stroke="null" id="svg_172" d="m87.487401,141.841699c0,0 1.3984,4.071572 7.866,5.401064c4.7196,0.99712 6.555,-0.332373 6.555,-0.332373" class="st22"/>
   <path stroke="null" id="svg_173" d="m105.666602,193.52573c0,0 -17.2178,-7.56149 -18.1792,-28.999561" class="st22"/>
   <line stroke="null" id="svg_174" y2="200.090101" x2="138.791202" y1="184.551654" x1="141.063602" class="st22"/>
   <path stroke="null" id="svg_175" d="m347.415005,397.436682c-6.3802,-48.609579 9.0896,-66.391545 26.0452,-67.222478c8.0408,-0.415466 31.464,2.658986 3.1464,67.222478" class="st10"/>
   <path stroke="null" id="svg_176" d="m347.589805,397.436682c-0.437,-5.151784 -1.0488,-10.386662 -1.2236,-15.538447c-0.1748,-4.403945 -0.0874,-8.80789 0.1748,-13.211834c0.3496,-6.81365 1.8354,-13.627301 4.2826,-20.025485c1.748,-4.570131 4.5448,-8.724796 8.2156,-12.131621c2.9716,-2.658986 6.6424,-4.570131 10.6628,-5.401064c2.2724,-0.49856 4.6322,-0.664746 6.992,-0.415466c2.0102,0.166187 3.8456,0.74784 5.5936,1.661866c2.185,1.163306 3.933,2.908265 5.0692,5.068691c1.6606,3.157545 2.4472,6.647464 2.5346,10.137382c0.0874,5.733438 -0.5244,11.383782 -1.9228,16.951033c-2.0976,8.641703 -4.8944,17.117219 -8.3904,25.343456c-1.0488,2.492799 -2.0976,5.068691 -3.1464,7.56149c-0.0874,0.24928 0.3496,0.415466 0.437,0.166187c2.3598,-4.902505 4.37,-10.054289 6.2054,-15.12298c1.5732,-4.237758 2.9716,-8.475516 4.1952,-12.796368c1.8354,-6.148904 2.9716,-12.547088 3.3212,-18.945272c0.2622,-3.988478 -0.3496,-7.976957 -1.748,-11.799248c-0.9614,-2.492799 -2.622,-4.653225 -4.807,-6.315091c-1.748,-1.246399 -3.7582,-2.077332 -5.8558,-2.409706c-1.9228,-0.332373 -3.8456,-0.415466 -5.7684,-0.166187c-4.0204,0.415466 -7.9534,1.744959 -11.1872,4.071572c-3.8456,2.825172 -6.992,6.398184 -9.0896,10.552849c-2.8842,5.733438 -4.7196,11.882342 -5.4188,18.197432c-1.1362,8.890983 -1.2236,17.948152 -0.2622,26.839135c0.2622,2.658986 0.5244,5.234878 0.9614,7.81077c-0.1748,0.083093 0.1748,0.083093 0.1748,-0.083093l0,0z" class="st35"/>
   <line stroke="null" id="svg_177" y2="397.353589" x2="357.990405" y1="330.297298" x1="372.935805" class="st3"/>
   <path stroke="null" id="svg_178" d="m393.562206,397.852149c10.2258,-14.458234 30.7648,-47.446273 15.295,-59.079335c-8.4778,-6.398184 -24.035,1.495679 -32.338,15.62154c-7.9534,13.710394 -14.1588,28.251721 -18.5288,43.291608" class="st10"/>
   <path stroke="null" id="svg_179" d="m393.824406,398.018335c2.4472,-3.406825 4.7196,-6.81365 6.9046,-10.386662c2.622,-4.154665 5.0692,-8.475516 7.1668,-12.879461c2.185,-4.320851 3.933,-8.80789 5.3314,-13.461114c1.2236,-3.988478 1.748,-8.226236 1.3984,-12.380901c-0.2622,-3.573012 -1.9228,-6.896744 -4.5448,-9.472636c-1.3984,-1.329493 -3.1464,-2.243519 -4.9818,-2.825172c-2.0102,-0.49856 -4.0204,-0.581653 -6.0306,-0.24928c-4.807,0.74784 -9.2644,3.240639 -13.0226,6.231997c-2.185,1.744959 -4.1952,3.739198 -6.0306,5.899624c-1.9228,2.409706 -3.5834,4.902505 -5.0692,7.56149c-3.2338,5.733438 -6.118,11.549968 -8.74,17.532686c-2.7094,6.231997 -5.0692,12.630181 -7.1668,19.028365c-0.5244,1.661866 -1.0488,3.240639 -1.5732,4.902505c0,0.166187 0.0874,0.415466 0.3496,0.415466c0.1748,0 0.3496,-0.083093 0.437,-0.24928c1.9228,-6.398184 4.1078,-12.796368 6.6424,-19.028365c2.4472,-5.982717 5.1566,-11.882342 8.2156,-17.615779c2.7968,-5.317971 5.7684,-10.552849 10.051,-14.956794c3.496,-3.656105 7.7786,-6.564371 12.673,-8.30933c3.7582,-1.246399 8.1282,-1.578773 11.7116,0.49856c3.059,1.911146 5.244,4.985598 5.9432,8.392423c0.6992,3.905385 0.6118,7.976957 -0.437,11.799248c-1.0488,4.570131 -2.622,8.974076 -4.6322,13.211834c-2.0102,4.403945 -4.2826,8.724796 -6.8172,12.879461c-2.185,3.739198 -4.5448,7.31221 -6.992,10.885222c-0.5244,0.74784 -0.9614,1.412586 -1.4858,2.160426c0,0.332373 0.437,0.664746 0.6992,0.415466l0,0z" class="st35"/>
   <line stroke="null" id="svg_180" y2="398.599988" x2="378.092406" y1="337.443321" x1="405.361206" class="st3"/>
   <path stroke="null" id="svg_181" d="m384.297806,397.353589c13.4596,-18.197432 25.0838,-23.016843 36.096201,-21.604257c8.5652,1.163306 9.8762,9.555729 -8.1282,21.521164" class="st10"/>
   <path stroke="null" id="svg_182" d="m384.472606,397.436682c1.311,-1.495679 2.5346,-3.157545 3.7582,-4.653225c1.1362,-1.412586 2.3598,-2.742079 3.6708,-4.071572c2.185,-2.243519 4.4574,-4.403945 6.992,-6.315091c3.8456,-2.991359 8.3904,-5.068691 13.1974,-6.148904c2.0102,-0.415466 4.1078,-0.49856 6.2054,-0.415466c1.748,0 3.4086,0.332373 4.9818,0.99712c1.1362,0.49856 2.0976,1.412586 2.5346,2.575892c0.437,1.329493 0.3496,2.825172 -0.2622,4.071572c-0.874,1.994239 -2.0976,3.822292 -3.6708,5.401064c-2.2724,2.409706 -4.807,4.570131 -7.5164,6.481277l-2.3598,1.744959c-0.2622,0.166187 0.0874,0.49856 0.3496,0.415466c3.2338,-1.911146 6.2054,-4.237758 8.8274,-6.81365c1.8354,-1.661866 3.4086,-3.656105 4.5448,-5.816531c1.311,-2.575892 1.6606,-5.816531 -0.9614,-7.81077c-1.2236,-0.914026 -2.7094,-1.412586 -4.2826,-1.578773c-2.0976,-0.332373 -4.2826,-0.332373 -6.3802,-0.083093c-4.8944,0.581653 -9.5266,2.409706 -13.547,5.151784c-5.681,3.822292 -10.4006,8.890983 -14.5084,14.208954c-0.6992,0.830933 -1.311,1.661866 -1.8354,2.575892c-0.1748,0.083093 0.0874,0.24928 0.2622,0.083093l0,0z" class="st35"/>
   <line stroke="null" id="svg_183" y2="397.187402" x2="398.194406" y1="375.749331" x1="418.733406" class="st3"/>
   <line stroke="null" id="svg_184" y2="397.935242" x2="437.000006" y1="397.935242" x1="0" class="st36"/>
   <path stroke="null" id="svg_185" d="m45.622801,355.474567c-3.059,-9.805009 -10.925,-31.24308 2.0102,-58.663868c14.6832,19.942391 12.673,41.879022 8.3904,62.569253" class="st37"/>
   <path stroke="null" id="svg_186" d="m47.633001,296.810699c0,0 -4.9818,25.925109 1.748,60.658107" class="st38"/>
   <path stroke="null" id="svg_187" d="m50.342401,357.718086c0,0 2.7094,-46.36606 -2.7094,-60.907387" class="st38"/>
   <path stroke="null" id="svg_188" d="m52.090401,358.050459c0,0 7.866,-42.793048 -4.4574,-61.23976" class="st38"/>
   <path stroke="null" id="svg_189" d="m35.484401,361.955844c-6.118,-5.234878 -20.3642,-16.1201 -22.1996,-39.801689c17.7422,6.148904 25.8704,22.43519 31.2018,37.973637" class="st37"/>
   <path stroke="null" id="svg_190" d="m13.2848,322.154155c0,0 6.2054,19.942391 24.9964,40.134063" class="st38"/>
   <path stroke="null" id="svg_191" d="m41.252801,360.875631c0,0 -20.7138,-28.584094 -27.968,-38.638383" class="st38"/>
   <path stroke="null" id="svg_192" d="m42.651201,360.293978c0,0 -14.3336,-28.750281 -29.3664,-38.139824" class="st38"/>
   <path stroke="null" id="svg_193" d="m41.252801,356.139313c-4.8944,-6.81365 -19.0532,-27.337695 -14.7706,-49.191232c16.4312,11.716155 22.9862,34.982278 24.3846,50.686911" class="st37"/>
   <path stroke="null" id="svg_194" d="m26.5696,306.948081c0,0 6.118,32.738759 16.9556,49.357419" class="st38"/>
   <path stroke="null" id="svg_195" d="m45.710201,357.136433c0,0 -14.6832,-43.707074 -19.228,-50.188352" class="st38"/>
   <path stroke="null" id="svg_196" d="m48.681801,357.468806c0,0 -8.8274,-39.469316 -22.1122,-50.520725" class="st38"/>
   <path stroke="null" id="svg_197" d="m64.763401,355.723847c4.1952,-8.80789 14.3336,-27.919348 7.3416,-56.254162c-15.295,15.12298 -17.3926,37.724357 -16.9556,58.248402" class="st37"/>
   <path stroke="null" id="svg_198" d="m72.105001,299.386591l-12.673,57.334375" class="st38"/>
   <path stroke="null" id="svg_199" d="m72.105001,299.386591c0,0 1.6606,25.675829 -9.614,57.583655" class="st38"/>
   <path stroke="null" id="svg_200" d="m56.984801,357.053339c0,0 3.1464,-38.55529 15.1202,-57.666748" class="st38"/>
   <path stroke="null" id="svg_201" d="m65.200401,364.947203c5.4188,-5.899624 19.228,-20.607138 20.3642,-40.383343c-15.9942,8.890983 -22.724,25.177269 -26.9192,40.383343" class="st37"/>
   <path stroke="null" id="svg_202" d="m85.564601,324.646953c0,0 -9.9636,25.011083 -22.1996,39.469316" class="st38"/>
   <path stroke="null" id="svg_203" d="m60.393401,364.11627c0,0 14.9454,-29.99668 25.1712,-39.469316" class="st38"/>
   <path stroke="null" id="svg_204" d="m77.261601,354.061981l0,9.306449c0,20.690231 -10.488,33.985159 -10.488,33.985159l-32.6002,0c0,0 -10.5754,-13.294928 -10.5754,-33.985159l0,-9.306449l53.663601,0z" class="st19"/>
  </g>
 </g>
</svg>