<svg xmlns:x="http://ns.adobe.com/Extensibility/1.0/" xmlns:i="http://ns.adobe.com/AdobeIllustrator/10.0/" xmlns:graph="http://ns.adobe.com/Graphs/1.0/" xmlns="http://www.w3.org/2000/svg" xmlns:xlink="http://www.w3.org/1999/xlink" version="1.1" style="enable-background:new 0 0 500 479.8;" xml:space="preserve" width="500" height="479.79998779296875"><rect id="backgroundrect" width="100%" height="100%" x="0" y="0" fill="none" stroke="none"/>
<style type="text/css">
	.st0{fill:none;stroke:#ADBBF9;stroke-linejoin:round;stroke-dasharray:3.5,3.5;}
	.st1{fill:#E4E9F9;}
	.st2{fill:#FFFFFF;stroke:#ADBBF9;stroke-linejoin:round;}
	.st3{fill:none;stroke:#ADBBF9;stroke-linejoin:round;}
	.st4{fill:#00206A;}
	.st5{fill:#0948B3;}
	.st6{fill:none;stroke:#EBEBEB;stroke-miterlimit:10;}
	.st7{clip-path:url(#SVGID_2_);}
	.st8{fill:url(#SVGID_3_);}
	.st9{fill:url(#SVGID_4_);}
	.st10{fill:#FFFFFF;}
	.st11{fill:none;stroke:#4643BF;stroke-miterlimit:10;}
	.st12{fill:#D3DBF4;}
	.st13{fill:none;stroke:#FFFFFF;stroke-miterlimit:10;}
	.st14{fill:#E3EAFC;}
	.st15{fill:#F0F1FF;}
	.st16{fill:#C2CFEF;}
	.st17{fill:none;stroke:#D3DBF4;stroke-miterlimit:10;}
	.st18{fill:#FFCBBD;}
	.st19{fill:#E5EAF9;}
	.st20{fill:none;stroke:#121649;stroke-width:0.75;stroke-miterlimit:10;}
	.st21{fill:#F1F1F1;}
	.st22{fill:none;stroke:#1A3987;stroke-width:0.75;stroke-miterlimit:10;}
	.st23{fill:#212237;}
	.st24{fill:none;stroke:#E88872;stroke-width:0.5;stroke-linejoin:round;}
	.st25{fill:#28364C;}
	.st26{fill:none;stroke:#28364C;stroke-width:0.75;stroke-miterlimit:10;}
	.st27{fill:#EE5050;}
	.st28{fill:none;stroke:#A52F2D;stroke-width:0.75;stroke-miterlimit:10;}
	.st29{fill:none;stroke:#5565AA;stroke-width:0.75;stroke-miterlimit:10;}
	.st30{fill-rule:evenodd;clip-rule:evenodd;fill:#FFCBBB;}
	.st31{fill:none;stroke:#28364C;stroke-width:0.5;stroke-linecap:round;stroke-linejoin:round;}
	.st32{fill:none;stroke:#EF977F;stroke-miterlimit:10;}
	.st33{fill:#14122D;}
	.st34{fill:#FFCBBB;}
	.st35{fill:#ADBBF9;}
	.st36{fill:none;stroke:#E5EAF9;stroke-miterlimit:10;}
	.st37{fill:#FFFFFF;stroke:#C5C8EF;stroke-linejoin:round;}
	.st38{fill:none;stroke:#C5C8EF;stroke-linejoin:round;}
</style>
<metadata>
	<sfw xmlns="http://ns.adobe.com/SaveForWeb/1.0/">
		<slices/>
		<sliceSourceBounds bottomLeftOrigin="true" height="479.8" width="500" x="0" y="0"/>
	</sfw>
</metadata>

<g class="currentLayer" style=""><title>Layer 1</title><g id="Screen" class="selected">
	<path class="st0" d="M168.72886419296265,337.6802779443278 c-5.436818957328796,-18.65391331911087 -20.809893250465393,-32.995866775512695 -40.77614217996597,-33.46455806493759 c-11.623543977737427,-0.2812147736549378 -22.778396666049957,4.686912894248962 -32.71465200185776,10.311208367347717 c-13.310832619667053,7.6865371465682975 -29.058859944343567,16.872886419296265 -44.99436378479004,14.529429972171783 c-10.217470109462738,-1.499812126159668 -22.30970537662506,-7.217845857143402 -24.74690008163452,-19.028866350650787 c-2.5309329628944397,-12.56092655658722 7.592798888683319,-21.09110802412033 18.372698545455933,-26.15297394990921 c9.280087530612946,-4.311959862709045 22.30970537662506,-14.623168230056763 26.434188723564148,-24.465685307979584 c16.497933387756348,-39.182591795921326 -29.71502774953842,-83.89574080705643 -16.591671645641327,-128.51515156030655 c13.68578565120697,-46.681652426719666 76.771633207798,-54.55566608905792 108.54890263080597,-22.872134923934937 c3.093362510204315,2.999624252319336 5.905510246753693,6.28046327829361 8.530181467533112,9.748778820037842 c6.467939794063568,8.62391972541809 10.311208367347717,20.341201961040497 19.310081124305725,26.715403497219086 c11.623543977737427,8.342704951763153 26.809141755104065,5.718033730983734 39.370068311691284,0.749906063079834 c23.996994018554688,-9.467564046382904 30.371195554733276,-15.748027324676514 53.80576002597809,-25.96549743413925 c16.872886419296265,-7.311584115028381 37.68277966976166,-13.873262166976929 56.617907762527466,-7.405322372913361 c13.592047393321991,4.686912894248962 28.59016865491867,13.123356103897095 36.18296754360199,25.215591371059418 c14.154476940631866,22.684658408164978 7.7802754044532785,47.05660545825958 30.08998078107834,79.20882791280746 c10.123731851577759,14.623168230056763 26.24671220779419,18.65391331911087 38.99511528015137,29.246336460113525 c33.27708154916763,27.27783304452896 22.122228860855103,84.9268616437912 -14.154476940631866,104.61189579963684 c-29.8087660074234,16.21671861410141 -66.46042484045029,12.46718829870224 -98.70638555288315,8.342704951763153 c-2.4371947050094604,-0.2812147736549378 -4.9681276679039,-0.6561678051948548 -7.405322372913361,-1.0311208367347717 " id="svg_1"/>
	<path class="st1" d="M404.3868445158005,125.45686209273481 c5.718033730983734,-6.561678051948547 9.842517077922821,-14.248215198516846 11.998497009277344,-22.684658408164978 l-11.061114430427551,-3.9370068311691284 c0.8436443209648132,-3.74953031539917 1.2185973525047302,-7.6865371465682975 1.0311208367347717,-11.529805719852448 l11.623543977737427,-1.7810268998146057 c-0.5624295473098756,-8.62391972541809 -3.1871007680892944,-17.060362935066223 -7.592798888683319,-24.559423565864563 l-10.592423141002655,5.061865925788879 c-2.0622416734695435,-3.2808390259742737 -4.499436378479004,-6.28046327829361 -7.405322372913361,-8.905134499073029 l6.936631083488464,-9.467564046382904 c-6.467939794063568,-5.718033730983734 -14.248215198516846,-9.842517077922821 -22.684658408164978,-11.998497009277344 l-3.9370068311691284,11.061114430427551 c-3.74953031539917,-0.8436443209648132 -7.6865371465682975,-1.2185973525047302 -11.529805719852448,-1.0311208367347717 l-1.7810268998146057,-11.623543977737427 c-8.62391972541809,0.5624295473098756 -17.060362935066223,3.093362510204315 -24.559423565864563,7.49906063079834 l5.061865925788879,10.592423141002655 c-3.2808390259742737,2.0622416734695435 -6.28046327829361,4.593174636363983 -8.998872756958008,7.405322372913361 l-9.467564046382904,-6.936631083488464 c-5.718033730983734,6.467939794063568 -9.842517077922821,14.248215198516846 -11.998497009277344,22.684658408164978 l11.061114430427551,3.9370068311691284 c-0.8436443209648132,3.74953031539917 -1.2185973525047302,7.6865371465682975 -1.0311208367347717,11.529805719852448 l-11.623543977737427,1.7810268998146057 c0.5624295473098756,8.62391972541809 3.1871007680892944,17.060362935066223 7.592798888683319,24.559423565864563 l10.592423141002655,-5.061865925788879 c2.0622416734695435,3.2808390259742737 4.499436378479004,6.28046327829361 7.405322372913361,8.905134499073029 l-6.936631083488464,9.467564046382904 c6.561678051948547,5.718033730983734 14.248215198516846,9.842517077922821 22.684658408164978,11.998497009277344 l3.9370068311691284,-11.061114430427551 c3.74953031539917,0.8436443209648132 7.6865371465682975,1.2185973525047302 11.529805719852448,1.0311208367347717 l1.874765157699585,11.623543977737427 c8.62391972541809,-0.5624295473098756 17.060362935066223,-3.1871007680892944 24.559423565864563,-7.592798888683319 l-5.061865925788879,-10.592423141002655 c3.2808390259742737,-2.0622416734695435 6.28046327829361,-4.499436378479004 8.905134499073029,-7.405322372913361 L404.3868445158005,125.45686209273481 zM350.0186549425125,113.36462682557249 c-13.498309135437012,-7.124107599258423 -18.65391331911087,-23.71577924489975 -11.529805719852448,-37.21408838033676 s23.71577924489975,-18.65391331911087 37.21408838033676,-11.529805719852448 s18.65391331911087,23.71577924489975 11.529805719852448,37.21408838033676 c0,0 0,0 0,0 C380.10863572359085,115.23939198327207 363.5169640779495,120.39499616694593 350.0186549425125,113.36462682557249 zM353.7681852579117,106.33425748419904 c-9.561302304267883,-5.061865925788879 -13.217094361782074,-16.872886419296265 -8.155228435993195,-26.434188723564148 s16.872886419296265,-13.217094361782074 26.434188723564148,-8.155228435993195 c9.561302304267883,5.061865925788879 13.217094361782074,16.872886419296265 8.155228435993195,26.434188723564148 c0,0 0,0 0,0 C375.14050805568695,107.74033135247373 363.32948756217957,111.39612340998792 353.7681852579117,106.33425748419904 C353.7681852579117,106.33425748419904 353.7681852579117,106.33425748419904 353.7681852579117,106.33425748419904 z" id="svg_2"/>
	<path class="st1" d="M152.60588383674622,152.07852733206892 c3.093362510204315,-4.405698120594025 5.155604183673859,-9.373825788497925 5.999248504638672,-14.716906487941742 l-7.030369341373444,-1.7810268998146057 c0.2812147736549378,-2.4371947050094604 0.2812147736549378,-4.780651152133942 -0.09373825788497925,-7.217845857143402 l7.030369341373444,-1.874765157699585 c-0.8436443209648132,-5.343080699443817 -2.999624252319336,-10.311208367347717 -6.18672502040863,-14.623168230056763 l-6.28046327829361,3.74953031539917 c-1.499812126159668,-1.874765157699585 -3.1871007680892944,-3.5620537996292114 -5.061865925788879,-5.061865925788879 l3.6557920575141907,-6.28046327829361 c-4.405698120594025,-3.093362510204315 -9.373825788497925,-5.155604183673859 -14.716906487941742,-5.999248504638672 l-1.7810268998146057,7.030369341373444 c-2.343456447124481,-0.2812147736549378 -4.780651152133942,-0.2812147736549378 -7.124107599258423,0 l-1.874765157699585,-7.030369341373444 c-5.343080699443817,0.8436443209648132 -10.311208367347717,2.999624252319336 -14.623168230056763,6.18672502040863 l3.74953031539917,6.28046327829361 c-1.874765157699585,1.499812126159668 -3.5620537996292114,3.1871007680892944 -5.061865925788879,5.061865925788879 l-6.28046327829361,-3.6557920575141907 c-3.093362510204315,4.405698120594025 -5.155604183673859,9.373825788497925 -5.999248504638672,14.716906487941742 l7.030369341373444,1.6872886419296265 c-0.2812147736549378,2.4371947050094604 -0.2812147736549378,4.780651152133942 0.09373825788497925,7.217845857143402 l-7.030369341373444,1.7810268998146057 c0.8436443209648132,5.343080699443817 2.999624252319336,10.311208367347717 6.18672502040863,14.623168230056763 l6.28046327829361,-3.74953031539917 c1.499812126159668,1.874765157699585 3.1871007680892944,3.5620537996292114 5.061865925788879,5.061865925788879 l-3.6557920575141907,6.28046327829361 c2.1559799313545227,1.5935503840446474 4.499436378479004,2.9058859944343567 7.030369341373444,3.8432685732841487 c2.4371947050094604,1.0311208367347717 5.061865925788879,1.6872886419296265 7.6865371465682975,2.1559799313545227 l1.7810268998146057,-7.030369341373444 c2.343456447124481,0.2812147736549378 4.780651152133942,0.2812147736549378 7.124107599258423,-0.09373825788497925 l1.874765157699585,7.030369341373444 c5.343080699443817,-0.8436443209648132 10.311208367347717,-2.999624252319336 14.623168230056763,-6.18672502040863 l-3.74953031539917,-6.18672502040863 c1.874765157699585,-1.499812126159668 3.5620537996292114,-3.1871007680892944 5.061865925788879,-5.061865925788879 L152.60588383674622,152.07852733206892 zM118.39141970872879,148.0477822430148 c-8.71765798330307,-3.5620537996292114 -12.935879588127136,-13.498309135437012 -9.373825788497925,-22.215967118740082 s13.498309135437012,-12.935879588127136 22.215967118740082,-9.373825788497925 s12.935879588127136,13.498309135437012 9.373825788497925,22.215967118740082 c0,0 0,0 0,0 C137.04533302783966,147.39161443781995 127.10907769203186,151.60983604264402 118.39141970872879,148.0477822430148 zM120.26618486642839,143.45460760665082 c-6.28046327829361,-2.5309329628944397 -9.280087530612946,-9.655040562152863 -6.749154567718506,-15.841765582561491 s9.655040562152863,-9.280087530612946 15.841765582561491,-6.749154567718506 c6.28046327829361,2.5309329628944397 9.280087530612946,9.655040562152863 6.749154567718506,15.841765582561491 c0,0 0,0 0,0.09373825788497925 l0,0 C133.57701748609543,142.98591631722593 126.452909886837,145.98554056954526 120.26618486642839,143.45460760665082 z" id="svg_3"/>
	<path class="st1" d="M180.633622944355,87.1179146177783 c1.2185973525047302,-1.4060738682746887 2.343456447124481,-2.9058859944343567 3.1871007680892944,-4.593174636363983 c0.8436443209648132,-1.6872886419296265 1.499812126159668,-3.468315541744232 1.9685034155845642,-5.249342441558838 l-4.780651152133942,-1.6872886419296265 c0.374953031539917,-1.5935503840446474 0.5624295473098756,-3.2808390259742737 0.46869128942489624,-4.9681276679039 l5.061865925788879,-0.749906063079834 c-0.2812147736549378,-3.74953031539917 -1.4060738682746887,-7.311584115028381 -3.2808390259742737,-10.592423141002655 l-4.593174636363983,2.1559799313545227 c-0.9373825788497925,-1.4060738682746887 -1.9685034155845642,-2.718409478664398 -3.1871007680892944,-3.9370068311691284 l2.999624252319336,-4.124483346939087 c-2.8121477365493774,-2.4371947050094604 -6.18672502040863,-4.218221604824066 -9.842517077922821,-5.155604183673859 l-1.6872886419296265,4.780651152133942 c-1.5935503840446474,-0.374953031539917 -3.2808390259742737,-0.5624295473098756 -4.9681276679039,-0.46869128942489624 l-0.749906063079834,-5.061865925788879 c-3.74953031539917,0.2812147736549378 -7.405322372913361,1.4060738682746887 -10.686161398887634,3.2808390259742737 l2.1559799313545227,4.593174636363983 c-1.4060738682746887,0.8436443209648132 -2.718409478664398,1.9685034155845642 -3.8432685732841487,3.1871007680892944 l-4.124483346939087,-2.999624252319336 c-1.2185973525047302,1.4060738682746887 -2.249718189239502,2.999624252319336 -3.1871007680892944,4.593174636363983 c-0.8436443209648132,1.6872886419296265 -1.5935503840446474,3.468315541744232 -2.0622416734695435,5.249342441558838 l4.874389410018921,1.6872886419296265 c-0.374953031539917,1.5935503840446474 -0.5624295473098756,3.2808390259742737 -0.46869128942489624,4.9681276679039 l-5.061865925788879,0.749906063079834 c0.2812147736549378,3.74953031539917 1.4060738682746887,7.311584115028381 3.2808390259742737,10.592423141002655 l4.593174636363983,-2.1559799313545227 c0.8436443209648132,1.4060738682746887 1.9685034155845642,2.718409478664398 3.1871007680892944,3.8432685732841487 l-3.093362510204315,4.124483346939087 c2.8121477365493774,2.5309329628944397 6.18672502040863,4.311959862709045 9.842517077922821,5.249342441558838 l1.6872886419296265,-4.874389410018921 c1.5935503840446474,0.374953031539917 3.2808390259742737,0.5624295473098756 4.9681276679039,0.46869128942489624 l0.749906063079834,5.061865925788879 c3.74953031539917,-0.2812147736549378 7.311584115028381,-1.4060738682746887 10.592423141002655,-3.2808390259742737 L172.47839450836182,87.21165287566328 c1.4060738682746887,-0.8436443209648132 2.718409478664398,-1.9685034155845642 3.8432685732841487,-3.1871007680892944 L180.633622944355,87.1179146177783 zM158.69887059926987,78.9626861817851 c-4.218221604824066,-2.249718189239502 -5.811771988868713,-7.405322372913361 -3.5620537996292114,-11.623543977737427 c2.249718189239502,-4.218221604824066 7.405322372913361,-5.811771988868713 11.623543977737427,-3.5620537996292114 c4.218221604824066,2.249718189239502 5.811771988868713,7.405322372913361 3.5620537996292114,11.623543977737427 l0,0 C168.0726963877678,79.52511572909498 162.91709220409393,81.11866611313962 158.69887059926987,78.9626861817851 z" id="svg_4"/>
	<path class="st2" d="M84.08321732282639,158.17151409459257 c0,-0.6561678051948548 -0.09373825788497925,-1.3123356103897095 -0.1874765157699585,-1.9685034155845642 c-0.6561678051948548,-5.811771988868713 -4.593174636363983,-5.249342441558838 -7.124107599258423,-5.061865925788879 s-5.530557215213776,0.2812147736549378 -6.749154567718506,-2.4371947050094604 c-0.5624295473098756,-1.124859094619751 -0.46869128942489624,-2.624671220779419 -0.8436443209648132,-3.8432685732841487 c-0.6561678051948548,-2.624671220779419 -2.999624252319336,-4.405698120594025 -5.624295473098755,-4.499436378479004 c-2.4371947050094604,0 -4.686912894248962,1.4060738682746887 -6.655416309833527,3.093362510204315 c-1.0311208367347717,0.8436443209648132 -2.1559799313545227,1.9685034155845642 -3.374577283859253,1.5935503840446474 c-0.8436443209648132,-0.374953031539917 -1.499812126159668,-0.9373825788497925 -1.874765157699585,-1.7810268998146057 c-2.8121477365493774,-4.593174636363983 -2.8121477365493774,-11.342329204082489 -5.905510246753693,-15.654289066791534 c-3.468315541744232,-4.780651152133942 -9.842517077922821,-4.874389410018921 -14.154476940631866,-1.4060738682746887 s-6.842892825603485,9.655040562152863 -7.967751920223236,15.935503840446472 c-0.374953031539917,2.0622416734695435 -0.6561678051948548,4.218221604824066 -1.9685034155845642,5.624295473098755 c-1.7810268998146057,1.9685034155845642 -4.499436378479004,1.3123356103897095 -6.936631083488464,1.0311208367347717 c-2.8121477365493774,-0.46869128942489624 -5.718033730983734,0.2812147736549378 -7.967751920223236,2.1559799313545227 c-1.9685034155845642,1.874765157699585 -2.999624252319336,4.593174636363983 -2.8121477365493774,7.311584115028381 h80.14621049165726 V158.17151409459257 z" id="svg_5"/>
	<path class="st2" d="M227.97144317626953,61.058678925754066 h78.92761313915253 c0,0 -3.1871007680892944,-3.6557920575141907 -6.749154567718506,-4.9681276679039 c-4.499436378479004,-1.5935503840446474 -6.374201536178589,2.8121477365493774 -9.186349272727966,-2.9058859944343567 c-1.5935503840446474,-3.1871007680892944 -2.718409478664398,-7.405322372913361 -6.936631083488464,-8.530181467533112 c-6.561678051948547,-1.6872886419296265 -8.248966693878174,3.74953031539917 -11.342329204082489,2.249718189239502 c-2.718409478664398,-1.3123356103897095 -2.624671220779419,-6.467939794063568 -5.436818957328796,-10.686161398887634 s-9.280087530612946,-6.749154567718506 -13.77952390909195,-4.593174636363983 c-8.248966693878174,4.030745089054108 -7.124107599258423,10.404946625232697 -9.842517077922821,12.46718829870224 s-8.71765798330307,-5.249342441558838 -15.560550808906557,2.624671220779419 C223.28453028202057,52.15354442668104 227.97144317626953,61.058678925754066 227.97144317626953,61.058678925754066 z" id="svg_6"/>
	<path class="st3" d="M310.2736335992813,33.96832239699506 c0,1.874765157699585 -1.5935503840446474,3.468315541744232 -3.468315541744232,3.468315541744232 s-3.468315541744232,-1.5935503840446474 -3.468315541744232,-3.468315541744232 c0,0 0,0 0,0 c0,-1.874765157699585 1.499812126159668,-3.468315541744232 3.374577283859253,-3.468315541744232 c0,0 0.09373825788497925,0 0.09373825788497925,0 l0,0 C308.68008321523666,30.50000685525083 310.2736335992813,31.9998189814105 310.2736335992813,33.96832239699506 C310.2736335992813,33.96832239699506 310.2736335992813,33.96832239699506 310.2736335992813,33.96832239699506 z" id="svg_7"/>
	<path class="st3" d="M373.1720046401024,169.51384329867506 c0,1.874765157699585 -1.5935503840446474,3.468315541744232 -3.468315541744232,3.468315541744232 c-1.874765157699585,0 -3.468315541744232,-1.5935503840446474 -3.468315541744232,-3.468315541744232 c0,-1.874765157699585 1.5935503840446474,-3.468315541744232 3.468315541744232,-3.468315541744232 l0,0 C371.57845425605774,166.04552775693082 373.1720046401024,167.5453398830905 373.1720046401024,169.51384329867506 C373.1720046401024,169.51384329867506 373.1720046401024,169.51384329867506 373.1720046401024,169.51384329867506 z" id="svg_8"/>
	<path class="st3" d="M86.14545899629593,80.74371308159971 c0,1.874765157699585 -1.5935503840446474,3.468315541744232 -3.468315541744232,3.468315541744232 c-1.874765157699585,0 -3.468315541744232,-1.5935503840446474 -3.468315541744232,-3.468315541744232 s1.5935503840446474,-3.468315541744232 3.468315541744232,-3.468315541744232 l0,0 l0,0 C84.55190861225128,77.27539753985548 86.14545899629593,78.86894792390012 86.14545899629593,80.74371308159971 z" id="svg_9"/>
	<path class="st3" d="M127.10907769203186,64.9956857569232 c0,1.3123356103897095 -1.0311208367347717,2.343456447124481 -2.343456447124481,2.343456447124481 s-2.343456447124481,-1.0311208367347717 -2.343456447124481,-2.343456447124481 s1.0311208367347717,-2.343456447124481 2.343456447124481,-2.343456447124481 l0,0 C126.07795685529709,62.65222930979871 127.10907769203186,63.683350146533485 127.10907769203186,64.9956857569232 z" id="svg_10"/>
	<circle class="st3" cx="339.51998150205327" cy="153.67207199478435" r="2.343456447124481" id="svg_11"/>
	<path class="st3" d="M434.38308703899384,94.52323699069166 c0,1.3123356103897095 -1.0311208367347717,2.343456447124481 -2.343456447124481,2.343456447124481 s-2.343456447124481,-1.0311208367347717 -2.343456447124481,-2.343456447124481 s1.0311208367347717,-2.343456447124481 2.343456447124481,-2.343456447124481 c1.2185973525047302,0 2.343456447124481,0.9373825788497925 2.343456447124481,2.1559799313545227 C434.38308703899384,94.42949873280668 434.38308703899384,94.42949873280668 434.38308703899384,94.52323699069166 z" id="svg_12"/>
	<path class="st3" d="M429.41495937108994,266.8141549832835 c0,1.3123356103897095 -1.0311208367347717,2.343456447124481 -2.343456447124481,2.343456447124481 s-2.343456447124481,-1.0311208367347717 -2.343456447124481,-2.343456447124481 s1.0311208367347717,-2.343456447124481 2.343456447124481,-2.343456447124481 C428.38383853435516,264.47069853615903 429.41495937108994,265.5018193728938 429.41495937108994,266.8141549832835 C429.41495937108994,266.8141549832835 429.41495937108994,266.8141549832835 429.41495937108994,266.8141549832835 z" id="svg_13"/>
	<path class="st3" d="M64.1169683933258,289.4050751335635 c0,1.3123356103897095 -1.0311208367347717,2.343456447124481 -2.343456447124481,2.343456447124481 s-2.343456447124481,-1.0311208367347717 -2.343456447124481,-2.343456447124481 s1.0311208367347717,-2.343456447124481 2.343456447124481,-2.343456447124481 l0,0 C63.085847556591034,287.06161868643903 64.1169683933258,288.0927395231738 64.1169683933258,289.4050751335635 C64.1169683933258,289.4050751335635 64.1169683933258,289.4050751335635 64.1169683933258,289.4050751335635 z" id="svg_14"/>
	<path class="st3" d="M71.14733773469925,181.88729333949232 c0,1.3123356103897095 -1.0311208367347717,2.343456447124481 -2.343456447124481,2.343456447124481 s-2.343456447124481,-1.0311208367347717 -2.343456447124481,-2.343456447124481 s1.0311208367347717,-2.343456447124481 2.343456447124481,-2.343456447124481 l0,0 C70.11621689796448,179.54383689236784 71.14733773469925,180.5749577291026 71.14733773469925,181.88729333949232 C71.14733773469925,181.88729333949232 71.14733773469925,181.88729333949232 71.14733773469925,181.88729333949232 z" id="svg_15"/>
	<path class="st1" d="M37.0266118645668,301.02861911130094 h3.1871007680892944 c0.5624295473098756,0 1.0311208367347717,0.46869128942489624 1.0311208367347717,1.0311208367347717 v3.1871007680892944 c0,0.5624295473098756 -0.46869128942489624,1.0311208367347717 -1.0311208367347717,1.0311208367347717 h-3.1871007680892944 c-0.5624295473098756,0 -1.0311208367347717,-0.46869128942489624 -1.0311208367347717,-1.0311208367347717 v-3.1871007680892944 C35.99549102783203,301.49731040072584 36.46418231725693,301.02861911130094 37.0266118645668,301.02861911130094 z" id="svg_16"/>
	<path class="st1" d="M31.58979290723801,109.33388173651838 h3.1871007680892944 c0.5624295473098756,0 1.0311208367347717,0.46869128942489624 1.0311208367347717,1.0311208367347717 v3.1871007680892944 c0,0.5624295473098756 -0.46869128942489624,1.0311208367347717 -1.0311208367347717,1.0311208367347717 h-3.1871007680892944 c-0.5624295473098756,0 -1.0311208367347717,-0.46869128942489624 -1.0311208367347717,-1.0311208367347717 v-3.1871007680892944 C30.558672070503235,109.80257302594327 31.02736335992813,109.33388173651838 31.58979290723801,109.33388173651838 z" id="svg_17"/>
	<path class="st1" d="M433.35196620225906,67.33914220404768 h5.999248504638672 c1.0311208367347717,0 1.9685034155845642,0.8436443209648132 1.9685034155845642,1.874765157699585 c0,0 0,0.09373825788497925 0,0.09373825788497925 v6.092986762523651 c0,1.0311208367347717 -0.8436443209648132,1.9685034155845642 -1.874765157699585,1.9685034155845642 c0,0 -0.09373825788497925,0 -0.09373825788497925,0 h-5.999248504638672 c-1.0311208367347717,0 -1.9685034155845642,-0.8436443209648132 -1.9685034155845642,-1.874765157699585 c0,0 0,-0.09373825788497925 0,-0.09373825788497925 v-6.092986762523651 C431.3834627866745,68.18278652501249 432.2271071076393,67.33914220404768 433.35196620225906,67.33914220404768 z" id="svg_18"/>
	<path class="st1" d="M379.73368269205093,222.94465029311323 h3.1871007680892944 c0.5624295473098756,0 1.0311208367347717,0.46869128942489624 1.0311208367347717,1.0311208367347717 v3.1871007680892944 c0,0.5624295473098756 -0.46869128942489624,1.0311208367347717 -1.0311208367347717,1.0311208367347717 h-3.1871007680892944 c-0.5624295473098756,0 -1.0311208367347717,-0.46869128942489624 -1.0311208367347717,-1.0311208367347717 v-3.1871007680892944 C378.70256185531616,223.41334158253812 379.17125314474106,222.94465029311323 379.73368269205093,222.94465029311323 z" id="svg_19"/>
	<path class="st2" d="M311.2110161781311,190.88616609645032 c0,-0.46869128942489624 0.09373825788497925,-0.9373825788497925 0.09373825788497925,-1.4060738682746887 c0.5624295473098756,-4.124483346939087 3.74953031539917,-3.8432685732841487 5.811771988868713,-3.6557920575141907 s4.593174636363983,0.1874765157699585 5.530557215213776,-1.7810268998146057 c0.2812147736549378,-0.9373825788497925 0.5624295473098756,-1.874765157699585 0.6561678051948548,-2.8121477365493774 c0.749906063079834,-1.9685034155845642 2.624671220779419,-3.2808390259742737 4.686912894248962,-3.2808390259742737 c1.9685034155845642,0.09373825788497925 3.9370068311691284,0.9373825788497925 5.436818957328796,2.249718189239502 c5.249342441558838,3.9370068311691284 6.749154567718506,-6.467939794063568 9.186349272727966,-9.467564046382904 c2.8121477365493774,-3.468315541744232 8.061490178108215,-5.343080699443817 11.623543977737427,-2.9058859944343567 s5.624295473098755,6.936631083488464 6.561678051948547,11.436067461967468 c0.2812147736549378,1.499812126159668 0.374953031539917,3.2808390259742737 1.5935503840446474,4.030745089054108 c3.468315541744232,2.343456447124481 7.874013662338257,-2.249718189239502 12.092235267162323,1.3123356103897095 c1.499812126159668,1.2185973525047302 1.7810268998146057,4.218221604824066 1.5935503840446474,6.18672502040863 L311.2110161781311,190.88616609645032 z" id="svg_20"/>
	<path class="st4" d="M154.66812551021576,77.55661231351041 h164.51064258813858 c4.780651152133942,0 8.71765798330307,3.8432685732841487 8.71765798330307,8.71765798330307 c0,0 0,0 0,0 v309.61746579408646 c0,4.780651152133942 -3.8432685732841487,8.71765798330307 -8.71765798330307,8.71765798330307 c0,0 0,0 0,0 H154.66812551021576 c-4.780651152133942,0 -8.71765798330307,-3.8432685732841487 -8.71765798330307,-8.71765798330307 c0,0 0,0 0,0 V86.27427029681348 C145.9504675269127,81.49361914467954 149.88747435808182,77.55661231351041 154.66812551021576,77.55661231351041 z" id="svg_21"/>
	<path class="st5" d="M319.17876809835434,78.02530360293531 c4.593174636363983,0 8.248966693878174,3.6557920575141907 8.248966693878174,8.248966693878174 v309.5237275362015 c0,4.593174636363983 -3.6557920575141907,8.248966693878174 -8.248966693878174,8.248966693878174 H154.66812551021576 c-4.593174636363983,0 -8.248966693878174,-3.6557920575141907 -8.248966693878174,-8.248966693878174 V86.27427029681348 c0,-4.593174636363983 3.6557920575141907,-8.248966693878174 8.248966693878174,-8.248966693878174 H319.17876809835434 M319.17876809835434,77.08792102408552 H154.66812551021576 c-5.061865925788879,0 -9.186349272727966,4.124483346939087 -9.186349272727966,9.186349272727966 l0,0 v309.5237275362015 c0,5.061865925788879 4.124483346939087,9.186349272727966 9.186349272727966,9.186349272727966 h164.51064258813858 c5.061865925788879,0 9.186349272727966,-4.124483346939087 9.186349272727966,-9.186349272727966 V86.27427029681348 C328.3651173710823,81.2124043710246 324.2406340241432,77.08792102408552 319.17876809835434,77.08792102408552 z" id="svg_22"/>
	<path class="st6" d="M245.3130208849907,390.0799641020312 c0,4.593174636363983 -3.74953031539917,8.342704951763153 -8.342704951763153,8.342704951763153 c-4.593174636363983,0 -8.342704951763153,-3.74953031539917 -8.342704951763153,-8.342704951763153 c0,-4.593174636363983 3.74953031539917,-8.342704951763153 8.342704951763153,-8.342704951763153 c0,0 0,0 0,0 l0,0 C241.56349056959152,381.7372591502681 245.3130208849907,385.48678946566724 245.3130208849907,390.0799641020312 z" id="svg_23"/>
	<g id="svg_24">
		<defs transform="translate(0,479.6000061035156) scale(0.9373825788497925) translate(0,-479.6000061035156) ">
			<path id="SVGID_1_" d="M165,50.2h175.5c5.4,0,9.8,4.4,9.8,9.8v330.3c0,5.4-4.4,9.8-9.8,9.8H165c-5.4,0-9.8-4.4-9.8-9.8V60     C155.2,54.6,159.6,50.2,165,50.2z"/>
		</defs>
		<clipPath id="SVGID_2_" transform="translate(0,479.6000061035156) scale(0.9373825788497925) translate(0,-479.6000061035156) ">
			<use xlink:href="#SVGID_1_" style="overflow:visible;" id="svg_25"/>
		</clipPath>
		<g class="st7" id="svg_26">
			
				<linearGradient id="SVGID_3_" gradientUnits="userSpaceOnUse" x1="100.92500305175781" y1="-160.9250030517578" x2="393.5249938964844" y2="131.6750030517578" gradientTransform="matrix(1 0 0 -1 0 196)" transform="translate(0,479.6000061035156) scale(0.9373825788497925) translate(0,-479.6000061035156) ">
				<stop offset="0.27" style="stop-color:#FFFFFF;stop-opacity:0.1"/>
				<stop offset="1" style="stop-color:#FFFFFF;stop-opacity:0.3"/>
			</linearGradient>
			<polygon class="st8" points="280.27739107608795,41.56112146446992 143.41953456401825,413.42079031539106 183.16455018592023,413.42079031539106 320.11615067720413,41.56112146446992 " id="svg_27"/>
			
				<linearGradient id="SVGID_4_" gradientUnits="userSpaceOnUse" x1="150.35000610351562" y1="-154.85000610351562" x2="430.75" y2="125.55000305175781" gradientTransform="matrix(1 0 0 -1 0 196)" transform="translate(0,479.6000061035156) scale(0.9373825788497925) translate(0,-479.6000061035156) ">
				<stop offset="0.27" style="stop-color:#FFFFFF;stop-opacity:0.1"/>
				<stop offset="1" style="stop-color:#FFFFFF;stop-opacity:0.3"/>
			</linearGradient>
			<polygon class="st9" points="332.39586818146563,41.56112146446992 195.44426769018173,413.42079031539106 212.317154109478,413.42079031539106 349.2687546007619,41.56112146446992 " id="svg_28"/>
		</g>
	</g>
	<rect x="146.98159122431207" y="107.64659595525336" class="st10" width="179.97745513916016" height="266.96654701376247" id="svg_29"/>
	<path class="st11" d="M226.65910756587982,90.67996841740751 h25.403067886829376 c0.5624295473098756,0 1.0311208367347717,0.46869128942489624 1.0311208367347717,1.0311208367347717 l0,0 c0,0.5624295473098756 -0.46869128942489624,1.0311208367347717 -1.0311208367347717,1.0311208367347717 h-25.403067886829376 c-0.5624295473098756,0 -1.0311208367347717,-0.46869128942489624 -1.0311208367347717,-1.0311208367347717 l0,0 C225.62798672914505,91.1486597068324 226.09667801856995,90.67996841740751 226.65910756587982,90.67996841740751 z" id="svg_30"/>
	<circle class="st11" cx="220.94107097423148" cy="91.71109211480689" r="1.031120859083714" id="svg_31"/>
	<rect x="159.26129442525053" y="211.03989726305008" class="st12" width="77.7090172169801" height="78.45891898906302" id="svg_32"/>
	<circle class="st13" cx="198.06894177162576" cy="238.97388667011546" r="16.122981071382583" id="svg_33"/>
	<ellipse class="st13" cx="198.06894177162576" cy="238.97388667011546" rx="11.06111460921909" ry="16.029242455914527" id="svg_34"/>
	<ellipse class="st13" cx="198.06894177162576" cy="238.97388667011546" rx="4.311959773313276" ry="16.029242455914527" id="svg_35"/>
	<line class="st13" x1="182.0396939519651" y1="238.97388667011546" x2="214.19191926717758" y2="238.97388667011546" id="svg_36"/>
	<path class="st13" d="M183.72698545455933,246.19173824858808 c3.093362510204315,-1.0311208367347717 8.342704951763153,-1.6872886419296265 14.435691714286804,-1.6872886419296265 s11.342329204082489,0.6561678051948548 14.435691714286804,1.6872886419296265 " id="svg_37"/>
	<path class="st13" d="M188.3201600909233,251.81603372168684 c3.093362510204315,-1.124859094619751 6.467939794063568,-1.6872886419296265 9.748778820037842,-1.6872886419296265 c3.2808390259742737,0 6.561678051948547,0.5624295473098756 9.655040562152863,1.5935503840446474 " id="svg_38"/>
	<path class="st13" d="M183.72698545455933,231.94352305007124 c3.093362510204315,1.0311208367347717 8.342704951763153,1.6872886419296265 14.435691714286804,1.6872886419296265 s11.342329204082489,-0.6561678051948548 14.435691714286804,-1.6872886419296265 " id="svg_39"/>
	<path class="st13" d="M188.3201600909233,226.31922757697248 c6.28046327829361,2.1559799313545227 13.029617846012115,2.1559799313545227 19.310081124305725,0 " id="svg_40"/>
	<rect x="165.82297247719907" y="271.3135856404333" class="st14" width="64.49192428553033" height="4.124483436334856" id="svg_41"/>
	<rect x="191.78848135399676" y="263.6270513545296" class="st14" width="38.52642256039417" height="4.124483436334856" id="svg_42"/>
	<rect x="165.82297247719907" y="263.6270513545296" class="st14" width="21.559799313545227" height="4.124483436334856" id="svg_43"/>
	<rect x="165.82297247719907" y="279.00013422966003" class="st14" width="64.49192428553033" height="4.124483436334856" id="svg_44"/>
	<rect x="236.87657481467795" y="211.03989726305008" class="st15" width="77.7090172169801" height="78.45891898906302" id="svg_45"/>
	<rect x="243.53198254251765" y="225.00689196658277" class="st1" width="64.49192428553033" height="4.124483436334856" id="svg_46"/>
	<rect x="243.53198254251765" y="232.69342625248646" class="st1" width="64.49192428553033" height="4.124483436334856" id="svg_47"/>
	<rect x="243.43826716994954" y="240.47370451760435" class="st1" width="20.059986829802483" height="4.124483436334856" id="svg_48"/>
	<rect x="268.93505615067625" y="240.47370451760435" class="st1" width="38.90137702226639" height="4.124483436334856" id="svg_49"/>
	<rect x="243.53198254251765" y="248.16023880350804" class="st1" width="64.49192428553033" height="4.124483436334856" id="svg_50"/>
	<rect x="243.53198254251765" y="255.84677308941173" class="st1" width="64.49192428553033" height="4.124483436334856" id="svg_51"/>
	<rect x="243.53198254251765" y="263.6270513545296" class="st1" width="64.49192428553033" height="4.124483436334856" id="svg_52"/>
	<rect x="289.3700135335894" y="271.3135856404333" class="st1" width="18.653912961527794" height="4.124483436334856" id="svg_53"/>
	<rect x="243.53198254251765" y="271.3135856404333" class="st1" width="41.43231070032698" height="4.124483436334856" id="svg_54"/>
	<rect x="243.53198254251765" y="279.00013422966003" class="st1" width="64.49192428553033" height="4.124483436334856" id="svg_55"/>
	<rect x="290.8698027744322" y="217.32035768067908" class="st1" width="17.060363650232375" height="4.124483436334856" id="svg_56"/>
	<rect x="243.43826716994954" y="217.32035768067908" class="st1" width="43.02586179953778" height="4.124483436334856" id="svg_57"/>
	<rect x="159.26129442525053" y="289.49880194879006" class="st15" width="77.7090172169801" height="78.45891898906302" id="svg_58"/>
	<rect x="165.82297247719907" y="349.86626291203356" class="st1" width="64.49192428553033" height="4.124483436334856" id="svg_59"/>
	<rect x="165.82297247719907" y="342.08597034359263" class="st1" width="64.49192428553033" height="4.124483436334856" id="svg_60"/>
	<rect x="213.72322797775269" y="334.399450361012" class="st1" width="16.59167236080748" height="4.124483436334856" id="svg_61"/>
	<rect x="165.91671645641327" y="334.399450361012" class="st1" width="42.46343010672945" height="4.124483436334856" id="svg_62"/>
	<rect x="165.82297247719907" y="326.71290177178525" class="st1" width="64.49192428553033" height="4.124483436334856" id="svg_63"/>
	<rect x="165.82297247719907" y="318.9326378099904" class="st1" width="64.49192428553033" height="4.124483436334856" id="svg_64"/>
	<rect x="165.82297247719907" y="311.2460892207637" class="st1" width="64.49192428553033" height="4.124483436334856" id="svg_65"/>
	<rect x="165.82297247719907" y="303.55954063153695" class="st1" width="29.99624252319336" height="4.124483436334856" id="svg_66"/>
	<rect x="200.2249245636449" y="303.55954063153695" class="st1" width="30.089979350746034" height="4.124483436334856" id="svg_67"/>
	<rect x="165.82297247719907" y="295.7792766697421" class="st1" width="64.49192428553033" height="4.124483436334856" id="svg_68"/>
	<rect x="165.82297247719907" y="357.5527828946142" class="st1" width="30.089979350746034" height="4.124483436334856" id="svg_69"/>
	<rect x="200.31865423953604" y="357.5527828946142" class="st1" width="30.089979350746034" height="4.124483436334856" id="svg_70"/>
	<rect x="236.87657481467795" y="289.49880194879006" class="st12" width="77.7090172169801" height="78.45891898906302" id="svg_71"/>
	<polygon class="st16" points="291.52598202228546,343.4920442118673 260.4048689618139,343.1170969016566 256.84282660484314,320.80740296769 294.52561771726323,320.7136589884758 " id="svg_72"/>
	<polygon class="st16" points="294.52561771726323,320.7136589884758 256.84282660484314,320.80740296769 275.6842221610532,305.2468464374542 " id="svg_73"/>
	
		<rect x="280.1000061035156" y="307.79998779296875" transform="matrix(0.9373825788497925,-0.0016360381868135928,0.0016360381868135928,0.9373825788497925,-0.5221220964193345,30.51247404354956) " class="st10" width="27.399999618530273" height="23.200000762939453" id="svg_74"/>
	<polygon class="st14" points="256.84282660484314,320.80740296769 256.93657058405734,345.2730653903527 275.6842221610532,333.8370150923729 " id="svg_75"/>
	<polygon class="st14" points="294.52561771726323,320.7136589884758 294.61933308983134,345.1793500177846 275.6842221610532,333.8370150923729 " id="svg_76"/>
	<polygon class="st14" points="294.61933308983134,345.1793500177846 256.93657058405734,345.2730653903527 275.6842221610532,329.712537466763 " id="svg_77"/>
	<polyline class="st17" points="256.93657058405734,345.2730653903527 275.6842221610532,329.712537466763 294.61933308983134,345.1793500177846 " id="svg_78"/>
	<line class="st17" x1="278.40262591838837" y1="331.9622499346733" x2="294.52561771726323" y2="320.7136589884758" id="svg_79"/>
	<line class="st17" x1="273.0595337762861" y1="331.9622499346733" x2="256.84282660484314" y2="320.80740296769" id="svg_80"/>
	<rect x="260.6861008994565" y="354.64689117885064" class="st14" width="30.089979350746034" height="4.124483436334856" id="svg_81"/>
	<rect x="159.26129442525053" y="125.73807543605744" class="st12" width="155.4180344339602" height="78.36518216151035" id="svg_82"/>
	<rect x="234.72059202265882" y="136.98666638225495" class="st14" width="73.20957797783649" height="5.436819136120334" id="svg_83"/>
	<rect x="234.72059202265882" y="147.11040109449732" class="st14" width="73.20957797783649" height="5.436819136120334" id="svg_84"/>
	<rect x="234.72059202265882" y="157.140398979187" class="st14" width="73.20957797783649" height="5.436819136120334" id="svg_85"/>
	<rect x="234.72059202265882" y="167.26411938810634" class="st14" width="73.20957797783649" height="5.436819136120334" id="svg_86"/>
	<rect x="234.72059202265882" y="187.41784483337688" class="st14" width="73.20957797783649" height="5.436819136120334" id="svg_87"/>
	<rect x="264.2481432564273" y="177.29412442445755" class="st14" width="43.77576714745146" height="5.436819136120334" id="svg_88"/>
	<rect x="234.72059202265882" y="177.29412442445755" class="st14" width="24.46568566556266" height="5.436819136120334" id="svg_89"/>
	<rect x="168.16642892432355" y="137.2678840165745" class="st14" width="55.39930897969043" height="55.39930897969043" id="svg_90"/>
	<polygon class="st10" points="200.9748191840663,154.51572489774298 217.84770560336256,183.3871111869812 184.10193276477003,183.3871111869812 " id="svg_91"/>
	<polygon class="st10" points="183.91445910966468,163.98328036213206 187.4765157699585,170.91992002761435 181.00858169722414,183.3871111869812 173.8844683766365,183.3871111869812 " id="svg_92"/>
	<path class="st10" d="M175.2905422449112,152.82843339514875 c0,1.6872886419296265 1.4060738682746887,3.093362510204315 3.093362510204315,3.093362510204315 c1.6872886419296265,0 3.093362510204315,-1.4060738682746887 3.093362510204315,-3.093362510204315 c0,-1.6872886419296265 -1.4060738682746887,-3.093362510204315 -3.093362510204315,-3.093362510204315 l0,0 C176.69661611318588,149.73507088494443 175.2905422449112,151.14114475321912 175.2905422449112,152.82843339514875 z" id="svg_93"/>
	<path class="st12" d="M193.10081124305725,119.27013707232618 h87.6452711224556 c1.4060738682746887,0 2.5309329628944397,-1.124859094619751 2.5309329628944397,-2.5309329628944397 c0,0 0,0 0,0 l0,0 c0,-1.4060738682746887 -1.124859094619751,-2.5309329628944397 -2.5309329628944397,-2.5309329628944397 c0,0 0,0 0,0 H193.10081124305725 c-1.4060738682746887,0 -2.5309329628944397,1.124859094619751 -2.5309329628944397,2.5309329628944397 c0,0 0,0 0,0 l0,0 C190.5698782801628,118.14527797770643 191.69473737478256,119.27013707232618 193.10081124305725,119.27013707232618 C193.10081124305725,119.27013707232618 193.10081124305725,119.27013707232618 193.10081124305725,119.27013707232618 z" id="svg_94"/>
	<line class="st13" x1="236.97031879389215" y1="211.03989726305008" x2="236.97031879389215" y2="367.9577352411761" id="svg_95"/>
	<line class="st13" x1="159.26129442525053" y1="289.49880194879006" x2="314.67934316253377" y2="289.49880194879006" id="svg_96"/>
	<path class="st18" d="M310.2736335992813,439.19881123376035 l0.8436443209648132,27.746524333953857 l-0.9373825788497925,8.71765798330307 l-33.089605033397675,-0.1874765157699585 c-0.8436443209648132,0 -1.499812126159668,-0.6561678051948548 -1.499812126159668,-1.499812126159668 c0,0 0,0 0,0 l0,0 c0,-0.6561678051948548 0.374953031539917,-1.2185973525047302 0.9373825788497925,-1.4060738682746887 l14.810644745826721,-6.749154567718506 l-2.249718189239502,-28.87138342857361 " id="svg_97"/>
	<path class="st19" d="M274.1844043135643,475.1005640037074 c0.374953031539917,-1.124859094619751 1.0311208367347717,-2.343456447124481 1.6872886419296265,-2.624671220779419 l15.654289066791534,-6.749154567718506 c8.62391972541809,3.468315541744232 19.77877241373062,0.8436443209648132 19.77877241373062,0.8436443209648132 l0.8436443209648132,11.811020493507385 c0,0.374953031539917 -0.2812147736549378,0.6561678051948548 -0.6561678051948548,0.6561678051948548 c0,0 0,0 0,0 l0,0 l-37.0266118645668,-0.1874765157699585 C273.6219747662544,478.94383257699155 274.1844043135643,475.1943022615924 274.1844043135643,475.1005640037074 z" id="svg_98"/>
	<path class="st20" d="M288.05766648054123,466.4766442782893 c0.8436443209648132,1.124859094619751 1.5935503840446474,2.4371947050094604 2.249718189239502,3.74953031539917 " id="svg_99"/>
	<path class="st20" d="M286.08916306495667,467.60150337290906 c0.749906063079834,0.9373825788497925 1.3123356103897095,2.0622416734695435 1.7810268998146057,3.1871007680892944 " id="svg_100"/>
	<path class="st20" d="M284.40187442302704,468.53888595175886 c0.6561678051948548,0.9373825788497925 1.2185973525047302,1.874765157699585 1.6872886419296265,2.9058859944343567 " id="svg_101"/>
	<line class="st20" x1="311.9609107985525" y1="476.60037040853786" x2="273.9969163551359" y2="476.31916707754135" id="svg_102"/>
	<path class="st20" d="M311.585969209671,470.88234239888334 c0,0 -8.81139624118805,0.09373825788497925 -9.561302304267883,5.624295473098755 " id="svg_103"/>
	<path class="st20" d="M278.96505546569824,471.1635571725383 c0,0 2.5309329628944397,3.5620537996292114 2.999624252319336,5.249342441558838 " id="svg_104"/>
	<path class="st21" d="M306.43036502599716,330.1812173135295 c0,0 4.030745089054108,6.749154567718506 5.155604183673859,11.811020493507385 c1.0311208367347717,5.343080699443817 1.0311208367347717,10.967376172542572 0,16.31045687198639 l-0.09373825788497925,97.01909691095352 h-24.559423565864563 c0,0 -5.436818957328796,-111.82974165678024 -2.999624252319336,-126.26543337106703 " id="svg_105"/>
	<path class="st22" d="M290.68233770132065,455.2280533320918 c0,0 -5.436818957328796,-111.82974165678024 -2.999624252319336,-126.26543337106703 " id="svg_106"/>
	<path class="st18" d="M283.1832770705223,428.32517331910276 L294.33812975883484,453.72824120593214 l2.4371947050094604,8.436443209648132 l-30.74614858627319,12.185973525047302 c-0.749906063079834,0.2812147736549378 -1.5935503840446474,-0.09373825788497925 -1.9685034155845642,-0.8436443209648132 l0,0 c-0.2812147736549378,-0.5624295473098756 -0.09373825788497925,-1.3123356103897095 0.374953031539917,-1.6872886419296265 l11.15485268831253,-11.811020493507385 L262.65459859371185,434.0432070500865 " id="svg_107"/>
	<path class="st19" d="M263.02955162525177,475.1005640037074 c-0.1874765157699585,-1.0311208367347717 0,-2.0622416734695435 0.5624295473098756,-2.999624252319336 l11.998497009277344,-12.092235267162323 c9.280087530612946,0 18.65391331911087,-6.561678051948547 18.65391331911087,-6.561678051948547 l5.155604183673859,10.592423141002655 c0.1874765157699585,0.374953031539917 0,0.749906063079834 -0.2812147736549378,0.9373825788497925 c0,0 0,0 -0.09373825788497925,0 l0,0 l-34.401940643787384,13.592047393321991 C263.96693420410156,478.7563560612216 263.02955162525177,475.1005640037074 263.02955162525177,475.1005640037074 z" id="svg_108"/>
	<path class="st20" d="M272.68459218740463,461.88346964192533 c1.2185973525047302,0.749906063079834 2.4371947050094604,1.5935503840446474 3.468315541744232,2.624671220779419 " id="svg_109"/>
	<path class="st20" d="M271.27851831912994,463.66449654173994 c1.0311208367347717,0.6561678051948548 1.9685034155845642,1.4060738682746887 2.8121477365493774,2.249718189239502 " id="svg_110"/>
	<path class="st20" d="M270.0599209666252,465.0705704100146 c0.9373825788497925,0.6561678051948548 1.7810268998146057,1.3123356103897095 2.624671220779419,2.0622416734695435 " id="svg_111"/>
	<line class="st20" x1="298.5563513636589" y1="462.35217237400866" x2="263.3107606775775" y2="476.31916707754135" id="svg_112"/>
	<path class="st20" d="M296.2128949165344,457.19655674767637 c0,0 -8.155228435993195,3.2808390259742737 -6.749154567718506,8.71765798330307 " id="svg_113"/>
	<path class="st20" d="M266.0291758775711,469.57000678849363 c0,0 3.6557920575141907,2.343456447124481 4.780651152133942,3.74953031539917 " id="svg_114"/>
	<path class="st21" d="M264.06067246198654,345.929244638206 c-12.654664814472198,31.02736335992813 -12.842141330242157,34.308202385902405 -14.9043830037117,49.49380016326904 c-2.1559799313545227,15.560550808906557 21.18484628200531,61.304820656776435 21.18484628200531,61.304820656776435 l22.40344363451004,-9.842517077922821 c0,0 -14.9043830037117,-41.807263016700745 -13.873262166976929,-49.02510887384415 c1.7810268998146057,-13.217094361782074 17.060362935066223,-35.80801451206207 17.060362935066223,-35.80801451206207 s7.217845857143402,-5.718033730983734 8.81139624118805,-13.404570877552032 s-1.874765157699585,-15.654289066791534 -1.874765157699585,-15.654289066791534 " id="svg_115"/>
	<path class="st22" d="M287.12028390169144,349.67877495360517 l10.02999359369278,-3.1871007680892944 " id="svg_116"/>
	<line class="st22" x1="308.5863564000101" y1="343.5857881910815" x2="311.7734514467702" y2="342.6484056122317" id="svg_117"/>
	<path class="st22" d="M271.5597330927849,344.9918620593562 c0,0 -15.560550808906557,33.93324935436249 -17.716530740261078,49.49380016326904 s20.622416734695435,59.99248504638672 20.622416734695435,59.99248504638672 " id="svg_118"/>
	<path class="st22" d="M284.0269213914871,382.8621182448878 c3.468315541744232,-7.217845857143402 7.405322372913361,-14.248215198516846 11.811020493507385,-20.903631508350372 c0,0 7.217845857143402,-5.718033730983734 8.81139624118805,-13.404570877552032 " id="svg_119"/>
	<path class="st18" d="M261.998430788517,269.251349688293 l6.467939794063568,11.15485268831253 c0,0 -3.8432685732841487,8.342704951763153 -14.248215198516846,4.405698120594025 l-2.624671220779419,-5.905510246753693 L261.998430788517,269.251349688293 z" id="svg_120"/>
	<path class="st18" d="M244.8443295955658,261.65855079960966 c0,0 -3.1871007680892944,14.9043830037117 2.343456447124481,17.52905422449112 c2.8121477365493774,1.4060738682746887 10.873637914657593,0.5624295473098756 12.748403072357178,-2.5309329628944397 c1.4060738682746887,-2.249718189239502 0.8436443209648132,-12.935879588127136 -0.8436443209648132,-14.248215198516846 C252.53086674213407,257.4403291947856 244.8443295955658,261.65855079960966 244.8443295955658,261.65855079960966 z" id="svg_121"/>
	<path class="st23" d="M258.8113300204277,257.25285267901563 c-2.4371947050094604,-4.218221604824066 -7.311584115028381,-3.374577283859253 -15.279336035251617,1.124859094619751 c-1.0311208367347717,0.5624295473098756 -3.374577283859253,0.8436443209648132 -3.374577283859253,2.0622416734695435 c0,1.5935503840446474 1.124859094619751,4.218221604824066 2.999624252319336,4.780651152133942 c1.0311208367347717,0.2812147736549378 2.1559799313545227,0.2812147736549378 3.1871007680892944,-0.09373825788497925 c1.6872886419296265,-0.374953031539917 3.8432685732841487,0.2812147736549378 3.8432685732841487,2.249718189239502 c0,0.46869128942489624 -0.1874765157699585,1.4060738682746887 0.2812147736549378,1.5935503840446474 h1.124859094619751 c0.749906063079834,0 1.124859094619751,0.9373825788497925 1.0311208367347717,1.6872886419296265 c-0.09373825788497925,0.749906063079834 0.374953031539917,1.3123356103897095 0.2812147736549378,1.9685034155845642 c-0.1874765157699585,1.7810268998146057 1.9685034155845642,3.6557920575141907 3.74953031539917,3.8432685732841487 c1.5935503840446474,0.09373825788497925 6.092986762523651,-0.6561678051948548 8.248966693878174,-3.5620537996292114 c1.874765157699585,-2.5309329628944397 1.6872886419296265,-6.842892825603485 -1.499812126159668,-13.217094361782074 C262.27964556217194,257.3465909369006 259.6549743413925,256.69042313170576 258.8113300204277,257.25285267901563 z" id="svg_122"/>
	<path class="st18" d="M249.99993377923965,269.7200409777179 c0.46869128942489624,-2.343456447124481 1.7810268998146057,-2.624671220779419 2.8121477365493774,-1.9685034155845642 c1.4060738682746887,0.8436443209648132 1.124859094619751,4.218221604824066 0.5624295473098756,5.061865925788879 c-1.0311208367347717,1.6872886419296265 -2.343456447124481,2.1559799313545227 -2.999624252319336,0.9373825788497925 " id="svg_123"/>
	<path class="st24" d="M251.96843719482422,279.75003457141065 c1.0311208367347717,-1.0311208367347717 1.5935503840446474,-2.4371947050094604 1.4060738682746887,-3.9370068311691284 " id="svg_124"/>
	<path class="st25" d="M245.40675914287567,268.7826583988681 c-0.1874765157699585,0.46869128942489624 -0.2812147736549378,1.3123356103897095 0.09373825788497925,1.5935503840446474 c0.09373825788497925,0.09373825788497925 0.2812147736549378,0.09373825788497925 0.374953031539917,0 C246.71909475326538,269.81377923560285 245.87545043230057,267.65779930424833 245.40675914287567,268.7826583988681 z" id="svg_125"/>
	<path class="st26" d="M244.65685307979584,267.09536975693845 c0.8436443209648132,-0.09373825788497925 1.6872886419296265,0.09373825788497925 2.4371947050094604,0.46869128942489624 " id="svg_126"/>
	<path class="st10" d="M247.46900081634521,274.2194773561969 l-2.4371947050094604,-0.09373825788497925 c0,0 -0.09373825788497925,2.9058859944343567 1.0311208367347717,2.999624252319336 S247.46900081634521,274.2194773561969 247.46900081634521,274.2194773561969 z" id="svg_127"/>
	<path class="st27" d="M266.8728201985359,277.7815311558261 c0,0 5.624295473098755,-1.4060738682746887 13.498309135437012,0.8436443209648132 c6.655416309833527,1.9685034155845642 15.185597777366638,6.936631083488464 21.559799313545227,13.77952390909195 c11.061114430427551,11.811020493507385 5.999248504638672,41.05735695362091 5.999248504638672,41.05735695362091 l-14.435691714286804,-0.5624295473098756 c0,0 2.249718189239502,-18.84138983488083 -5.249342441558838,-26.34045046567917 s-18.185222029685974,-9.280087530612946 -18.185222029685974,-9.280087530612946 " id="svg_128"/>
	<path class="st18" d="M205.75547605752945,318.932626367332 c-4.499436378479004,1.2185973525047302 -18.185222029685974,2.718409478664398 -18.372698545455933,3.6557920575141907 s4.593174636363983,0.46869128942489624 4.311959862709045,1.2185973525047302 s-7.6865371465682975,1.9685034155845642 -7.6865371465682975,2.9058859944343567 c0,1.3123356103897095 7.49906063079834,-0.2812147736549378 7.49906063079834,-0.2812147736549378 s-3.093362510204315,0.5624295473098756 -2.718409478664398,1.6872886419296265 c0.2812147736549378,0.8436443209648132 1.499812126159668,1.0311208367347717 4.030745089054108,0.8436443209648132 c-1.3123356103897095,0.2812147736549378 -1.874765157699585,0.9373825788497925 -1.5935503840446474,1.7810268998146057 s1.5935503840446474,0.749906063079834 2.999624252319336,0.5624295473098756 c-0.9373825788497925,0.1874765157699585 -1.6872886419296265,0.8436443209648132 -1.0311208367347717,1.4060738682746887 c0.8436443209648132,0.749906063079834 6.374201536178589,0.374953031539917 16.31045687198639,-1.3123356103897095 " id="svg_129"/>
	<path class="st27" d="M252.62460500001907,281.53106147122526 c2.624671220779419,0.9373825788497925 5.530557215213776,0.9373825788497925 8.155228435993195,0 c2.249718189239502,-0.749906063079834 4.405698120594025,-2.0622416734695435 6.092986762523651,-3.74953031539917 c0,0 9.655040562152863,-0.6561678051948548 21.466061055660248,11.15485268831253 s21.18484628200531,45.650531589984894 21.18484628200531,45.650531589984894 l-48.83763235807419,16.40419512987137 c0,0 -8.342704951763153,-29.527551233768463 -11.623543977737427,-43.025860369205475 S252.62460500001907,281.53106147122526 252.62460500001907,281.53106147122526 z" id="svg_130"/>
	<path class="st28" d="M287.7764517068863,285.8430213339343 c9.748778820037842,11.342329204082489 21.841014087200165,48.74389410018921 21.841014087200165,48.74389410018921 " id="svg_131"/>
	<path class="st27" d="M252.62460500001907,281.53106147122526 c-6.467939794063568,2.4371947050094604 -11.998497009277344,8.71765798330307 -15.373074293136595,15.09185951948166 c-5.530557215213776,10.498684883117676 -8.905134499073029,18.185222029685974 -8.905134499073029,18.185222029685974 l-28.027739107608795,4.218221604824066 l1.4060738682746887,14.99812126159668 c0,0 19.028866350650787,-0.5624295473098756 34.120725870132446,-2.8121477365493774 c10.779899656772614,-1.5935503840446474 19.122604608535767,-23.90325576066971 19.122604608535767,-23.90325576066971 " id="svg_132"/>
	<path class="st28" d="M250.7498398423195,282.37470579219007 c0,0 3.093362510204315,4.124483346939087 10.498684883117676,1.3123356103897095 s7.6865371465682975,-6.18672502040863 7.6865371465682975,-6.18672502040863 " id="svg_133"/>
	<line class="st28" x1="251.40601909017278" y1="314.90187555694865" x2="254.49937015771866" y2="308.4339414842143" id="svg_134"/>
	<line class="st28" x1="204.81809347867966" y1="318.3702025413513" x2="205.84922003674365" y2="333.7432711131587" id="svg_135"/>
	<line class="st28" x1="259.8424622998209" y1="347.8040097959056" x2="308.5863564000101" y2="331.6810179970307" id="svg_136"/>
	<path class="st18" d="M106.39292269945145,354.928117395164 l-0.8436443209648132,26.715403497219086 l0.8436443209648132,8.436443209648132 l31.871007680892944,-0.1874765157699585 c0.8436443209648132,0 1.499812126159668,-0.6561678051948548 1.499812126159668,-1.499812126159668 c0,0 0,0 0,0 l0,0 c0,-0.5624295473098756 -0.374953031539917,-1.124859094619751 -0.9373825788497925,-1.3123356103897095 l-14.248215198516846,-6.561678051948547 l2.1559799313545227,-27.840262591838837 " id="svg_137"/>
	<path class="st19" d="M141.26355463266373,389.61127281260633 c-0.374953031539917,-1.0311208367347717 -0.9373825788497925,-2.249718189239502 -1.5935503840446474,-2.5309329628944397 l-15.09185951948166,-6.467939794063568 c-8.342704951763153,3.374577283859253 -19.028866350650787,0.8436443209648132 -19.028866350650787,0.8436443209648132 l-0.8436443209648132,11.342329204082489 c0,0.374953031539917 0.2812147736549378,0.6561678051948548 0.6561678051948548,0.6561678051948548 c0,0 0,0 0,0 l35.620537996292114,-0.1874765157699585 C141.73224592208862,393.2670648701205 141.26355463266373,389.61127281260633 141.26355463266373,389.61127281260633 z" id="svg_138"/>
	<path class="st29" d="M127.8589837551117,381.2685678608432 c-0.8436443209648132,1.124859094619751 -1.5935503840446474,2.343456447124481 -2.1559799313545227,3.5620537996292114 " id="svg_139"/>
	<path class="st29" d="M129.73374891281128,382.3934269554629 c-0.6561678051948548,0.9373825788497925 -1.3123356103897095,1.9685034155845642 -1.7810268998146057,2.999624252319336 " id="svg_140"/>
	<path class="st29" d="M131.32729929685593,383.23707127642774 c-0.6561678051948548,0.9373825788497925 -1.124859094619751,1.874765157699585 -1.6872886419296265,2.8121477365493774 " id="svg_141"/>
	<line class="st29" x1="104.89311200362408" y1="390.92360842299604" x2="141.35729575121331" y2="390.73612046456765" id="svg_142"/>
	<path class="st29" d="M105.17432534694672,385.48678946566724 c0,0 8.436443209648132,0.09373825788497925 9.186349272727966,5.343080699443817 " id="svg_143"/>
	<path class="st29" d="M136.57664173841476,385.7680042393222 c0,0 -2.4371947050094604,3.468315541744232 -2.9058859944343567,5.061865925788879 " id="svg_144"/>
	<path class="st27" d="M109.39254695177078,259.3150943524852 c0,0 16.966624677181244,31.777269423007965 22.30970537662506,51.743518352508545 s-1.7810268998146057,64.96061271429062 -1.7810268998146057,64.96061271429062 h-26.34045046567917 c0,0 5.249342441558838,-48.83763235807419 -0.9373825788497925,-64.96061271429062 S74.0532237291336,252.3784632689967 74.0532237291336,252.3784632689967 " id="svg_145"/>
	<path class="st28" d="M107.14282876253128,375.92548716139936 c0,0 4.311959862709045,-50.80613577365875 1.6872886419296265,-63.367062330245965 s-20.903631508350372,-41.713524758815765 -20.903631508350372,-41.713524758815765 " id="svg_146"/>
	<path class="st18" d="M76.20920366048813,340.1174726493373 l-15.560550808906557,21.466061055660248 l-4.218221604824066,7.311584115028381 l25.871759176254272,18.65391331911087 c0.6561678051948548,0.46869128942489624 1.5935503840446474,0.374953031539917 2.0622416734695435,-0.2812147736549378 l0,0 c0.374953031539917,-0.46869128942489624 0.374953031539917,-1.124859094619751 0.09373825788497925,-1.6872886419296265 l-7.6865371465682975,-13.68578565120697 l17.24783945083618,-22.49718189239502 " id="svg_147"/>
	<path class="st19" d="M84.83312338590622,388.9551050074115 c0.374953031539917,-1.0311208367347717 0.5624295473098756,-2.343456447124481 0.1874765157699585,-2.9058859944343567 l-8.342704951763153,-14.154476940631866 c-8.71765798330307,-2.1559799313545227 -15.935503840446472,-10.592423141002655 -15.935503840446472,-10.592423141002655 l-7.311584115028381,8.71765798330307 c-0.1874765157699585,0.2812147736549378 -0.09373825788497925,0.749906063079834 0.1874765157699585,0.9373825788497925 L82.48966693878174,391.6735144860759 C83.05209648609161,392.14220577550077 84.83312338590622,388.9551050074115 84.83312338590622,388.9551050074115 z" id="svg_148"/>
	<path class="st29" d="M78.92761313915253,374.23819851946973 c-1.3123356103897095,0.374953031539917 -2.624671220779419,0.9373825788497925 -3.8432685732841487,1.5935503840446474 " id="svg_149"/>
	<path class="st29" d="M79.77125746011734,376.3004401929393 c-1.124859094619751,0.374953031539917 -2.1559799313545227,0.8436443209648132 -3.1871007680892944,1.4060738682746887 " id="svg_150"/>
	<path class="st29" d="M80.61490178108215,377.8939905769839 c-1.0311208367347717,0.374953031539917 -2.0622416734695435,0.8436443209648132 -2.999624252319336,1.3123356103897095 " id="svg_151"/>
	<line class="st29" x1="54.555666804224074" y1="368.6139144890294" x2="84.27069526892865" y2="389.98622584414625" id="svg_152"/>
	<path class="st29" d="M58.023981630802155,364.3956814415469 c0,0 6.842892825603485,5.061865925788879 4.311959862709045,9.748778820037842 " id="svg_153"/>
	<path class="st29" d="M83.33331125974655,383.0495947606578 c-1.874765157699585,0.5624295473098756 -3.6557920575141907,1.4060738682746887 -5.343080699443817,2.343456447124481 " id="svg_154"/>
	<path class="st27" d="M67.11659264564514,252.3784632689967 c-5.061865925788879,14.248215198516846 0,25.403067886829376 0,25.403067886829376 s17.154101192951202,31.30857813358307 17.154101192951202,37.58904141187668 c0,5.811771988868713 -21.934752345085144,39.088853538036346 -21.934752345085144,39.088853538036346 l20.05998718738556,16.12298035621643 c0,0 31.58979290723801,-33.93324935436249 30.933625102043152,-57.46155208349228 c-0.749906063079834,-29.058859944343567 -16.591671645641327,-60.83612936735154 -16.591671645641327,-60.83612936735154 " id="svg_155"/>
	<path class="st28" d="M70.86612296104431,253.3158458478465 c-5.061865925788879,14.248215198516846 1.0311208367347717,23.80951750278473 1.0311208367347717,23.80951750278473 s16.12298035621643,32.902128517627716 16.12298035621643,39.276330053806305 c0,5.811771988868713 -22.778396666049957,40.401189148426056 -22.778396666049957,40.401189148426056 " id="svg_156"/>
	<path class="st28" d="M105.36180186271667,338.99261355471754 c4.686912894248962,-8.62391972541809 8.155228435993195,-17.810268998146057 7.967751920223236,-25.778020918369293 c-0.749906063079834,-29.058859944343567 -16.591671645641327,-60.83612936735154 -16.591671645641327,-60.83612936735154 " id="svg_157"/>
	<path class="st28" d="M69.17883431911469,264.564436794044 c0,0 8.998872756958008,0.5624295473098756 12.46718829870224,-6.655416309833527 " id="svg_158"/>
	<path class="st28" d="M103.58077496290207,268.5951818830981 c0,0 2.4371947050094604,0.2812147736549378 2.249718189239502,-0.9373825788497925 s-2.249718189239502,-7.7802754044532785 -2.249718189239502,-7.7802754044532785 " id="svg_159"/>
	<path class="st30" d="M115.01684242486954,176.91916567158842 c0.9373825788497925,5.718033730983734 0.1874765157699585,10.779899656772614 -4.686912894248962,11.529805719852448 s-11.717282235622406,-0.6561678051948548 -13.029617846012115,-8.81139624118805 c-0.9373825788497925,-5.718033730983734 2.343456447124481,-10.967376172542572 7.217845857143402,-11.811020493507385 S114.07945984601974,171.20113194060468 115.01684242486954,176.91916567158842 z" id="svg_160"/>
	<path class="st25" d="M110.98609733581543,177.0129039294734 c-0.1874765157699585,0.5624295473098756 0,1.124859094619751 0.46869128942489624,1.499812126159668 c0.09373825788497925,0.09373825788497925 0.2812147736549378,0 0.374953031539917,-0.09373825788497925 C112.4859094619751,177.76280999255323 111.17357385158539,175.88804483485364 110.98609733581543,177.0129039294734 z" id="svg_161"/>
	<path class="st31" d="M109.39254695177078,175.7005683190837 c1.0311208367347717,-0.5624295473098756 2.249718189239502,-0.6561678051948548 3.374577283859253,-0.1874765157699585 " id="svg_162"/>
	<path class="st10" d="M114.17319810390472,182.9184141762271 h-3.1871007680892944 c0,0 -0.1874765157699585,2.624671220779419 1.4060738682746887,2.9058859944343567 C113.70450681447983,186.10551494431638 114.17319810390472,182.9184141762271 114.17319810390472,182.9184141762271 z" id="svg_163"/>
	<path class="st30" d="M107.70525830984116,194.82317292761945 c-2.4371947050094604,0.374953031539917 -4.9681276679039,0.2812147736549378 -7.405322372913361,-0.2812147736549378 c-4.218221604824066,-1.124859094619751 -5.436818957328796,-2.9058859944343567 -5.436818957328796,-2.9058859944343567 l5.905510246753693,-12.279711782932281 l9.092611014842987,4.124483346939087 L107.70525830984116,194.82317292761945 z" id="svg_164"/>
	<path class="st32" d="M108.8301174044609,188.63644790721082 c0,0 -3.9370068311691284,0.09373825788497925 -5.999248504638672,-1.7810268998146057 " id="svg_165"/>
	<path class="st30" d="M113.89198333024979,176.73168915581846 c0,0 2.4371947050094604,3.5620537996292114 2.343456447124481,4.218221604824066 s-1.874765157699585,0.9373825788497925 -1.874765157699585,0.9373825788497925 " id="svg_166"/>
	<path class="st33" d="M100.76862722635269,184.88691759181165 c-0.5624295473098756,0.1874765157699585 -1.124859094619751,0.374953031539917 -1.6872886419296265,0.374953031539917 c-1.124859094619751,0.1874765157699585 -2.343456447124481,-0.09373825788497925 -3.374577283859253,-0.5624295473098756 c-1.9685034155845642,-1.0311208367347717 -2.999624252319336,-3.1871007680892944 -2.624671220779419,-5.343080699443817 c0.09373825788497925,-0.374953031539917 0.1874765157699585,-0.6561678051948548 0.1874765157699585,-1.0311208367347717 c0.2812147736549378,-1.5935503840446474 -0.6561678051948548,-3.093362510204315 -0.9373825788497925,-4.686912894248962 c-0.2812147736549378,-1.5935503840446474 0.09373825788497925,-3.1871007680892944 1.0311208367347717,-4.499436378479004 c0.9373825788497925,-1.3123356103897095 2.1559799313545227,-2.249718189239502 3.6557920575141907,-2.8121477365493774 c1.2185973525047302,-0.46869128942489624 2.4371947050094604,-0.5624295473098756 3.468315541744232,-1.499812126159668 c0.46869128942489624,-0.46869128942489624 0.9373825788497925,-0.8436443209648132 1.4060738682746887,-1.124859094619751 c2.4371947050094604,-1.499812126159668 5.905510246753693,-0.6561678051948548 8.061490178108215,0.9373825788497925 c0.2812147736549378,0.1874765157699585 0.5624295473098756,0.374953031539917 0.8436443209648132,0.46869128942489624 c0.5624295473098756,0.09373825788497925 1.124859094619751,-0.09373825788497925 1.5935503840446474,0 c2.0622416734695435,0.374953031539917 2.999624252319336,3.468315541744232 2.999624252319336,5.343080699443817 c0,0.5624295473098756 -0.1874765157699585,1.0311208367347717 -0.46869128942489624,1.499812126159668 c-0.5624295473098756,0.5624295473098756 -1.3123356103897095,0.9373825788497925 -2.0622416734695435,1.0311208367347717 c-1.124859094619751,0 -2.1559799313545227,0.09373825788497925 -3.2808390259742737,0.1874765157699585 c-0.749906063079834,0.2812147736549378 -1.4060738682746887,0.6561678051948548 -2.0622416734695435,1.0311208367347717 c-1.124859094619751,0.46869128942489624 -2.4371947050094604,0.374953031539917 -3.5620537996292114,-0.09373825788497925 c0.2812147736549378,0.749906063079834 0.374953031539917,1.5935503840446474 0.2812147736549378,2.343456447124481 c-0.1874765157699585,1.499812126159668 -1.499812126159668,2.249718189239502 -2.8121477365493774,2.5309329628944397 c0.5624295473098756,1.5935503840446474 0.6561678051948548,3.2808390259742737 0.2812147736549378,4.874389410018921 C101.51853328943253,184.32448804450178 101.23731851577759,184.6994410760417 100.76862722635269,184.88691759181165 z" id="svg_167"/>
	<path class="st34" d="M102.5496541261673,177.8565482504382 c-0.5624295473098756,-0.749906063079834 -1.6872886419296265,-0.9373825788497925 -2.5309329628944397,-0.2812147736549378 c0,0 0,0 0,0 h-0.09373825788497925 c-1.7810268998146057,1.499812126159668 0.5624295473098756,4.686912894248962 1.9685034155845642,5.155604183673859 c0.749906063079834,0.2812147736549378 1.499812126159668,-0.1874765157699585 1.7810268998146057,-0.8436443209648132 c0,-0.09373825788497925 0,-0.09373825788497925 0,-0.1874765157699585 " id="svg_168"/>
	<path class="st18" d="M150.63738042116165,238.8801541335597 c2.718409478664398,0.1874765157699585 15.185597777366638,1.499812126159668 15.09185951948166,2.249718189239502 s-4.311959862709045,0.9373825788497925 -4.124483346939087,1.3123356103897095 c0.1874765157699585,0.5624295473098756 3.374577283859253,1.0311208367347717 5.249342441558838,1.124859094619751 c1.5935503840446474,0.09373825788497925 4.124483346939087,0.46869128942489624 4.218221604824066,1.2185973525047302 c0.09373825788497925,1.3123356103897095 -8.71765798330307,0.749906063079834 -8.71765798330307,0.749906063079834 c0,0.374953031539917 9.561302304267883,-1.124859094619751 9.748778820037842,0 c0.2812147736549378,1.5935503840446474 -9.9362553358078,2.4371947050094604 -10.217470109462738,2.8121477365493774 c0,0 8.62391972541809,-3.1871007680892944 8.905134499073029,-1.9685034155845642 s-7.405322372913361,4.218221604824066 -9.9362553358078,4.218221604824066 c1.9685034155845642,-0.374953031539917 7.874013662338257,-3.74953031539917 8.061490178108215,-2.9058859944343567 s-5.061865925788879,3.093362510204315 -5.905510246753693,3.2808390259742737 c-4.686912894248962,0.6561678051948548 -9.373825788497925,0.8436443209648132 -14.060738682746887,0.46869128942489624 " id="svg_169"/>
	<path class="st21" d="M107.79899656772614,193.97952860665464 c0,0 -2.624671220779419,1.3123356103897095 -6.749154567718506,-0.46869128942489624 c-4.405698120594025,-1.874765157699585 -5.343080699443817,-4.124483346939087 -5.343080699443817,-4.124483346939087 s-23.80951750278473,2.0622416734695435 -32.5271754860878,68.24145174026489 l48.83763235807419,5.999248504638672 c0,0 3.9370068311691284,-23.62204098701477 3.2808390259742737,-42.74464559555054 C114.92310416698456,208.69643509459638 110.2361912727356,199.22887104821348 107.79899656772614,193.97952860665464 " id="svg_170"/>
	<path class="st21" d="M93.45704311132431,220.50745558810377 c0,0 7.49906063079834,25.12185311317444 27.840262591838837,30.558672070503235 c10.498684883117676,2.9058859944343567 21.27858453989029,4.499436378479004 32.15222245454788,4.780651152133942 l1.9685034155845642,-16.966624677181244 c0,0 -22.122228860855103,-3.9370068311691284 -31.214839875698086,-9.9362553358078 c-6.936631083488464,-4.593174636363983 -8.248966693878174,-19.216342866420746 -10.02999359369278,-24.371947050094604 c-2.4371947050094604,-7.217845857143402 -6.374201536178589,-10.498684883117676 -6.374201536178589,-10.498684883117676 " id="svg_171"/>
	<path class="st22" d="M93.83199614286423,189.94878351760053 c0,0 1.499812126159668,4.593174636363983 8.436443209648132,6.092986762523651 c5.061865925788879,1.124859094619751 7.030369341373444,-0.374953031539917 7.030369341373444,-0.374953031539917 " id="svg_172"/>
	<path class="st22" d="M113.32955378293991,248.25397992205762 c0,0 -18.466436803340912,-8.530181467533112 -19.497557640075684,-32.71465200185776 " id="svg_173"/>
	<line class="st22" x1="151.2935425050273" y1="238.13024807047987" x2="148.85635638201165" y2="255.65929943430638" id="svg_174"/>
	<path class="st10" d="M372.6095750927925,478.2876647717967 c-6.842892825603485,-54.83688086271286 9.748778820037842,-74.89686805009842 27.934000849723816,-75.83425062894821 c8.62391972541809,-0.46869128942489624 33.74577283859253,2.999624252319336 3.374577283859253,75.83425062894821 " id="svg_175"/>
	<path class="st35" d="M372.79705160856247,478.2876647717967 c-0.46869128942489624,-5.811771988868713 -1.124859094619751,-11.717282235622406 -1.3123356103897095,-17.52905422449112 c-0.1874765157699585,-4.9681276679039 -0.09373825788497925,-9.9362553358078 0.1874765157699585,-14.9043830037117 c0.374953031539917,-7.6865371465682975 1.9685034155845642,-15.373074293136595 4.593174636363983,-22.59092015028 c1.874765157699585,-5.155604183673859 4.874389410018921,-9.842517077922821 8.81139624118805,-13.68578565120697 c3.1871007680892944,-2.999624252319336 7.124107599258423,-5.155604183673859 11.436067461967468,-6.092986762523651 c2.4371947050094604,-0.5624295473098756 4.9681276679039,-0.749906063079834 7.49906063079834,-0.46869128942489624 c2.1559799313545227,0.1874765157699585 4.124483346939087,0.8436443209648132 5.999248504638672,1.874765157699585 c2.343456447124481,1.3123356103897095 4.218221604824066,3.2808390259742737 5.436818957328796,5.718033730983734 c1.7810268998146057,3.5620537996292114 2.624671220779419,7.49906063079834 2.718409478664398,11.436067461967468 c0.09373825788497925,6.467939794063568 -0.5624295473098756,12.842141330242157 -2.0622416734695435,19.122604608535767 c-2.249718189239502,9.748778820037842 -5.249342441558838,19.310081124305725 -8.998872756958008,28.59016865491867 c-1.124859094619751,2.8121477365493774 -2.249718189239502,5.718033730983734 -3.374577283859253,8.530181467533112 c-0.09373825788497925,0.2812147736549378 0.374953031539917,0.46869128942489624 0.46869128942489624,0.1874765157699585 c2.5309329628944397,-5.530557215213776 4.686912894248962,-11.342329204082489 6.655416309833527,-17.060362935066223 c1.6872886419296265,-4.780651152133942 3.1871007680892944,-9.561302304267883 4.499436378479004,-14.435691714286804 c1.9685034155845642,-6.936631083488464 3.1871007680892944,-14.154476940631866 3.5620537996292114,-21.37232279777527 c0.2812147736549378,-4.499436378479004 -0.374953031539917,-8.998872756958008 -1.874765157699585,-13.310832619667053 c-1.0311208367347717,-2.8121477365493774 -2.8121477365493774,-5.249342441558838 -5.155604183673859,-7.124107599258423 c-1.874765157699585,-1.4060738682746887 -4.030745089054108,-2.343456447124481 -6.28046327829361,-2.718409478664398 c-2.0622416734695435,-0.374953031539917 -4.124483346939087,-0.46869128942489624 -6.18672502040863,-0.1874765157699585 c-4.311959862709045,0.46869128942489624 -8.530181467533112,1.9685034155845642 -11.998497009277344,4.593174636363983 c-4.124483346939087,3.1871007680892944 -7.49906063079834,7.217845857143402 -9.748778820037842,11.904758751392365 c-3.093362510204315,6.467939794063568 -5.061865925788879,13.404570877552032 -5.811771988868713,20.528678476810455 c-1.2185973525047302,10.02999359369278 -1.3123356103897095,20.247463703155518 -0.2812147736549378,30.277457296848294 c0.2812147736549378,2.999624252319336 0.5624295473098756,5.905510246753693 1.0311208367347717,8.81139624118805 C372.42209857702255,478.47514128756666 372.79705160856247,478.47514128756666 372.79705160856247,478.2876647717967 L372.79705160856247,478.2876647717967 z" id="svg_176"/>
	<line class="st3" x1="399.9811578378649" y1="402.54714667940425" x2="383.9519100182042" y2="478.19393223524094" id="svg_177"/>
	<path class="st10" d="M422.10337525606155,478.7563560612216 c10.967376172542572,-16.31045687198639 32.995866775512695,-53.52454525232315 16.40419512987137,-66.64790135622025 c-9.092611014842987,-7.217845857143402 -25.778020918369293,1.6872886419296265 -34.68315541744232,17.6227924823761 c-8.530181467533112,15.466812551021576 -15.185597777366638,31.871007680892944 -19.8725106716156,48.83763235807419 " id="svg_178"/>
	<path class="st35" d="M422.3845900297165,478.94383257699155 c2.624671220779419,-3.8432685732841487 5.061865925788879,-7.6865371465682975 7.405322372913361,-11.717282235622406 c2.8121477365493774,-4.686912894248962 5.436818957328796,-9.561302304267883 7.6865371465682975,-14.529429972171783 c2.343456447124481,-4.874389410018921 4.218221604824066,-9.9362553358078 5.718033730983734,-15.185597777366638 c1.3123356103897095,-4.499436378479004 1.874765157699585,-9.280087530612946 1.499812126159668,-13.967000424861908 c-0.2812147736549378,-4.030745089054108 -2.0622416734695435,-7.7802754044532785 -4.874389410018921,-10.686161398887634 c-1.499812126159668,-1.499812126159668 -3.374577283859253,-2.5309329628944397 -5.343080699443817,-3.1871007680892944 c-2.1559799313545227,-0.5624295473098756 -4.311959862709045,-0.6561678051948548 -6.467939794063568,-0.2812147736549378 c-5.155604183673859,0.8436443209648132 -9.9362553358078,3.6557920575141907 -13.967000424861908,7.030369341373444 c-2.343456447124481,1.9685034155845642 -4.499436378479004,4.218221604824066 -6.467939794063568,6.655416309833527 c-2.0622416734695435,2.718409478664398 -3.8432685732841487,5.530557215213776 -5.436818957328796,8.530181467533112 c-3.468315541744232,6.467939794063568 -6.561678051948547,13.029617846012115 -9.373825788497925,19.77877241373062 c-2.9058859944343567,7.030369341373444 -5.436818957328796,14.248215198516846 -7.6865371465682975,21.466061055660248 c-0.5624295473098756,1.874765157699585 -1.124859094619751,3.6557920575141907 -1.6872886419296265,5.530557215213776 c0,0.1874765157699585 0.09373825788497925,0.46869128942489624 0.374953031539917,0.46869128942489624 c0.1874765157699585,0 0.374953031539917,-0.09373825788497925 0.46869128942489624,-0.2812147736549378 c2.0622416734695435,-7.217845857143402 4.405698120594025,-14.435691714286804 7.124107599258423,-21.466061055660248 c2.624671220779419,-6.749154567718506 5.530557215213776,-13.404570877552032 8.81139624118805,-19.8725106716156 c2.999624252319336,-5.999248504638672 6.18672502040863,-11.904758751392365 10.779899656772614,-16.872886419296265 c3.74953031539917,-4.124483346939087 8.342704951763153,-7.405322372913361 13.592047393321991,-9.373825788497925 c4.030745089054108,-1.4060738682746887 8.71765798330307,-1.7810268998146057 12.56092655658722,0.5624295473098756 c3.2808390259742737,2.1559799313545227 5.624295473098755,5.624295473098755 6.374201536178589,9.467564046382904 c0.749906063079834,4.405698120594025 0.6561678051948548,8.998872756958008 -0.46869128942489624,13.310832619667053 c-1.124859094619751,5.155604183673859 -2.8121477365493774,10.123731851577759 -4.9681276679039,14.9043830037117 c-2.1559799313545227,4.9681276679039 -4.593174636363983,9.842517077922821 -7.311584115028381,14.529429972171783 c-2.343456447124481,4.218221604824066 -4.874389410018921,8.248966693878174 -7.49906063079834,12.279711782932281 c-0.5624295473098756,0.8436443209648132 -1.0311208367347717,1.5935503840446474 -1.5935503840446474,2.4371947050094604 C421.63468396663666,478.8500943191066 422.10337525606155,479.2250473506465 422.3845900297165,478.94383257699155 L422.3845900297165,478.94383257699155 z" id="svg_179"/>
	<line class="st3" x1="434.7580286278753" y1="410.6086425788417" x2="405.51170933174944" y2="479.6000061035156" id="svg_180"/>
	<path class="st10" d="M412.16711992025375,478.1939265139117 c14.435691714286804,-20.528678476810455 26.902880012989044,-25.96549743413925 38.71390050649643,-24.371947050094604 c9.186349272727966,1.3123356103897095 10.592423141002655,10.779899656772614 -8.71765798330307,24.278208792209625 " id="svg_181"/>
	<path class="st35" d="M412.3545964360237,478.2876647717967 c1.4060738682746887,-1.6872886419296265 2.718409478664398,-3.5620537996292114 4.030745089054108,-5.249342441558838 c1.2185973525047302,-1.5935503840446474 2.5309329628944397,-3.093362510204315 3.9370068311691284,-4.593174636363983 c2.343456447124481,-2.5309329628944397 4.780651152133942,-4.9681276679039 7.49906063079834,-7.124107599258423 c4.124483346939087,-3.374577283859253 8.998872756958008,-5.718033730983734 14.154476940631866,-6.936631083488464 c2.1559799313545227,-0.46869128942489624 4.405698120594025,-0.5624295473098756 6.655416309833527,-0.46869128942489624 c1.874765157699585,0 3.6557920575141907,0.374953031539917 5.343080699443817,1.124859094619751 c1.2185973525047302,0.5624295473098756 2.249718189239502,1.5935503840446474 2.718409478664398,2.9058859944343567 c0.46869128942489624,1.499812126159668 0.374953031539917,3.1871007680892944 -0.2812147736549378,4.593174636363983 c-0.9373825788497925,2.249718189239502 -2.249718189239502,4.311959862709045 -3.9370068311691284,6.092986762523651 c-2.4371947050094604,2.718409478664398 -5.155604183673859,5.155604183673859 -8.061490178108215,7.311584115028381 l-2.5309329628944397,1.9685034155845642 c-0.2812147736549378,0.1874765157699585 0.09373825788497925,0.5624295473098756 0.374953031539917,0.46869128942489624 c3.468315541744232,-2.1559799313545227 6.655416309833527,-4.780651152133942 9.467564046382904,-7.6865371465682975 c1.9685034155845642,-1.874765157699585 3.6557920575141907,-4.124483346939087 4.874389410018921,-6.561678051948547 c1.4060738682746887,-2.9058859944343567 1.7810268998146057,-6.561678051948547 -1.0311208367347717,-8.81139624118805 c-1.3123356103897095,-1.0311208367347717 -2.9058859944343567,-1.5935503840446474 -4.593174636363983,-1.7810268998146057 c-2.249718189239502,-0.374953031539917 -4.593174636363983,-0.374953031539917 -6.842892825603485,-0.09373825788497925 c-5.249342441558838,0.6561678051948548 -10.217470109462738,2.718409478664398 -14.529429972171783,5.811771988868713 c-6.092986762523651,4.311959862709045 -11.15485268831253,10.02999359369278 -15.560550808906557,16.02924209833145 c-0.749906063079834,0.9373825788497925 -1.4060738682746887,1.874765157699585 -1.9685034155845642,2.9058859944343567 C411.8859051465988,478.2876647717967 412.16711992025375,478.47514128756666 412.3545964360237,478.2876647717967 L412.3545964360237,478.2876647717967 z" id="svg_182"/>
	<line class="st3" x1="449.0999992482648" y1="453.82198518514633" x2="427.07150864529467" y2="478.00644427681254" id="svg_183"/>
	<line class="st36" x1="0" y1="478.85008287644814" x2="468.69128942489624" y2="478.85008287644814" id="svg_184"/>
	<path class="st37" d="M48.93137061595917,430.9498445398822 c-3.2808390259742737,-11.061114430427551 -11.717282235622406,-35.2455849647522 2.1559799313545227,-66.17921006679535 c15.748027324676514,22.49718189239502 13.592047393321991,47.24408197402954 8.998872756958008,70.58490818738937 " id="svg_185"/>
	<path class="st38" d="M51.08735054731369,364.77063447308683 c0,0 -5.343080699443817,29.246336460113525 1.874765157699585,68.42892825603485 " id="svg_186"/>
	<path class="st38" d="M53.99323654174805,433.4807775027766 c0,0 2.9058859944343567,-52.30594789981842 -2.9058859944343567,-68.71014302968979 " id="svg_187"/>
	<path class="st38" d="M55.86800169944763,433.85573053431654 c0,0 8.436443209648132,-48.27520281076431 -4.780651152133942,-69.0850960612297 " id="svg_188"/>
	<path class="st37" d="M38.057732701301575,438.26142865491056 c-6.561678051948547,-5.905510246753693 -21.841014087200165,-18.185222029685974 -23.80951750278473,-44.90062552690506 c19.028866350650787,6.936631083488464 27.746524333953857,25.309329628944397 33.46455806493759,42.838383853435516 " id="svg_189"/>
	<path class="st38" d="M14.248215198516846,393.3608031280055 c0,0 6.655416309833527,22.49718189239502 26.809141755104065,45.27557855844498 " id="svg_190"/>
	<path class="st38" d="M44.244457721710205,437.04283130240583 c0,0 -22.215967118740082,-32.24596071243286 -29.99624252319336,-43.58828991651535 " id="svg_191"/>
	<path class="st38" d="M45.74426984786987,436.386663497211 c0,0 -15.373074293136595,-32.43343722820282 -31.496054649353027,-43.025860369205475 " id="svg_192"/>
	<path class="st37" d="M44.244457721710205,431.699750602962 c-5.249342441558838,-7.6865371465682975 -20.434940218925476,-30.839886844158173 -15.841765582561491,-55.493048667907715 c17.6227924823761,13.217094361782074 24.653161823749542,39.46380656957626 26.15297394990921,57.18033730983734 " id="svg_193"/>
	<path class="st38" d="M28.49643039703369,376.2067019350543 c0,0 6.561678051948547,36.932873606681824 18.185222029685974,55.68052518367767 " id="svg_194"/>
	<path class="st38" d="M49.02510887384415,432.82460969758176 c0,0 -15.748027324676514,-49.306323647499084 -20.622416734695435,-56.617907762527466 " id="svg_195"/>
	<path class="st38" d="M52.21220964193344,433.1995627291217 c0,0 -9.467564046382904,-44.52567249536514 -23.71577924489975,-56.99286079406738 " id="svg_196"/>
	<path class="st37" d="M69.46004909276962,431.2310593135371 c4.499436378479004,-9.9362553358078 15.373074293136595,-31.496054649353027 7.874013662338257,-63.46080058813095 c-16.40419512987137,17.060362935066223 -18.65391331911087,42.55716907978058 -18.185222029685974,65.71051877737045 " id="svg_197"/>
	<path class="st38" d="M77.33406275510788,367.6765204675212 l-13.592047393321991,64.67939794063568 " id="svg_198"/>
	<path class="st38" d="M77.33406275510788,367.6765204675212 c0,0 1.7810268998146057,28.965121686458588 -10.311208367347717,64.96061271429062 " id="svg_199"/>
	<path class="st38" d="M61.11734414100647,432.7308714396968 c0,0 3.374577283859253,-43.49455165863037 16.21671861410141,-65.0543509721756 " id="svg_200"/>
	<path class="st37" d="M69.92874038219452,441.6360059387698 c5.811771988868713,-6.655416309833527 20.622416734695435,-23.247087955474854 21.841014087200165,-45.556793332099915 c-17.154101192951202,10.02999359369278 -24.371947050094604,28.402692139148712 -28.87138342857361,45.556793332099915 " id="svg_201"/>
	<path class="st38" d="M91.76975446939468,396.1729508645549 c0,0 -10.686161398887634,28.215215623378754 -23.80951750278473,44.52567249536514 " id="svg_202"/>
	<path class="st38" d="M64.77313619852066,440.69862335992 c0,0 16.02924209833145,-33.83951109647751 26.996618270874023,-44.52567249536514 " id="svg_203"/>
	<path class="st19" d="M82.86461997032166,429.35629415583753 v10.498684883117676 c0,23.340826213359833 -11.24859094619751,38.33894747495651 -11.24859094619751,38.33894747495651 H36.651658833026886 c0,0 -11.342329204082489,-14.99812126159668 -11.342329204082489,-38.33894747495651 V429.35629415583753 H82.86461997032166 z" id="svg_204"/>
</g></g></svg>