<svg xmlns:x="http://ns.adobe.com/Extensibility/1.0/" xmlns:i="http://ns.adobe.com/AdobeIllustrator/10.0/" xmlns:graph="http://ns.adobe.com/Graphs/1.0/" xmlns="http://www.w3.org/2000/svg" xmlns:xlink="http://www.w3.org/1999/xlink" version="1.1" style="" xml:space="preserve" width="500" height="479.79998779296875"><rect id="backgroundrect" width="100%" height="100%" x="0" y="0" fill="none" stroke="none"/>
<style type="text/css">
	.st0{fill:none;stroke:#ADBBF9;stroke-linejoin:round;stroke-dasharray:3.5,3.5;}
	.st1{fill:#E4E9F9;}
	.st2{fill:#FFFFFF;stroke:#ADBBF9;stroke-linejoin:round;}
	.st3{fill:none;stroke:#ADBBF9;stroke-linejoin:round;}
	.st4{fill:#00206A;}
	.st5{fill:#0948B3;}
	.st6{fill:none;stroke:#EBEBEB;stroke-miterlimit:10;}
	.st7{clip-path:url(#SVGID_2_);}
	.st8{fill:url(#SVGID_3_);}
	.st9{fill:url(#SVGID_4_);}
	.st10{fill:#FFFFFF;}
	.st11{fill:none;stroke:#4643BF;stroke-miterlimit:10;}
	.st12{fill:#D3DBF4;}
	.st13{fill:none;stroke:#FFFFFF;stroke-miterlimit:10;}
	.st14{fill:#E3EAFC;}
	.st15{fill:#F0F1FF;}
	.st16{fill:#C2CFEF;}
	.st17{fill:none;stroke:#D3DBF4;stroke-miterlimit:10;}
	.st18{fill:#FFCBBD;}
	.st19{fill:#E5EAF9;}
	.st20{fill:none;stroke:#121649;stroke-width:0.75;stroke-miterlimit:10;}
	.st21{fill:#F1F1F1;}
	.st22{fill:none;stroke:#1A3987;stroke-width:0.75;stroke-miterlimit:10;}
	.st23{fill:#212237;}
	.st24{fill:none;stroke:#E88872;stroke-width:0.5;stroke-linejoin:round;}
	.st25{fill:#28364C;}
	.st26{fill:none;stroke:#28364C;stroke-width:0.75;stroke-miterlimit:10;}
	.st27{fill:#EE5050;}
	.st28{fill:none;stroke:#A52F2D;stroke-width:0.75;stroke-miterlimit:10;}
	.st29{fill:none;stroke:#5565AA;stroke-width:0.75;stroke-miterlimit:10;}
	.st30{fill-rule:evenodd;clip-rule:evenodd;fill:#FFCBBB;}
	.st31{fill:none;stroke:#28364C;stroke-width:0.5;stroke-linecap:round;stroke-linejoin:round;}
	.st32{fill:none;stroke:#EF977F;stroke-miterlimit:10;}
	.st33{fill:#14122D;}
	.st34{fill:#FFCBBB;}
	.st35{fill:#ADBBF9;}
	.st36{fill:none;stroke:#E5EAF9;stroke-miterlimit:10;}
	.st37{fill:#FFFFFF;stroke:#C5C8EF;stroke-linejoin:round;}
	.st38{fill:none;stroke:#C5C8EF;stroke-linejoin:round;}
</style>
<metadata>
	<sfw xmlns="http://ns.adobe.com/SaveForWeb/1.0/">
		<slices/>
		<sliceSourceBounds bottomLeftOrigin="true" height="479.8" width="500" x="0" y="0"/>
	</sfw>
</metadata>

<g class="currentLayer" style=""><title>Layer 1</title><g id="Screen" class="selected">
	<path class="st0" d="M153.16397018001453,350.77208376966627 c-4.935283483578246,-16.93312781434605 -18.89022298886846,-29.952065279647286 -37.014626126836845,-30.37752075236955 c-10.551295723512112,-0.25527328363335766 -20.67713597430196,4.254554727222626 -29.69679199601393,9.360020399889777 c-12.082935425312257,6.9774697526451055 -26.37823930878028,15.316397018001453 -40.84372538133721,13.18911965439014 c-9.274929305345324,-1.3614575127112405 -20.2516805015797,-6.552014279922844 -22.464048959735464,-17.27349219252386 c-2.297459552700218,-11.402206668956637 6.892378658100654,-19.145496272501816 16.677854530712693,-23.740415377902252 c8.4240183599008,-3.9141903490448158 20.2516805015797,-13.274210748934593 23.99568866153561,-22.208775676102107 c14.976032639823643,-35.56807751958115 -26.973876970591448,-76.156529617285 -15.061123734368095,-116.6598906204444 c12.423299803490067,-42.37536508313735 69.68960643190661,-49.523017024871365 98.53548748247601,-20.762227068846414 c2.808006119966933,2.7229150254224805 5.360738956300509,5.701103334478319 7.743289603545179,8.849473832623062 c5.871285523567224,7.8283806980896316 9.360020399889777,18.464767516146196 17.52876547615722,24.250961945168967 c10.551295723512112,7.573107414456274 24.33605303971342,5.1905567672116035 35.73825970867006,0.6807287563556202 c21.783320203379844,-8.594200548989704 27.569514632402615,-14.295303883468023 48.842288268515745,-23.570233188813347 c15.316397018001453,-6.637105374467296 34.20662000686991,-12.593481992578972 51.39502110484932,-6.72219646901175 c12.338208708945615,4.254554727222626 25.952783836058018,11.912753236223352 32.84516249415867,22.889504432457727 c12.84875527621233,20.59204487975751 7.06256084718956,42.71572946131516 27.314241348769258,71.90197489006238 c9.189838210800872,13.274210748934593 23.825506472446705,16.93312781434605 35.39789533049225,26.548421497869185 c30.207338563280643,24.761508512435682 20.081498312490794,77.09253165727398 -12.84875527621233,94.96166151160901 c-27.0589680651359,14.720759356190285 -60.329586032016834,11.317115574412185 -89.6009225553085,7.573107414456274 c-2.2123684581557654,-0.25527328363335766 -4.509828010855983,-0.5956376618111677 -6.72219646901175,-0.9360020399889777 " id="svg_1"/>
	<path class="st1" d="M367.08298186476816,158.12584572102577 c5.1905567672116035,-5.956376618111676 8.934564927167514,-12.933846370756783 10.891660101689922,-20.59204487975751 l-10.040749156245397,-3.5738259708670057 c0.7658198509000728,-3.4036437817781007 1.1061842290778827,-6.9774697526451055 0.9360020399889777,-10.46620462896766 l10.551295723512112,-1.6167307963445978 c-0.5105465672667153,-7.8283806980896316 -2.8930972145113856,-15.486579207090358 -6.892378658100654,-22.29386677064656 l-9.615293683523134,4.594919105400436 c-1.8720040799779554,-2.978188309055838 -4.084372538133721,-5.701103334478319 -6.72219646901175,-8.083653981722989 l6.296740996289486,-8.594200548989704 c-5.871285523567224,-5.1905567672116035 -12.933846370756783,-8.934564927167514 -20.59204487975751,-10.891660101689922 l-3.5738259708670057,10.040749156245397 c-3.4036437817781007,-0.7658198509000728 -6.9774697526451055,-1.1061842290778827 -10.46620462896766,-0.9360020399889777 l-1.6167307963445978,-10.551295723512112 c-7.8283806980896316,0.5105465672667153 -15.486579207090358,2.808006119966933 -22.29386677064656,6.807287563556201 l4.594919105400436,9.615293683523134 c-2.978188309055838,1.8720040799779554 -5.701103334478319,4.169463632678173 -8.168745076267442,6.72219646901175 l-8.594200548989704,-6.296740996289486 c-5.1905567672116035,5.871285523567224 -8.934564927167514,12.933846370756783 -10.891660101689922,20.59204487975751 l10.040749156245397,3.5738259708670057 c-0.7658198509000728,3.4036437817781007 -1.1061842290778827,6.9774697526451055 -0.9360020399889777,10.46620462896766 l-10.551295723512112,1.6167307963445978 c0.5105465672667153,7.8283806980896316 2.8930972145113856,15.486579207090358 6.892378658100654,22.29386677064656 l9.615293683523134,-4.594919105400436 c1.8720040799779554,2.978188309055838 4.084372538133721,5.701103334478319 6.72219646901175,8.083653981722989 l-6.296740996289486,8.594200548989704 c5.956376618111676,5.1905567672116035 12.933846370756783,8.934564927167514 20.59204487975751,10.891660101689922 l3.5738259708670057,-10.040749156245397 c3.4036437817781007,0.7658198509000728 6.9774697526451055,1.1061842290778827 10.46620462896766,0.9360020399889777 l1.7018218908890508,10.551295723512112 c7.8283806980896316,-0.5105465672667153 15.486579207090358,-2.8930972145113856 22.29386677064656,-6.892378658100654 l-4.594919105400436,-9.615293683523134 c2.978188309055838,-1.8720040799779554 5.701103334478319,-4.084372538133721 8.083653981722989,-6.72219646901175 L367.08298186476816,158.12584572102577 zM317.7301470289857,147.1490945247914 c-12.253117614401162,-6.466923185378391 -16.93312781434605,-21.528046919746487 -10.46620462896766,-33.78116453414765 s21.528046919746487,-16.93312781434605 33.78116453414765,-10.46620462896766 s16.93312781434605,21.528046919746487 10.46620462896766,33.78116453414765 c0,0 0,0 0,0 C345.04438837775496,148.85091641568044 329.98326464338686,153.53092661562533 317.7301470289857,147.1490945247914 zM321.1337908107638,140.76726243395746 c-8.679291643534157,-4.594919105400436 -11.997844330767805,-15.316397018001453 -7.402925225367369,-23.99568866153561 s15.316397018001453,-11.997844330767805 23.99568866153561,-7.402925225367369 c8.679291643534157,4.594919105400436 11.997844330767805,15.316397018001453 7.402925225367369,23.99568866153561 c0,0 0,0 0,0 C340.534560366899,142.04362885212424 329.81308245429796,145.3621815393579 321.1337908107638,140.76726243395746 C321.1337908107638,140.76726243395746 321.1337908107638,140.76726243395746 321.1337908107638,140.76726243395746 z" id="svg_2"/>
	<path class="st1" d="M138.5283019183687,182.29171657165028 c2.808006119966933,-3.9992814435892683 4.680010199944888,-8.509109454445252 5.445830050844961,-13.359301843479045 l-6.381832090833939,-1.6167307963445978 c0.25527328363335766,-2.2123684581557654 0.25527328363335766,-4.339645821767078 -0.08509109454445256,-6.552014279922844 l6.381832090833939,-1.7018218908890508 c-0.7658198509000728,-4.8501923890337935 -2.7229150254224805,-9.360020399889777 -5.616012239933866,-13.274210748934593 l-5.701103334478319,3.4036437817781007 c-1.3614575127112405,-1.7018218908890508 -2.8930972145113856,-3.2334615926891956 -4.594919105400436,-4.594919105400436 l3.3185526872336486,-5.701103334478319 c-3.9992814435892683,-2.808006119966933 -8.509109454445252,-4.680010199944888 -13.359301843479045,-5.445830050844961 l-1.6167307963445978,6.381832090833939 c-2.127277363611313,-0.25527328363335766 -4.339645821767078,-0.25527328363335766 -6.466923185378391,0 l-1.7018218908890508,-6.381832090833939 c-4.8501923890337935,0.7658198509000728 -9.360020399889777,2.7229150254224805 -13.274210748934593,5.616012239933866 l3.4036437817781007,5.701103334478319 c-1.7018218908890508,1.3614575127112405 -3.2334615926891956,2.8930972145113856 -4.594919105400436,4.594919105400436 l-5.701103334478319,-3.3185526872336486 c-2.808006119966933,3.9992814435892683 -4.680010199944888,8.509109454445252 -5.445830050844961,13.359301843479045 l6.381832090833939,1.5316397018001453 c-0.25527328363335766,2.2123684581557654 -0.25527328363335766,4.339645821767078 0.08509109454445256,6.552014279922844 l-6.381832090833939,1.6167307963445978 c0.7658198509000728,4.8501923890337935 2.7229150254224805,9.360020399889777 5.616012239933866,13.274210748934593 l5.701103334478319,-3.4036437817781007 c1.3614575127112405,1.7018218908890508 2.8930972145113856,3.2334615926891956 4.594919105400436,4.594919105400436 l-3.3185526872336486,5.701103334478319 c1.9570951745224079,1.4465486072556928 4.084372538133721,2.637823930878028 6.381832090833939,3.4887348763225527 c2.2123684581557654,0.9360020399889777 4.594919105400436,1.5316397018001453 6.9774697526451055,1.9570951745224079 l1.6167307963445978,-6.381832090833939 c2.127277363611313,0.25527328363335766 4.339645821767078,0.25527328363335766 6.466923185378391,-0.08509109454445256 l1.7018218908890508,6.381832090833939 c4.8501923890337935,-0.7658198509000728 9.360020399889777,-2.7229150254224805 13.274210748934593,-5.616012239933866 l-3.4036437817781007,-5.616012239933866 c1.7018218908890508,-1.3614575127112405 3.2334615926891956,-2.8930972145113856 4.594919105400436,-4.594919105400436 L138.5283019183687,182.29171657165028 zM107.47005240964353,178.63279950623883 c-7.913471792634084,-3.2334615926891956 -11.742571047134447,-12.253117614401162 -8.509109454445252,-20.166589407035246 s12.253117614401162,-11.742571047134447 20.166589407035246,-8.509109454445252 s11.742571047134447,12.253117614401162 8.509109454445252,20.166589407035246 c0,0 0,0 0,0 C124.40318022398958,178.03716184442766 115.38352420227761,181.86626109892802 107.47005240964353,178.63279950623883 zM109.1718743005326,174.46333587356065 c-5.701103334478319,-2.297459552700218 -8.4240183599008,-8.76438273807861 -6.126558807200581,-14.380394978012474 s8.76438273807861,-8.4240183599008 14.380394978012474,-6.126558807200581 c5.701103334478319,2.297459552700218 8.4240183599008,8.76438273807861 6.126558807200581,14.380394978012474 c0,0 0,0 0,0.08509109454445256 l0,0 C121.25480972584484,174.0378804008384 114.78788654046645,176.76079542626087 109.1718743005326,174.46333587356065 z" id="svg_3"/>
	<path class="st1" d="M163.97053918716,123.32358805234469 c1.1061842290778827,-1.2763664181667878 2.127277363611313,-2.637823930878028 2.8930972145113856,-4.169463632678173 c0.7658198509000728,-1.5316397018001453 1.3614575127112405,-3.148370498144743 1.7869129854335029,-4.765101294489341 l-4.339645821767078,-1.5316397018001453 c0.3403643781778101,-1.4465486072556928 0.5105465672667153,-2.978188309055838 0.42545547272226264,-4.509828010855983 l4.594919105400436,-0.6807287563556202 c-0.25527328363335766,-3.4036437817781007 -1.2763664181667878,-6.637105374467296 -2.978188309055838,-9.615293683523134 l-4.169463632678173,1.9570951745224079 c-0.8509109454445252,-1.2763664181667878 -1.7869129854335029,-2.467641741789123 -2.8930972145113856,-3.5738259708670057 l2.7229150254224805,-3.7440081599559107 c-2.5527328363335755,-2.2123684581557654 -5.616012239933866,-3.8290992545003633 -8.934564927167514,-4.680010199944888 l-1.5316397018001453,4.339645821767078 c-1.4465486072556928,-0.3403643781778101 -2.978188309055838,-0.5105465672667153 -4.509828010855983,-0.42545547272226264 l-0.6807287563556202,-4.594919105400436 c-3.4036437817781007,0.25527328363335766 -6.72219646901175,1.2763664181667878 -9.700384778067587,2.978188309055838 l1.9570951745224079,4.169463632678173 c-1.2763664181667878,0.7658198509000728 -2.467641741789123,1.7869129854335029 -3.4887348763225527,2.8930972145113856 l-3.7440081599559107,-2.7229150254224805 c-1.1061842290778827,1.2763664181667878 -2.0421862690668604,2.7229150254224805 -2.8930972145113856,4.169463632678173 c-0.7658198509000728,1.5316397018001453 -1.4465486072556928,3.148370498144743 -1.8720040799779554,4.765101294489341 l4.424736916311531,1.5316397018001453 c-0.3403643781778101,1.4465486072556928 -0.5105465672667153,2.978188309055838 -0.42545547272226264,4.509828010855983 l-4.594919105400436,0.6807287563556202 c0.25527328363335766,3.4036437817781007 1.2763664181667878,6.637105374467296 2.978188309055838,9.615293683523134 l4.169463632678173,-1.9570951745224079 c0.7658198509000728,1.2763664181667878 1.7869129854335029,2.467641741789123 2.8930972145113856,3.4887348763225527 l-2.808006119966933,3.7440081599559107 c2.5527328363335755,2.297459552700218 5.616012239933866,3.9141903490448158 8.934564927167514,4.765101294489341 l1.5316397018001453,-4.424736916311531 c1.4465486072556928,0.3403643781778101 2.978188309055838,0.5105465672667153 4.509828010855983,0.42545547272226264 l0.6807287563556202,4.594919105400436 c3.4036437817781007,-0.25527328363335766 6.637105374467296,-1.2763664181667878 9.615293683523134,-2.978188309055838 L156.56761396179263,123.40867914688914 c1.2763664181667878,-0.7658198509000728 2.467641741789123,-1.7869129854335029 3.4887348763225527,-2.8930972145113856 L163.97053918716,123.32358805234469 zM144.0592230637581,115.92066282697732 c-3.8290992545003633,-2.0421862690668604 -5.275647861756056,-6.72219646901175 -3.2334615926891956,-10.551295723512112 c2.0421862690668604,-3.8290992545003633 6.72219646901175,-5.275647861756056 10.551295723512112,-3.2334615926891956 c3.8290992545003633,2.0421862690668604 5.275647861756056,6.72219646901175 3.2334615926891956,10.551295723512112 l0,0 C152.56833251820336,116.43120939424404 147.88832231825847,117.87775800149973 144.0592230637581,115.92066282697732 z" id="svg_4"/>
	<path class="st2" d="M76.32671180637391,187.8226377170397 c0,-0.5956376618111677 -0.08509109454445256,-1.1912753236223352 -0.17018218908890503,-1.7869129854335029 c-0.5956376618111677,-5.275647861756056 -4.169463632678173,-4.765101294489341 -6.466923185378391,-4.594919105400436 s-5.0203745781226985,0.25527328363335766 -6.126558807200581,-2.2123684581557654 c-0.5105465672667153,-1.0210931345334302 -0.42545547272226264,-2.3825506472446705 -0.7658198509000728,-3.4887348763225527 c-0.5956376618111677,-2.3825506472446705 -2.7229150254224805,-3.9992814435892683 -5.105465672667151,-4.084372538133721 c-2.2123684581557654,0 -4.254554727222626,1.2763664181667878 -6.041467712656129,2.808006119966933 c-0.9360020399889777,0.7658198509000728 -1.9570951745224079,1.7869129854335029 -3.0632794036002906,1.4465486072556928 c-0.7658198509000728,-0.3403643781778101 -1.3614575127112405,-0.8509109454445252 -1.7018218908890508,-1.6167307963445978 c-2.5527328363335755,-4.169463632678173 -2.5527328363335755,-10.296022439878755 -5.360738956300509,-14.21021278892357 c-3.148370498144743,-4.339645821767078 -8.934564927167514,-4.424736916311531 -12.84875527621233,-1.2763664181667878 s-6.211649901745034,8.76438273807861 -7.232743036278464,14.465486072556928 c-0.3403643781778101,1.8720040799779554 -0.5956376618111677,3.8290992545003633 -1.7869129854335029,5.105465672667151 c-1.6167307963445978,1.7869129854335029 -4.084372538133721,1.1912753236223352 -6.296740996289486,0.9360020399889777 c-2.5527328363335755,-0.42545547272226264 -5.1905567672116035,0.25527328363335766 -7.232743036278464,1.9570951745224079 c-1.7869129854335029,1.7018218908890508 -2.7229150254224805,4.169463632678173 -2.5527328363335755,6.637105374467296 h72.7528858355069 V187.8226377170397 z" id="svg_5"/>
	<path class="st2" d="M206.94154193210852,99.66826376898689 h71.64670160642902 c0,0 -2.8930972145113856,-3.3185526872336486 -6.126558807200581,-4.509828010855983 c-4.084372538133721,-1.4465486072556928 -5.786194429022771,2.5527328363335755 -8.338927265356347,-2.637823930878028 c-1.4465486072556928,-2.8930972145113856 -2.467641741789123,-6.72219646901175 -6.296740996289486,-7.743289603545179 c-5.956376618111676,-1.5316397018001453 -7.4880163199118215,3.4036437817781007 -10.296022439878755,2.0421862690668604 c-2.467641741789123,-1.1912753236223352 -2.3825506472446705,-5.871285523567224 -4.935283483578246,-9.700384778067587 s-8.4240183599008,-6.126558807200581 -12.50839089803452,-4.169463632678173 c-7.4880163199118215,3.6589170654114582 -6.466923185378391,9.44511149443423 -8.934564927167514,11.317115574412185 s-7.913471792634084,-4.765101294489341 -14.12512169437912,2.3825506472446705 C202.6869872048859,91.5846097872639 206.94154193210852,99.66826376898689 206.94154193210852,99.66826376898689 z" id="svg_6"/>
	<path class="st3" d="M281.65152294213783,75.07693744564011 c0,1.7018218908890508 -1.4465486072556928,3.148370498144743 -3.148370498144743,3.148370498144743 s-3.148370498144743,-1.4465486072556928 -3.148370498144743,-3.148370498144743 c0,0 0,0 0,0 c0,-1.7018218908890508 1.3614575127112405,-3.148370498144743 3.0632794036002906,-3.148370498144743 c0,0 0.08509109454445256,0 0.08509109454445256,0 l0,0 C280.20497433488214,71.92856694749537 281.65152294213783,73.29002446020661 281.65152294213783,75.07693744564011 C281.65152294213783,75.07693744564011 281.65152294213783,75.07693744564011 281.65152294213783,75.07693744564011 z" id="svg_7"/>
	<path class="st3" d="M338.74764738146547,198.11866015691845 c0,1.7018218908890508 -1.4465486072556928,3.148370498144743 -3.148370498144743,3.148370498144743 c-1.7018218908890508,0 -3.148370498144743,-1.4465486072556928 -3.148370498144743,-3.148370498144743 c0,-1.7018218908890508 1.4465486072556928,-3.148370498144743 3.148370498144743,-3.148370498144743 l0,0 C337.3010987742098,194.9702896587737 338.74764738146547,196.33174717148495 338.74764738146547,198.11866015691845 C338.74764738146547,198.11866015691845 338.74764738146547,198.11866015691845 338.74764738146547,198.11866015691845 z" id="svg_8"/>
	<path class="st3" d="M78.19871588635186,117.53739362332192 c0,1.7018218908890508 -1.4465486072556928,3.148370498144743 -3.148370498144743,3.148370498144743 c-1.7018218908890508,0 -3.148370498144743,-1.4465486072556928 -3.148370498144743,-3.148370498144743 s1.4465486072556928,-3.148370498144743 3.148370498144743,-3.148370498144743 l0,0 l0,0 C76.75216727909617,114.38902312517718 78.19871588635186,115.83557173243287 78.19871588635186,117.53739362332192 z" id="svg_9"/>
	<path class="st3" d="M115.38352420227761,103.2420897398539 c0,1.1912753236223352 -0.9360020399889777,2.127277363611313 -2.127277363611313,2.127277363611313 s-2.127277363611313,-0.9360020399889777 -2.127277363611313,-2.127277363611313 s0.9360020399889777,-2.127277363611313 2.127277363611313,-2.127277363611313 l0,0 C114.44752216228864,101.11481237624258 115.38352420227761,102.05081441623156 115.38352420227761,103.2420897398539 z" id="svg_10"/>
	<circle class="st3" cx="308.1999616457906" cy="183.73826122850005" r="2.1272774177175506" id="svg_11"/>
	<path class="st3" d="M394.31213211899296,130.04578452135644 c0,1.1912753236223352 -0.9360020399889777,2.127277363611313 -2.127277363611313,2.127277363611313 s-2.127277363611313,-0.9360020399889777 -2.127277363611313,-2.127277363611313 s0.9360020399889777,-2.127277363611313 2.127277363611313,-2.127277363611313 c1.1061842290778827,0 2.127277363611313,0.8509109454445252 2.127277363611313,1.9570951745224079 C394.31213211899296,129.96069342681199 394.31213211899296,129.96069342681199 394.31213211899296,130.04578452135644 z" id="svg_12"/>
	<path class="st3" d="M389.802304108137,286.44321629406016 c0,1.1912753236223352 -0.9360020399889777,2.127277363611313 -2.127277363611313,2.127277363611313 s-2.127277363611313,-0.9360020399889777 -2.127277363611313,-2.127277363611313 s0.9360020399889777,-2.127277363611313 2.127277363611313,-2.127277363611313 C388.866302068148,284.31593893044885 389.802304108137,285.25194097043783 389.802304108137,286.44321629406016 C389.802304108137,286.44321629406016 389.802304108137,286.44321629406016 389.802304108137,286.44321629406016 z" id="svg_13"/>
	<path class="st3" d="M58.20230866840552,306.9501700792732 c0,1.1912753236223352 -0.9360020399889777,2.127277363611313 -2.127277363611313,2.127277363611313 s-2.127277363611313,-0.9360020399889777 -2.127277363611313,-2.127277363611313 s0.9360020399889777,-2.127277363611313 2.127277363611313,-2.127277363611313 l0,0 C57.266306628416544,304.8228927156619 58.20230866840552,305.7588947556509 58.20230866840552,306.9501700792732 C58.20230866840552,306.9501700792732 58.20230866840552,306.9501700792732 58.20230866840552,306.9501700792732 z" id="svg_14"/>
	<path class="st3" d="M64.58414075923946,209.35068463678618 c0,1.1912753236223352 -0.9360020399889777,2.127277363611313 -2.127277363611313,2.127277363611313 s-2.127277363611313,-0.9360020399889777 -2.127277363611313,-2.127277363611313 s0.9360020399889777,-2.127277363611313 2.127277363611313,-2.127277363611313 l0,0 C63.64813871925048,207.22340727317487 64.58414075923946,208.15940931316385 64.58414075923946,209.35068463678618 C64.58414075923946,209.35068463678618 64.58414075923946,209.35068463678618 64.58414075923946,209.35068463678618 z" id="svg_15"/>
	<path class="st1" d="M33.610982345058744,317.50146580278533 h2.8930972145113856 c0.5105465672667153,0 0.9360020399889777,0.42545547272226264 0.9360020399889777,0.9360020399889777 v2.8930972145113856 c0,0.5105465672667153 -0.42545547272226264,0.9360020399889777 -0.9360020399889777,0.9360020399889777 h-2.8930972145113856 c-0.5105465672667153,0 -0.9360020399889777,-0.42545547272226264 -0.9360020399889777,-0.9360020399889777 v-2.8930972145113856 C32.67498030506977,317.9269212755076 33.10043577779203,317.50146580278533 33.610982345058744,317.50146580278533 z" id="svg_16"/>
	<path class="st1" d="M28.6756988614805,143.49017745937994 h2.8930972145113856 c0.5105465672667153,0 0.9360020399889777,0.42545547272226264 0.9360020399889777,0.9360020399889777 v2.8930972145113856 c0,0.5105465672667153 -0.42545547272226264,0.9360020399889777 -0.9360020399889777,0.9360020399889777 h-2.8930972145113856 c-0.5105465672667153,0 -0.9360020399889777,-0.42545547272226264 -0.9360020399889777,-0.9360020399889777 v-2.8930972145113856 C27.73969682149152,143.9156329321022 28.165152294213783,143.49017745937994 28.6756988614805,143.49017745937994 z" id="svg_17"/>
	<path class="st1" d="M393.376130079004,105.36936710346521 h5.445830050844961 c0.9360020399889777,0 1.7869129854335029,0.7658198509000728 1.7869129854335029,1.7018218908890508 c0,0 0,0.08509109454445256 0,0.08509109454445256 v5.530921145389414 c0,0.9360020399889777 -0.7658198509000728,1.7869129854335029 -1.7018218908890508,1.7869129854335029 c0,0 -0.08509109454445256,0 -0.08509109454445256,0 h-5.445830050844961 c-0.9360020399889777,0 -1.7869129854335029,-0.7658198509000728 -1.7869129854335029,-1.7018218908890508 c0,0 0,-0.08509109454445256 0,-0.08509109454445256 v-5.530921145389414 C391.5892170935705,106.13518695436528 392.35503694447056,105.36936710346521 393.376130079004,105.36936710346521 z" id="svg_18"/>
	<path class="st1" d="M344.70402399957715,246.6205840472564 h2.8930972145113856 c0.5105465672667153,0 0.9360020399889777,0.42545547272226264 0.9360020399889777,0.9360020399889777 v2.8930972145113856 c0,0.5105465672667153 -0.42545547272226264,0.9360020399889777 -0.9360020399889777,0.9360020399889777 h-2.8930972145113856 c-0.5105465672667153,0 -0.9360020399889777,-0.42545547272226264 -0.9360020399889777,-0.9360020399889777 v-2.8930972145113856 C343.76802195958817,247.04603951997865 344.19347743231043,246.6205840472564 344.70402399957715,246.6205840472564 z" id="svg_19"/>
	<path class="st2" d="M282.50243388758236,217.51942971305363 c0,-0.42545547272226264 0.08509109454445256,-0.8509109454445252 0.08509109454445256,-1.2763664181667878 c0.5105465672667153,-3.7440081599559107 3.4036437817781007,-3.4887348763225527 5.275647861756056,-3.3185526872336486 s4.169463632678173,0.17018218908890503 5.0203745781226985,-1.6167307963445978 c0.25527328363335766,-0.8509109454445252 0.5105465672667153,-1.7018218908890508 0.5956376618111677,-2.5527328363335755 c0.6807287563556202,-1.7869129854335029 2.3825506472446705,-2.978188309055838 4.254554727222626,-2.978188309055838 c1.7869129854335029,0.08509109454445256 3.5738259708670057,0.8509109454445252 4.935283483578246,2.0421862690668604 c4.765101294489341,3.5738259708670057 6.126558807200581,-5.871285523567224 8.338927265356347,-8.594200548989704 c2.5527328363335755,-3.148370498144743 7.3178341308229164,-4.8501923890337935 10.551295723512112,-2.637823930878028 s5.105465672667151,6.296740996289486 5.956376618111676,10.381113534423207 c0.25527328363335766,1.3614575127112405 0.3403643781778101,2.978188309055838 1.4465486072556928,3.6589170654114582 c3.148370498144743,2.127277363611313 7.147651941734011,-2.0421862690668604 10.976751196234375,1.1912753236223352 c1.3614575127112405,1.1061842290778827 1.6167307963445978,3.8290992545003633 1.4465486072556928,5.616012239933866 L282.50243388758236,217.51942971305363 z" id="svg_20"/>
	<path class="st4" d="M140.40030599834665,114.64429640881053 h149.33487092551417 c4.339645821767078,0 7.913471792634084,3.4887348763225527 7.913471792634084,7.913471792634084 c0,0 0,0 0,0 v281.05588528032666 c0,4.339645821767078 -3.4887348763225527,7.913471792634084 -7.913471792634084,7.913471792634084 c0,0 0,0 0,0 H140.40030599834665 c-4.339645821767078,0 -7.913471792634084,-3.4887348763225527 -7.913471792634084,-7.913471792634084 c0,0 0,0 0,0 V122.55776820144462 C132.48683420571257,118.21812237967754 136.06066017657957,114.64429640881053 140.40030599834665,114.64429640881053 z" id="svg_21"/>
	<path class="st5" d="M289.7351769238608,115.0697518815328 c4.169463632678173,0 7.4880163199118215,3.3185526872336486 7.4880163199118215,7.4880163199118215 v280.9707941857822 c0,4.169463632678173 -3.3185526872336486,7.4880163199118215 -7.4880163199118215,7.4880163199118215 H140.40030599834665 c-4.169463632678173,0 -7.4880163199118215,-3.3185526872336486 -7.4880163199118215,-7.4880163199118215 V122.55776820144462 c0,-4.169463632678173 3.3185526872336486,-7.4880163199118215 7.4880163199118215,-7.4880163199118215 H289.7351769238608 M289.7351769238608,114.21884093608827 H140.40030599834665 c-4.594919105400436,0 -8.338927265356347,3.7440081599559107 -8.338927265356347,8.338927265356347 l0,0 v280.9707941857822 c0,4.594919105400436 3.7440081599559107,8.338927265356347 8.338927265356347,8.338927265356347 h149.33487092551417 c4.594919105400436,0 8.338927265356347,-3.7440081599559107 8.338927265356347,-8.338927265356347 V122.55776820144462 C298.07410418921717,117.96284909604418 294.33009602926126,114.21884093608827 289.7351769238608,114.21884093608827 z" id="svg_22"/>
	<path class="st6" d="M222.68339442283224,398.3380056200152 c0,4.169463632678173 -3.4036437817781007,7.573107414456274 -7.573107414456274,7.573107414456274 c-4.169463632678173,0 -7.573107414456274,-3.4036437817781007 -7.573107414456274,-7.573107414456274 c0,-4.169463632678173 3.4036437817781007,-7.573107414456274 7.573107414456274,-7.573107414456274 c0,0 0,0 0,0 l0,0 C219.27975064105414,390.76489820555895 222.68339442283224,394.16854198733705 222.68339442283224,398.3380056200152 z" id="svg_23"/>
	<g id="svg_24">
		<defs transform="translate(0,479.6000061035156) scale(0.9373825788497925) translate(0,-479.6000061035156) translate(0,511.6374206542969) scale(0.9077520370483398) translate(0,-511.6374206542969) ">
			<path id="SVGID_1_" d="M165,50.2h175.5c5.4,0,9.8,4.4,9.8,9.8v330.3c0,5.4-4.4,9.8-9.8,9.8H165c-5.4,0-9.8-4.4-9.8-9.8V60     C155.2,54.6,159.6,50.2,165,50.2z"/>
		</defs>
		<clipPath id="SVGID_2_" transform="translate(0,479.6000061035156) scale(0.9373825788497925) translate(0,-479.6000061035156) translate(0,511.6374206542969) scale(0.9077520370483398) translate(0,-511.6374206542969) ">
			<use xlink:href="#SVGID_1_" style="overflow:visible;" id="svg_25"/>
		</clipPath>
		<g class="st7" id="svg_26">
			
				<linearGradient id="SVGID_3_" gradientUnits="userSpaceOnUse" x1="100.92500305175781" y1="-160.9250030517578" x2="393.5249938964844" y2="131.6750030517578" gradientTransform="matrix(1 0 0 -1 0 196)" transform="translate(0,479.6000061035156) scale(0.9373825788497925) translate(0,-479.6000061035156) translate(0,511.6374206542969) scale(0.9077520370483398) translate(0,-511.6374206542969) ">
				<stop offset="0.27" style="stop-color:#FFFFFF;stop-opacity:0.1"/>
				<stop offset="1" style="stop-color:#FFFFFF;stop-opacity:0.3"/>
			</linearGradient>
			<polygon class="st8" points="254.4223851323477,81.96931756395861 130.18937995542365,419.5256755000737 166.26799408672377,419.5256755000737 290.58608716592425,81.96931756395861 " id="svg_27"/>
			
				<linearGradient id="SVGID_4_" gradientUnits="userSpaceOnUse" x1="150.35000610351562" y1="-154.85000610351562" x2="430.75" y2="125.55000305175781" gradientTransform="matrix(1 0 0 -1 0 196)" transform="translate(0,479.6000061035156) scale(0.9373825788497925) translate(0,-479.6000061035156) translate(0,511.6374206542969) scale(0.9077520370483398) translate(0,-511.6374206542969) ">
				<stop offset="0.27" style="stop-color:#FFFFFF;stop-opacity:0.1"/>
				<stop offset="1" style="stop-color:#FFFFFF;stop-opacity:0.3"/>
			</linearGradient>
			<polygon class="st9" points="301.73303175123874,81.96931756395861 177.41493867203826,419.5256755000737 192.73132898086624,419.5256755000737 317.0494359112636,81.96931756395861 " id="svg_28"/>
		</g>
	</g>
	<rect x="133.42284490269958" y="141.95854295112804" class="st10" width="163.3748945997504" height="242.33943206840195" id="svg_29"/>
	<path class="st11" d="M205.75026660848619,126.55704964503389 h23.059686621546632 c0.5105465672667153,0 0.9360020399889777,0.42545547272226264 0.9360020399889777,0.9360020399889777 l0,0 c0,0.5105465672667153 -0.42545547272226264,0.9360020399889777 -0.9360020399889777,0.9360020399889777 h-23.059686621546632 c-0.5105465672667153,0 -0.9360020399889777,-0.42545547272226264 -0.9360020399889777,-0.9360020399889777 l0,0 C204.8142645684972,126.98250511775615 205.23972004121947,126.55704964503389 205.75026660848619,126.55704964503389 z" id="svg_30"/>
	<circle class="st11" cx="200.5597068654315" cy="127.49305244185962" r="0.9360020940952154" id="svg_31"/>
	<rect x="144.56976178562036" y="235.814024291627" class="st12" width="70.54051656575757" height="71.22124056076427" id="svg_32"/>
	<circle class="st13" cx="179.79748304295936" cy="261.1711610513885" r="14.635668045220882" id="svg_33"/>
	<ellipse class="st13" cx="179.79748304295936" cy="261.1711610513885" rx="10.040749048032922" ry="14.550576680145241" id="svg_34"/>
	<ellipse class="st13" cx="179.79748304295936" cy="261.1711610513885" rx="3.9141902408323404" ry="14.550576680145241" id="svg_35"/>
	<line class="st13" x1="165.24689770581608" y1="261.1711610513885" x2="194.43315628237906" y2="261.1711610513885" id="svg_36"/>
	<path class="st13" d="M166.77854530712693,267.7231754942806 c2.808006119966933,-0.9360020399889777 7.573107414456274,-1.5316397018001453 13.104028559845688,-1.5316397018001453 s10.296022439878755,0.5956376618111677 13.104028559845688,1.5316397018001453 " id="svg_37"/>
	<path class="st13" d="M170.9480089398051,272.82864116694776 c2.808006119966933,-1.0210931345334302 5.871285523567224,-1.5316397018001453 8.849473832623062,-1.5316397018001453 c2.978188309055838,0 5.956376618111676,0.5105465672667153 8.76438273807861,1.4465486072556928 " id="svg_38"/>
	<path class="st13" d="M166.77854530712693,254.78932912352383 c2.808006119966933,0.9360020399889777 7.573107414456274,1.5316397018001453 13.104028559845688,1.5316397018001453 s10.296022439878755,-0.5956376618111677 13.104028559845688,-1.5316397018001453 " id="svg_39"/>
	<path class="st13" d="M170.9480089398051,249.68386345085668 c5.701103334478319,1.9570951745224079 11.8276621416789,1.9570951745224079 17.52876547615722,0 " id="svg_40"/>
	<rect x="150.52613656411995" y="290.5275954325043" class="st14" width="58.54267218088353" height="3.7440083763808616" id="svg_41"/>
	<rect x="174.0963858224859" y="283.5501104219002" class="st14" width="34.97244023651365" height="3.7440083763808616" id="svg_42"/>
	<rect x="150.52613656411995" y="283.5501104219002" class="st14" width="19.570951637011603" height="3.7440083763808616" id="svg_43"/>
	<rect x="150.52613656411995" y="297.50505274071475" class="st14" width="58.54267218088353" height="3.7440083763808616" id="svg_44"/>
	<rect x="215.0251904491015" y="235.814024291627" class="st15" width="70.54051656575757" height="71.22124056076427" id="svg_45"/>
	<rect x="221.06665312987752" y="248.49259267150774" class="st1" width="58.54267218088353" height="3.7440083763808616" id="svg_46"/>
	<rect x="221.06665312987752" y="255.47004997971817" class="st1" width="58.54267218088353" height="3.7440083763808616" id="svg_47"/>
	<rect x="220.98157907879795" y="262.53262289259874" class="st1" width="18.20949325860056" height="3.7440083763808616" id="svg_48"/>
	<rect x="244.1263472721912" y="262.53262289259874" class="st1" width="35.31280569681621" height="3.7440083763808616" id="svg_49"/>
	<rect x="221.06665312987752" y="269.51008020080917" class="st1" width="58.54267218088353" height="3.7440083763808616" id="svg_50"/>
	<rect x="221.06665312987752" y="276.48755136021646" class="st1" width="58.54267218088353" height="3.7440083763808616" id="svg_51"/>
	<rect x="221.06665312987752" y="283.5501104219002" class="st1" width="58.54267218088353" height="3.7440083763808616" id="svg_52"/>
	<rect x="262.6762302306888" y="290.5275954325043" class="st1" width="16.933127976664764" height="3.7440083763808616" id="svg_53"/>
	<rect x="221.06665312987752" y="290.5275954325043" class="st1" width="37.610265628260095" height="3.7440083763808616" id="svg_54"/>
	<rect x="221.06665312987752" y="297.50505274071475" class="st1" width="58.54267218088353" height="3.7440083763808616" id="svg_55"/>
	<rect x="264.03766436950536" y="241.51512151210045" class="st1" width="15.486579964577686" height="3.7440083763808616" id="svg_56"/>
	<rect x="220.98157907879795" y="241.51512151210045" class="st1" width="39.05681537174678" height="3.7440083763808616" id="svg_57"/>
	<rect x="144.56976178562036" y="307.03525792679284" class="st15" width="70.54051656575757" height="71.22124056076427" id="svg_58"/>
	<rect x="150.52613656411995" y="361.8339446723403" class="st1" width="58.54267218088353" height="3.7440083763808616" id="svg_59"/>
	<rect x="150.52613656411995" y="354.77135790826287" class="st1" width="58.54267218088353" height="3.7440083763808616" id="svg_60"/>
	<rect x="194.0076890686032" y="347.79390060005244" class="st1" width="15.061124870599087" height="3.7440083763808616" id="svg_61"/>
	<rect x="150.61123831759323" y="347.79390060005244" class="st1" width="38.54626371849372" height="3.7440083763808616" id="svg_62"/>
	<rect x="150.52613656411995" y="340.8164155894483" class="st1" width="58.54267218088353" height="3.7440083763808616" id="svg_63"/>
	<rect x="150.52613656411995" y="333.7538842301583" class="st1" width="58.54267218088353" height="3.7440083763808616" id="svg_64"/>
	<rect x="150.52613656411995" y="326.77639921955415" class="st1" width="58.54267218088353" height="3.7440083763808616" id="svg_65"/>
	<rect x="150.52613656411995" y="319.79891420895" class="st1" width="27.229150254224805" height="3.7440083763808616" id="svg_66"/>
	<rect x="181.75458790249832" y="319.79891420895" class="st1" width="27.31423988790084" height="3.7440083763808616" id="svg_67"/>
	<rect x="150.52613656411995" y="312.7363551472663" class="st1" width="58.54267218088353" height="3.7440083763808616" id="svg_68"/>
	<rect x="150.52613656411995" y="368.8114019805507" class="st1" width="27.31423988790084" height="3.7440083763808616" id="svg_69"/>
	<rect x="181.8396619535779" y="368.8114019805507" class="st1" width="27.31423988790084" height="3.7440083763808616" id="svg_70"/>
	<rect x="215.0251904491015" y="307.03525792679284" class="st12" width="70.54051656575757" height="71.22124056076427" id="svg_71"/>
	<polygon class="st16" points="264.6332935366372,356.04771799599985 236.38305728990235,355.70736638689414 233.14960619382327,335.45569768047426 267.3562172190577,335.370595927001 " id="svg_72"/>
	<polygon class="st16" points="267.3562172190577,335.370595927001 233.14960619382327,335.45569768047426 250.25292555763735,321.33057955710683 " id="svg_73"/>
	
		<rect x="280.1000061035156" y="307.79998779296875" transform="matrix(0.8509109454445252,-0.0014851169967689112,0.0014851169967689112,0.8509109454445252,-0.4739573966126006,71.93988406306983) " class="st10" width="27.399999618530273" height="23.200000762939453" id="svg_74"/>
	<polygon class="st14" points="233.14960619382327,335.45569768047426 233.23470794729656,357.66445739523624 250.25292555763735,347.28334548400017 " id="svg_75"/>
	<polygon class="st14" points="267.3562172190577,335.370595927001 267.4412912701373,357.57938334415667 250.25292555763735,347.28334548400017 " id="svg_76"/>
	<polygon class="st14" points="267.4412912701373,357.57938334415667 233.23470794729656,357.66445739523624 250.25292555763735,343.5393392718688 " id="svg_77"/>
	<polyline class="st17" points="233.23470794729656,357.66445739523624 250.25292555763735,343.5393392718688 267.4412912701373,357.57938334415667 " id="svg_78"/>
	<line class="st17" x1="252.72054397963802" y1="345.5815320336842" x2="267.3562172190577" y2="335.370595927001" id="svg_79"/>
	<line class="st17" x1="247.87035348432255" y1="345.5815320336842" x2="233.14960619382327" y2="335.45569768047426" id="svg_80"/>
	<rect x="236.6383348479285" y="366.1735523492098" class="st14" width="27.31423988790084" height="3.7440083763808616" id="svg_81"/>
	<rect x="144.56976178562036" y="158.38111754314014" class="st12" width="141.08103313151514" height="71.13615265848784" id="svg_82"/>
	<rect x="213.0680994407594" y="168.59204672422493" class="st14" width="66.45614489332365" height="4.935283591790721" id="svg_83"/>
	<rect x="213.0680994407594" y="177.78188645000046" class="st14" width="66.45614489332365" height="4.935283591790721" id="svg_84"/>
	<rect x="213.0680994407594" y="186.88663827349956" class="st14" width="66.45614489332365" height="4.935283591790721" id="svg_85"/>
	<rect x="213.0680994407594" y="196.07646414807823" class="st14" width="66.45614489332365" height="4.935283591790721" id="svg_86"/>
	<rect x="213.0680994407594" y="214.37105569735286" class="st14" width="66.45614489332365" height="4.935283591790721" id="svg_87"/>
	<rect x="239.87178594400757" y="205.18122982277418" class="st14" width="39.737542829552694" height="4.935283591790721" id="svg_88"/>
	<rect x="213.0680994407594" y="205.18122982277418" class="st14" width="22.208775297358443" height="4.935283591790721" id="svg_89"/>
	<rect x="152.65341722821177" y="168.84732428225107" class="st14" width="50.28883400814084" height="50.28883400814084" id="svg_90"/>
	<polygon class="st10" points="182.4353049719066,184.50409390257846 197.75169528073457,210.7121512386948 167.11890081188176,210.7121512386948 " id="svg_91"/>
	<polygon class="st10" points="166.9487250073289,193.09827675882843 170.18218995460484,199.39503084882745 164.31090307838167,210.7121512386948 157.84398703502666,210.7121512386948 " id="svg_92"/>
	<path class="st10" d="M159.1203467981262,182.9724453280059 c0,1.5316397018001453 1.2763664181667878,2.808006119966933 2.808006119966933,2.808006119966933 c1.5316397018001453,0 2.808006119966933,-1.2763664181667878 2.808006119966933,-2.808006119966933 c0,-1.5316397018001453 -1.2763664181667878,-2.808006119966933 -2.808006119966933,-2.808006119966933 l0,0 C160.396713216293,180.16443920803897 159.1203467981262,181.44080562620576 159.1203467981262,182.9724453280059 z" id="svg_93"/>
	<path class="st12" d="M175.28765476157218,152.5098334810919 h79.5601733990631 c1.2763664181667878,0 2.297459552700218,-1.0210931345334302 2.297459552700218,-2.297459552700218 c0,0 0,0 0,0 l0,0 c0,-1.2763664181667878 -1.0210931345334302,-2.297459552700218 -2.297459552700218,-2.297459552700218 c0,0 0,0 0,0 H175.28765476157218 c-1.2763664181667878,0 -2.297459552700218,1.0210931345334302 -2.297459552700218,2.297459552700218 c0,0 0,0 0,0 l0,0 C172.99019520887197,151.48874034655847 174.0112883434054,152.5098334810919 175.28765476157218,152.5098334810919 C175.28765476157218,152.5098334810919 175.28765476157218,152.5098334810919 175.28765476157218,152.5098334810919 z" id="svg_94"/>
	<line class="st13" x1="215.11029220257478" y1="235.814024291627" x2="215.11029220257478" y2="378.25650541315554" id="svg_95"/>
	<line class="st13" x1="144.56976178562036" y1="307.03525792679284" x2="285.6508226195292" y2="307.03525792679284" id="svg_96"/>
	<path class="st18" d="M281.65152294213783,442.92573916130834 l0.7658198509000728,25.186963985157945 l-0.8509109454445252,7.913471792634084 l-30.03715637419174,-0.17018218908890503 c-0.7658198509000728,0 -1.3614575127112405,-0.5956376618111677 -1.3614575127112405,-1.3614575127112405 c0,0 0,0 0,0 l0,0 c0,-0.5956376618111677 0.3403643781778101,-1.1061842290778827 0.8509109454445252,-1.2763664181667878 l13.444392938023498,-6.126558807200581 l-2.0421862690668604,-26.208057119691375 " id="svg_97"/>
	<path class="st19" d="M248.8914515425236,475.51562837183366 c0.3403643781778101,-1.0210931345334302 0.9360020399889777,-2.127277363611313 1.5316397018001453,-2.3825506472446705 l14.21021278892357,-6.126558807200581 c7.8283806980896316,3.148370498144743 17.95422094887948,0.7658198509000728 17.95422094887948,0.7658198509000728 l0.7658198509000728,10.721477912601017 c0,0.3403643781778101 -0.25527328363335766,0.5956376618111677 -0.5956376618111677,0.5956376618111677 c0,0 0,0 0,0 l0,0 l-33.610982345058744,-0.17018218908890503 C248.3809049752569,479.0043632481562 248.8914515425236,475.6007194663781 248.8914515425236,475.51562837183366 z" id="svg_98"/>
	<path class="st20" d="M261.4849335351026,467.687247673744 c0.7658198509000728,1.0210931345334302 1.4465486072556928,2.2123684581557654 2.0421862690668604,3.4036437817781007 " id="svg_99"/>
	<path class="st20" d="M259.6980205496691,468.70834080827746 c0.6807287563556202,0.8509109454445252 1.1912753236223352,1.8720040799779554 1.6167307963445978,2.8930972145113856 " id="svg_100"/>
	<path class="st20" d="M258.16638084786894,469.559251753722 c0.5956376618111677,0.8509109454445252 1.1061842290778827,1.7018218908890508 1.5316397018001453,2.637823930878028 " id="svg_101"/>
	<line class="st20" x1="283.1831487927411" y1="476.8770824210951" x2="248.72126020948053" y2="476.621804863069" id="svg_102"/>
	<path class="st20" d="M282.84279826576017,471.6865291173333 c0,0 -7.998562887178537,0.08509109454445256 -8.679291643534157,5.105465672667151 " id="svg_103"/>
	<path class="st20" d="M253.2310973642907,471.94180240096665 c0,0 2.297459552700218,3.2334615926891956 2.7229150254224805,4.765101294489341 " id="svg_104"/>
	<path class="st21" d="M278.1627880658153,343.96479620611007 c0,0 3.6589170654114582,6.126558807200581 4.680010199944888,10.721477912601017 c0.9360020399889777,4.8501923890337935 0.9360020399889777,9.955658061700944 0,14.805850450734738 l-0.08509109454445256,88.06928285350835 h-22.29386677064656 c0,0 -4.935283483578246,-101.51367579153185 -2.7229150254224805,-114.61770435137753 " id="svg_105"/>
	<path class="st22" d="M263.86748418234725,457.4763163284097 c0,0 -4.935283483578246,-101.51367579153185 -2.7229150254224805,-114.61770435137753 " id="svg_106"/>
	<path class="st18" d="M257.06019661879105,433.05517219415185 L267.1860368695809,456.1148588156985 l2.2123684581557654,7.6581985090007265 l-27.909879010580422,11.061842290778827 c-0.6807287563556202,0.25527328363335766 -1.4465486072556928,-0.08509109454445256 -1.7869129854335029,-0.7658198509000728 l0,0 c-0.25527328363335766,-0.5105465672667153 -0.08509109454445256,-1.1912753236223352 0.3403643781778101,-1.5316397018001453 l10.12584025078985,-10.721477912601017 L238.42524691355595,438.24572896136345 " id="svg_107"/>
	<path class="st19" d="M238.76561129173376,475.51562837183366 c-0.17018218908890503,-0.9360020399889777 0,-1.8720040799779554 0.5105465672667153,-2.7229150254224805 l10.891660101689922,-10.976751196234375 c8.4240183599008,0 16.93312781434605,-5.956376618111676 16.93312781434605,-5.956376618111676 l4.680010199944888,9.615293683523134 c0.17018218908890503,0.3403643781778101 0,0.6807287563556202 -0.25527328363335766,0.8509109454445252 c0,0 0,0 -0.08509109454445256,0 l0,0 l-31.228431697814074,12.338208708945615 C239.6165222371783,478.8341810590673 238.76561129173376,475.51562837183366 238.76561129173376,475.51562837183366 z" id="svg_108"/>
	<path class="st20" d="M247.52999402981237,463.51778404106585 c1.1061842290778827,0.6807287563556202 2.2123684581557654,1.4465486072556928 3.148370498144743,2.3825506472446705 " id="svg_109"/>
	<path class="st20" d="M246.25362761164558,465.13451483741045 c0.9360020399889777,0.5956376618111677 1.7869129854335029,1.2763664181667878 2.5527328363335755,2.0421862690668604 " id="svg_110"/>
	<path class="st20" d="M245.1474433825677,466.41088125557724 c0.8509109454445252,0.5956376618111677 1.6167307963445978,1.1912753236223352 2.3825506472446705,1.8720040799779554 " id="svg_111"/>
	<line class="st20" x1="271.0151493801095" y1="463.9432503343851" x2="239.0208792188496" y2="476.621804863069" id="svg_112"/>
	<path class="st20" d="M268.88785876046995,459.2632293138432 c0,0 -7.402925225367369,2.978188309055838 -6.126558807200581,7.913471792634084 " id="svg_113"/>
	<path class="st20" d="M241.48852631715624,470.49525379371096 c0,0 3.3185526872336486,2.127277363611313 4.339645821767078,3.4036437817781007 " id="svg_114"/>
	<path class="st21" d="M239.70161333172274,358.2601000895781 c-11.48729776350109,28.165152294213783 -11.657479952589995,31.14334060326962 -13.52948403256795,44.92809791947093 c-1.9570951745224079,14.12512169437912 19.23058736704627,55.64957583207195 19.23058736704627,55.64957583207195 l20.33677159612415,-8.934564927167514 c0,0 -13.52948403256795,-37.95062816682582 -12.593481992578972,-44.502642446748666 c1.6167307963445978,-11.997844330767805 15.486579207090358,-32.50479811598086 15.486579207090358,-32.50479811598086 s6.552014279922844,-5.1905567672116035 7.998562887178537,-12.16802651985671 s-1.7018218908890508,-14.21021278892357 -1.7018218908890508,-14.21021278892357 " id="svg_115"/>
	<path class="st22" d="M260.63402258965806,361.6637438713562 l9.10474711625642,-2.8930972145113856 " id="svg_116"/>
	<line class="st22" x1="280.1199012036086" y1="356.13281974947313" x2="283.01297298818827" y2="355.28191302431514" id="svg_117"/>
	<path class="st22" d="M246.50890089527894,357.40918914413356 c0,0 -14.12512169437912,30.80297622509181 -16.082216868901526,44.92809791947093 s18.720040799779554,54.45830050844961 18.720040799779554,54.45830050844961 " id="svg_118"/>
	<path class="st22" d="M257.8260164696911,391.7859913400924 c3.148370498144743,-6.552014279922844 6.72219646901175,-12.933846370756783 10.721477912601017,-18.97531408341291 c0,0 6.552014279922844,-5.1905567672116035 7.998562887178537,-12.16802651985671 " id="svg_119"/>
	<path class="st18" d="M237.82960925174478,288.65558475221593 l5.871285523567224,10.12584025078985 c0,0 -3.4887348763225527,7.573107414456274 -12.933846370756783,3.9992814435892683 l-2.3825506472446705,-5.360738956300509 L237.82960925174478,288.65558475221593 z" id="svg_120"/>
	<path class="st18" d="M222.25793895010997,281.7632060941153 c0,0 -2.8930972145113856,13.52948403256795 2.127277363611313,15.91203467981262 c2.5527328363335755,1.2763664181667878 9.870566967156492,0.5105465672667153 11.572388858045542,-2.297459552700218 c1.2763664181667878,-2.0421862690668604 0.7658198509000728,-11.742571047134447 -0.7658198509000728,-12.933846370756783 C229.23540870275505,277.9341068396149 222.25793895010997,281.7632060941153 222.25793895010997,281.7632060941153 z" id="svg_121"/>
	<path class="st23" d="M234.9365120372334,277.763924650526 c-2.2123684581557654,-3.8290992545003633 -6.637105374467296,-3.0632794036002906 -13.86984841074576,1.0210931345334302 c-0.9360020399889777,0.5105465672667153 -3.0632794036002906,0.7658198509000728 -3.0632794036002906,1.8720040799779554 c0,1.4465486072556928 1.0210931345334302,3.8290992545003633 2.7229150254224805,4.339645821767078 c0.9360020399889777,0.25527328363335766 1.9570951745224079,0.25527328363335766 2.8930972145113856,-0.08509109454445256 c1.5316397018001453,-0.3403643781778101 3.4887348763225527,0.25527328363335766 3.4887348763225527,2.0421862690668604 c0,0.42545547272226264 -0.17018218908890503,1.2763664181667878 0.25527328363335766,1.4465486072556928 h1.0210931345334302 c0.6807287563556202,0 1.0210931345334302,0.8509109454445252 0.9360020399889777,1.5316397018001453 c-0.08509109454445256,0.6807287563556202 0.3403643781778101,1.1912753236223352 0.25527328363335766,1.7869129854335029 c-0.17018218908890503,1.6167307963445978 1.7869129854335029,3.3185526872336486 3.4036437817781007,3.4887348763225527 c1.4465486072556928,0.08509109454445256 5.530921145389414,-0.5956376618111677 7.4880163199118215,-3.2334615926891956 c1.7018218908890508,-2.297459552700218 1.5316397018001453,-6.211649901745034 -1.3614575127112405,-11.997844330767805 C238.08488253537814,277.84901574507046 235.70233188813347,277.2533780832593 234.9365120372334,277.763924650526 z" id="svg_122"/>
	<path class="st18" d="M226.93794915005486,289.0810402249382 c0.42545547272226264,-2.127277363611313 1.6167307963445978,-2.3825506472446705 2.5527328363335755,-1.7869129854335029 c1.2763664181667878,0.7658198509000728 1.0210931345334302,3.8290992545003633 0.5105465672667153,4.594919105400436 c-0.9360020399889777,1.5316397018001453 -2.127277363611313,1.9570951745224079 -2.7229150254224805,0.8509109454445252 " id="svg_123"/>
	<path class="st24" d="M228.72486213548837,298.1857873411946 c0.9360020399889777,-0.9360020399889777 1.4465486072556928,-2.2123684581557654 1.2763664181667878,-3.5738259708670057 " id="svg_124"/>
	<path class="st25" d="M222.7684855173767,288.23012927949367 c-0.17018218908890503,0.42545547272226264 -0.25527328363335766,1.1912753236223352 0.08509109454445256,1.4465486072556928 c0.08509109454445256,0.08509109454445256 0.25527328363335766,0.08509109454445256 0.3403643781778101,0 C223.95976084099902,289.16613131948264 223.19394099009895,287.20903614496024 222.7684855173767,288.23012927949367 z" id="svg_125"/>
	<path class="st26" d="M222.08775676102107,286.6984895776935 c0.7658198509000728,-0.08509109454445256 1.5316397018001453,0.08509109454445256 2.2123684581557654,0.42545547272226264 " id="svg_126"/>
	<path class="st10" d="M224.64048959735464,293.1654127630719 l-2.2123684581557654,-0.08509109454445256 c0,0 -0.08509109454445256,2.637823930878028 0.9360020399889777,2.7229150254224805 S224.64048959735464,293.1654127630719 224.64048959735464,293.1654127630719 z" id="svg_127"/>
	<path class="st27" d="M242.25434616805632,296.3988743557611 c0,0 5.105465672667151,-1.2763664181667878 12.253117614401162,0.7658198509000728 c6.041467712656129,1.7869129854335029 13.784757316201308,6.296740996289486 19.57095174522408,12.50839089803452 c10.040749156245397,10.721477912601017 5.445830050844961,37.2698994104702 5.445830050844961,37.2698994104702 l-13.104028559845688,-0.5105465672667153 c0,0 2.0421862690668604,-17.103310003434956 -4.765101294489341,-23.910597566991157 s-16.50767234162379,-8.4240183599008 -16.50767234162379,-8.4240183599008 " id="svg_128"/>
	<path class="st18" d="M186.77495252507327,333.75386486077576 c-4.084372538133721,1.1061842290778827 -16.50767234162379,2.467641741789123 -16.677854530712693,3.3185526872336486 s4.169463632678173,0.42545547272226264 3.9141903490448158,1.1061842290778827 s-6.9774697526451055,1.7869129854335029 -6.9774697526451055,2.637823930878028 c0,1.1912753236223352 6.807287563556201,-0.25527328363335766 6.807287563556201,-0.25527328363335766 s-2.808006119966933,0.5105465672667153 -2.467641741789123,1.5316397018001453 c0.25527328363335766,0.7658198509000728 1.3614575127112405,0.9360020399889777 3.6589170654114582,0.7658198509000728 c-1.1912753236223352,0.25527328363335766 -1.7018218908890508,0.8509109454445252 -1.4465486072556928,1.6167307963445978 s1.4465486072556928,0.6807287563556202 2.7229150254224805,0.5105465672667153 c-0.8509109454445252,0.17018218908890503 -1.5316397018001453,0.7658198509000728 -0.9360020399889777,1.2763664181667878 c0.7658198509000728,0.6807287563556202 5.786194429022771,0.3403643781778101 14.805850450734738,-1.1912753236223352 " id="svg_129"/>
	<path class="st27" d="M229.32049979729953,299.8025181375392 c2.3825506472446705,0.8509109454445252 5.0203745781226985,0.8509109454445252 7.402925225367369,0 c2.0421862690668604,-0.6807287563556202 3.9992814435892683,-1.8720040799779554 5.530921145389414,-3.4036437817781007 c0,0 8.76438273807861,-0.5956376618111677 19.485860650679626,10.12584025078985 s19.23058736704627,41.439363043148376 19.23058736704627,41.439363043148376 l-44.33246025765976,14.89094154527919 c0,0 -7.573107414456274,-26.803694781502543 -10.551295723512112,-39.056812395903705 S229.32049979729953,299.8025181375392 229.32049979729953,299.8025181375392 z" id="svg_130"/>
	<path class="st28" d="M261.2296602514692,303.716708486584 c8.849473832623062,10.296022439878755 19.826225028857436,44.24736916311531 19.826225028857436,44.24736916311531 " id="svg_131"/>
	<path class="st27" d="M229.32049979729953,299.8025181375392 c-5.871285523567224,2.2123684581557654 -10.891660101689922,7.913471792634084 -13.954939505290211,13.699666221656857 c-5.0203745781226985,9.530202588978682 -8.083653981722989,16.50767234162379 -8.083653981722989,16.50767234162379 l-25.442237268791303,3.8290992545003633 l1.2763664181667878,13.614575127112403 c0,0 17.27349219252386,-0.5105465672667153 30.973158414180716,-2.5527328363335755 c9.78547587261204,-1.4465486072556928 17.358583287068313,-21.698229108835392 17.358583287068313,-21.698229108835392 " id="svg_132"/>
	<path class="st28" d="M227.61867790641048,300.5683379884393 c0,0 2.808006119966933,3.7440081599559107 9.530202588978682,1.1912753236223352 s6.9774697526451055,-5.616012239933866 6.9774697526451055,-5.616012239933866 " id="svg_133"/>
	<line class="st28" x1="228.21432779623137" y1="330.0949520691065" x2="231.02232552973146" y2="324.2236513416865" id="svg_134"/>
	<line class="st28" x1="185.92404747720866" y1="333.243329114106" x2="186.86004210464307" y2="347.1982714329206" id="svg_135"/>
	<line class="st28" x1="235.8725298762438" y1="359.96192771507776" x2="280.1199012036086" y2="345.32625447565806" id="svg_136"/>
	<path class="st18" d="M96.5783923079536,366.42884516584553 l-0.7658198509000728,24.250961945168967 l0.7658198509000728,7.6581985090007265 l28.930972145113856,-0.17018218908890503 c0.7658198509000728,0 1.3614575127112405,-0.5956376618111677 1.3614575127112405,-1.3614575127112405 c0,0 0,0 0,0 l0,0 c0,-0.5105465672667153 -0.3403643781778101,-1.0210931345334302 -0.8509109454445252,-1.1912753236223352 l-12.933846370756783,-5.956376618111676 l1.9570951745224079,-25.272055079702398 " id="svg_137"/>
	<path class="st19" d="M128.23227947848994,397.91255014729296 c-0.3403643781778101,-0.9360020399889777 -0.8509109454445252,-2.0421862690668604 -1.4465486072556928,-2.297459552700218 l-13.699666221656857,-5.871285523567224 c-7.573107414456274,3.0632794036002906 -17.27349219252386,0.7658198509000728 -17.27349219252386,0.7658198509000728 l-0.7658198509000728,10.296022439878755 c0,0.3403643781778101 0.25527328363335766,0.5956376618111677 0.5956376618111677,0.5956376618111677 c0,0 0,0 0,0 l32.334615926891956,-0.17018218908890503 C128.6577349512122,401.2311028345266 128.23227947848994,397.91255014729296 128.23227947848994,397.91255014729296 z" id="svg_138"/>
	<path class="st29" d="M116.06425295863323,390.3394427328367 c-0.7658198509000728,1.0210931345334302 -1.4465486072556928,2.127277363611313 -1.9570951745224079,3.2334615926891956 " id="svg_139"/>
	<path class="st29" d="M117.76607484952228,391.3605358673701 c-0.5956376618111677,0.8509109454445252 -1.1912753236223352,1.7869129854335029 -1.6167307963445978,2.7229150254224805 " id="svg_140"/>
	<path class="st29" d="M119.21262345677798,392.1263557182702 c-0.5956376618111677,0.8509109454445252 -1.0210931345334302,1.7018218908890508 -1.5316397018001453,2.5527328363335755 " id="svg_141"/>
	<line class="st29" x1="95.21693625611078" y1="399.10383098910097" x2="128.31737684935797" y2="398.9336274821544" id="svg_142"/>
	<path class="st29" d="M95.47220807887572,394.16854198733705 c0,0 7.6581985090007265,0.08509109454445256 8.338927265356347,4.8501923890337935 " id="svg_143"/>
	<path class="st29" d="M123.97772475126732,394.4238152709704 c0,0 -2.2123684581557654,3.148370498144743 -2.637823930878028,4.594919105400436 " id="svg_144"/>
	<path class="st27" d="M99.30130733337609,279.63592873050396 c0,0 15.401488112545906,28.845881050569403 20.2516805015797,46.97028418853779 s-1.6167307963445978,58.968128519305594 -1.6167307963445978,58.968128519305594 h-23.910597566991157 c0,0 4.765101294489341,-44.33246025765976 -0.8509109454445252,-58.968128519305594 S67.22196469011749,273.3391877342145 67.22196469011749,273.3391877342145 " id="svg_145"/>
	<path class="st28" d="M97.25912106430923,385.4892503438029 c0,0 3.9141903490448158,-46.119373243093264 1.5316397018001453,-57.521579912049894 s-18.97531408341291,-37.86553707228137 -18.97531408341291,-37.86553707228137 " id="svg_146"/>
	<path class="st18" d="M69.1790598646399,352.98445222782203 l-14.12512169437912,19.485860650679626 l-3.8290992545003633,6.637105374467296 l23.485142094268895,16.93312781434605 c0.5956376618111677,0.42545547272226264 1.4465486072556928,0.3403643781778101 1.8720040799779554,-0.25527328363335766 l0,0 c0.3403643781778101,-0.42545547272226264 0.3403643781778101,-1.0210931345334302 0.08509109454445256,-1.5316397018001453 l-6.9774697526451055,-12.423299803490067 l15.656761396179263,-20.421862690668604 " id="svg_147"/>
	<path class="st19" d="M77.00744056272953,397.3169124854818 c0.3403643781778101,-0.9360020399889777 0.5105465672667153,-2.127277363611313 0.17018218908890503,-2.637823930878028 l-7.573107414456274,-12.84875527621233 c-7.913471792634084,-1.9570951745224079 -14.465486072556928,-9.615293683523134 -14.465486072556928,-9.615293683523134 l-6.637105374467296,7.913471792634084 c-0.17018218908890503,0.25527328363335766 -0.08509109454445256,0.6807287563556202 0.17018218908890503,0.8509109454445252 L74.88016319911821,399.7845542272709 C75.39070976638493,400.2100096999932 77.00744056272953,397.3169124854818 77.00744056272953,397.3169124854818 z" id="svg_148"/>
	<path class="st29" d="M71.64670160642902,383.95761064200275 c-1.1912753236223352,0.3403643781778101 -2.3825506472446705,0.8509109454445252 -3.4887348763225527,1.4465486072556928 " id="svg_149"/>
	<path class="st29" d="M72.41252145732909,385.8296147219807 c-1.0210931345334302,0.3403643781778101 -1.9570951745224079,0.7658198509000728 -2.8930972145113856,1.2763664181667878 " id="svg_150"/>
	<path class="st29" d="M73.17834130822916,387.2761633292364 c-0.9360020399889777,0.3403643781778101 -1.8720040799779554,0.7658198509000728 -2.7229150254224805,1.1912753236223352 " id="svg_151"/>
	<line class="st29" x1="49.523018648058496" y1="378.8521622826811" x2="76.49689826985559" y2="398.252924263943" id="svg_152"/>
	<path class="st29" d="M52.67138752301611,375.02304571483523 c0,0 6.211649901745034,4.594919105400436 3.9141903490448158,8.849473832623062 " id="svg_153"/>
	<path class="st29" d="M75.64598305001829,391.9561735291813 c-1.7018218908890508,0.5105465672667153 -3.3185526872336486,1.2763664181667878 -4.8501923890337935,2.127277363611313 " id="svg_154"/>
	<path class="st27" d="M60.925223693828,273.3391877342145 c-4.594919105400436,12.933846370756783 0,23.059686621546632 0,23.059686621546632 s15.57167030163481,28.42042557784714 15.57167030163481,34.12152891232546 c0,5.275647861756056 -19.91131612340189,35.4829864250367 -19.91131612340189,35.4829864250367 l18.20949423251284,14.635668261645833 c0,0 28.6756988614805,-30.80297622509181 28.08006119966933,-52.16084095574939 c-0.6807287563556202,-26.37823930878028 -15.061123734368095,-55.22412035934969 -15.061123734368095,-55.22412035934969 " id="svg_155"/>
	<path class="st28" d="M64.3288674756061,274.190098679659 c-4.594919105400436,12.933846370756783 0.9360020399889777,21.61313801429094 0.9360020399889777,21.61313801429094 s14.635668261645833,29.866974185102833 14.635668261645833,35.653168614125605 c0,5.275647861756056 -20.67713597430196,36.674261748659035 -20.67713597430196,36.674261748659035 " id="svg_156"/>
	<path class="st28" d="M95.64239026796463,351.9633590932886 c4.254554727222626,-7.8283806980896316 7.402925225367369,-16.167307963445978 7.232743036278464,-23.400050999724442 c-0.6807287563556202,-26.37823930878028 -15.061123734368095,-55.22412035934969 -15.061123734368095,-55.22412035934969 " id="svg_157"/>
	<path class="st28" d="M62.79722777380596,284.4010300249933 c0,0 8.168745076267442,0.5105465672667153 11.317115574412185,-6.041467712656129 " id="svg_158"/>
	<path class="st28" d="M94.02565947162003,288.05994709040476 c0,0 2.2123684581557654,0.25527328363335766 2.0421862690668604,-0.8509109454445252 s-2.0421862690668604,-7.06256084718956 -2.0421862690668604,-7.06256084718956 " id="svg_159"/>
	<path class="st30" d="M104.40677300604324,204.8408566259302 c0.8509109454445252,5.1905567672116035 0.17018218908890503,9.78547587261204 -4.254554727222626,10.46620462896766 s-10.636386818056565,-0.5956376618111677 -11.8276621416789,-7.998562887178537 c-0.8509109454445252,-5.1905567672116035 2.127277363611313,-9.955658061700944 6.552014279922844,-10.721477912601017 S103.55586206059871,199.6502998587186 104.40677300604324,204.8408566259302 z" id="svg_160"/>
	<path class="st25" d="M100.74785594063178,204.92594772047465 c-0.17018218908890503,0.5105465672667153 0,1.0210931345334302 0.42545547272226264,1.3614575127112405 c0.08509109454445256,0.08509109454445256 0.25527328363335766,0 0.3403643781778101,-0.08509109454445256 C102.10931345334302,205.60667647683027 100.91803812972068,203.90485458594122 100.74785594063178,204.92594772047465 z" id="svg_161"/>
	<path class="st31" d="M99.30130733337609,203.73467239685232 c0.9360020399889777,-0.5105465672667153 2.0421862690668604,-0.5956376618111677 3.0632794036002906,-0.17018218908890503 " id="svg_162"/>
	<path class="st10" d="M103.64095315514317,210.28668667677516 h-2.8930972145113856 c0,0 -0.17018218908890503,2.3825506472446705 1.2763664181667878,2.637823930878028 C103.2154976824209,213.17978389128655 103.64095315514317,210.28668667677516 103.64095315514317,210.28668667677516 z" id="svg_163"/>
	<path class="st30" d="M97.76966763157594,221.09325568392063 c-2.2123684581557654,0.3403643781778101 -4.509828010855983,0.25527328363335766 -6.72219646901175,-0.25527328363335766 c-3.8290992545003633,-1.0210931345334302 -4.935283483578246,-2.637823930878028 -4.935283483578246,-2.637823930878028 l5.360738956300509,-11.14693338532328 l8.253836170811894,3.7440081599559107 L97.76966763157594,221.09325568392063 z" id="svg_164"/>
	<path class="st32" d="M98.79076076610937,215.47724344398677 c0,0 -3.5738259708670057,0.08509109454445256 -5.445830050844961,-1.6167307963445978 " id="svg_165"/>
	<path class="st30" d="M103.38567987150981,204.6706744368413 c0,0 2.2123684581557654,3.2334615926891956 2.127277363611313,3.8290992545003633 s-1.7018218908890508,0.8509109454445252 -1.7018218908890508,0.8509109454445252 " id="svg_166"/>
	<path class="st33" d="M91.47292663528646,212.07359966220866 c-0.5105465672667153,0.17018218908890503 -1.0210931345334302,0.3403643781778101 -1.5316397018001453,0.3403643781778101 c-1.0210931345334302,0.17018218908890503 -2.127277363611313,-0.08509109454445256 -3.0632794036002906,-0.5105465672667153 c-1.7869129854335029,-0.9360020399889777 -2.7229150254224805,-2.8930972145113856 -2.3825506472446705,-4.8501923890337935 c0.08509109454445256,-0.3403643781778101 0.17018218908890503,-0.5956376618111677 0.17018218908890503,-0.9360020399889777 c0.25527328363335766,-1.4465486072556928 -0.5956376618111677,-2.808006119966933 -0.8509109454445252,-4.254554727222626 c-0.25527328363335766,-1.4465486072556928 0.08509109454445256,-2.8930972145113856 0.9360020399889777,-4.084372538133721 c0.8509109454445252,-1.1912753236223352 1.9570951745224079,-2.0421862690668604 3.3185526872336486,-2.5527328363335755 c1.1061842290778827,-0.42545547272226264 2.2123684581557654,-0.5105465672667153 3.148370498144743,-1.3614575127112405 c0.42545547272226264,-0.42545547272226264 0.8509109454445252,-0.7658198509000728 1.2763664181667878,-1.0210931345334302 c2.2123684581557654,-1.3614575127112405 5.360738956300509,-0.5956376618111677 7.3178341308229164,0.8509109454445252 c0.25527328363335766,0.17018218908890503 0.5105465672667153,0.3403643781778101 0.7658198509000728,0.42545547272226264 c0.5105465672667153,0.08509109454445256 1.0210931345334302,-0.08509109454445256 1.4465486072556928,0 c1.8720040799779554,0.3403643781778101 2.7229150254224805,3.148370498144743 2.7229150254224805,4.8501923890337935 c0,0.5105465672667153 -0.17018218908890503,0.9360020399889777 -0.42545547272226264,1.3614575127112405 c-0.5105465672667153,0.5105465672667153 -1.1912753236223352,0.8509109454445252 -1.8720040799779554,0.9360020399889777 c-1.0210931345334302,0 -1.9570951745224079,0.08509109454445256 -2.978188309055838,0.17018218908890503 c-0.6807287563556202,0.25527328363335766 -1.2763664181667878,0.5956376618111677 -1.8720040799779554,0.9360020399889777 c-1.0210931345334302,0.42545547272226264 -2.2123684581557654,0.3403643781778101 -3.2334615926891956,-0.08509109454445256 c0.25527328363335766,0.6807287563556202 0.3403643781778101,1.4465486072556928 0.25527328363335766,2.127277363611313 c-0.17018218908890503,1.3614575127112405 -1.3614575127112405,2.0421862690668604 -2.5527328363335755,2.297459552700218 c0.5105465672667153,1.4465486072556928 0.5956376618111677,2.978188309055838 0.25527328363335766,4.424736916311531 C92.15365539164208,211.56305309494195 91.89838210800872,211.90341747311976 91.47292663528646,212.07359966220866 z" id="svg_167"/>
	<path class="st34" d="M93.08965743163105,205.69176757137473 c-0.5105465672667153,-0.6807287563556202 -1.5316397018001453,-0.8509109454445252 -2.297459552700218,-0.25527328363335766 c0,0 0,0 0,0 h-0.08509109454445256 c-1.6167307963445978,1.3614575127112405 0.5105465672667153,4.254554727222626 1.7869129854335029,4.680010199944888 c0.6807287563556202,0.25527328363335766 1.3614575127112405,-0.17018218908890503 1.6167307963445978,-0.7658198509000728 c0,-0.08509109454445256 0,-0.08509109454445256 0,-0.17018218908890503 " id="svg_168"/>
	<path class="st18" d="M136.7413889329352,261.0860701198133 c2.467641741789123,0.17018218908890503 13.784757316201308,1.3614575127112405 13.699666221656857,2.0421862690668604 s-3.9141903490448158,0.8509109454445252 -3.7440081599559107,1.1912753236223352 c0.17018218908890503,0.5105465672667153 3.0632794036002906,0.9360020399889777 4.765101294489341,1.0210931345334302 c1.4465486072556928,0.08509109454445256 3.7440081599559107,0.42545547272226264 3.8290992545003633,1.1061842290778827 c0.08509109454445256,1.1912753236223352 -7.913471792634084,0.6807287563556202 -7.913471792634084,0.6807287563556202 c0,0.3403643781778101 8.679291643534157,-1.0210931345334302 8.849473832623062,0 c0.25527328363335766,1.4465486072556928 -9.019656021711967,2.2123684581557654 -9.274929305345324,2.5527328363335755 c0,0 7.8283806980896316,-2.8930972145113856 8.083653981722989,-1.7869129854335029 s-6.72219646901175,3.8290992545003633 -9.019656021711967,3.8290992545003633 c1.7869129854335029,-0.3403643781778101 7.147651941734011,-3.4036437817781007 7.3178341308229164,-2.637823930878028 s-4.594919105400436,2.808006119966933 -5.360738956300509,2.978188309055838 c-4.254554727222626,0.5956376618111677 -8.509109454445252,0.7658198509000728 -12.763664181667878,0.42545547272226264 " id="svg_169"/>
	<path class="st21" d="M97.8547587261204,220.32743583302056 c0,0 -2.3825506472446705,1.1912753236223352 -6.126558807200581,-0.42545547272226264 c-3.9992814435892683,-1.7018218908890508 -4.8501923890337935,-3.7440081599559107 -4.8501923890337935,-3.7440081599559107 s-21.61313801429094,1.8720040799779554 -29.526609806925023,61.94631682836143 l44.33246025765976,5.445830050844961 c0,0 3.5738259708670057,-21.442955825202034 2.978188309055838,-38.80153911227035 C104.32168191149879,233.6867376764996 100.06712718427616,225.0925371275099 97.8547587261204,220.32743583302056 " id="svg_170"/>
	<path class="st21" d="M84.83582126081916,244.40821558910062 c0,0 6.807287563556201,22.804413337913275 25.272055079702398,27.73969682149152 c9.530202588978682,2.637823930878028 19.31567846159072,4.084372538133721 29.186245428747213,4.339645821767078 l1.7869129854335029,-15.401488112545906 c0,0 -20.081498312490794,-3.5738259708670057 -28.335334483302685,-9.019656021711967 c-6.296740996289486,-4.169463632678173 -7.4880163199118215,-17.443674381612766 -9.10474711625642,-22.123684581557654 c-2.2123684581557654,-6.552014279922844 -5.786194429022771,-9.530202588978682 -5.786194429022771,-9.530202588978682 " id="svg_171"/>
	<path class="st22" d="M85.17618563899697,216.6685187676091 c0,0 1.3614575127112405,4.169463632678173 7.6581985090007265,5.530921145389414 c4.594919105400436,1.0210931345334302 6.381832090833939,-0.3403643781778101 6.381832090833939,-0.3403643781778101 " id="svg_172"/>
	<path class="st22" d="M102.87513330424309,269.59517957425857 c0,0 -16.762945625257146,-7.743289603545179 -17.698947665246124,-29.69679199601393 " id="svg_173"/>
	<line class="st22" x1="137.3370269193838" y1="260.4053422285069" x2="135.12465835301555" y2="276.3173755556636" id="svg_174"/>
	<path class="st10" d="M338.23710081419875,478.40872558634504 c-6.211649901745034,-49.77829030850472 8.849473832623062,-67.98778454101756 25.35714617424685,-68.83869548646209 c7.8283806980896316,-0.42545547272226264 30.632794036002906,2.7229150254224805 3.0632794036002906,68.83869548646209 " id="svg_175"/>
	<path class="st35" d="M338.40728300328766,478.40872558634504 c-0.42545547272226264,-5.275647861756056 -1.0210931345334302,-10.636386818056565 -1.1912753236223352,-15.91203467981262 c-0.17018218908890503,-4.509828010855983 -0.08509109454445256,-9.019656021711967 0.17018218908890503,-13.52948403256795 c0.3403643781778101,-6.9774697526451055 1.7869129854335029,-13.954939505290211 4.169463632678173,-20.506953785213057 c1.7018218908890508,-4.680010199944888 4.424736916311531,-8.934564927167514 7.998562887178537,-12.423299803490067 c2.8930972145113856,-2.7229150254224805 6.466923185378391,-4.680010199944888 10.381113534423207,-5.530921145389414 c2.2123684581557654,-0.5105465672667153 4.509828010855983,-0.6807287563556202 6.807287563556201,-0.42545547272226264 c1.9570951745224079,0.17018218908890503 3.7440081599559107,0.7658198509000728 5.445830050844961,1.7018218908890508 c2.127277363611313,1.1912753236223352 3.8290992545003633,2.978188309055838 4.935283483578246,5.1905567672116035 c1.6167307963445978,3.2334615926891956 2.3825506472446705,6.807287563556201 2.467641741789123,10.381113534423207 c0.08509109454445256,5.871285523567224 -0.5105465672667153,11.657479952589995 -1.8720040799779554,17.358583287068313 c-2.0421862690668604,8.849473832623062 -4.765101294489341,17.52876547615722 -8.168745076267442,25.952783836058018 c-1.0210931345334302,2.5527328363335755 -2.0421862690668604,5.1905567672116035 -3.0632794036002906,7.743289603545179 c-0.08509109454445256,0.25527328363335766 0.3403643781778101,0.42545547272226264 0.42545547272226264,0.17018218908890503 c2.297459552700218,-5.0203745781226985 4.254554727222626,-10.296022439878755 6.041467712656129,-15.486579207090358 c1.5316397018001453,-4.339645821767078 2.8930972145113856,-8.679291643534157 4.084372538133721,-13.104028559845688 c1.7869129854335029,-6.296740996289486 2.8930972145113856,-12.84875527621233 3.2334615926891956,-19.400769556135174 c0.25527328363335766,-4.084372538133721 -0.3403643781778101,-8.168745076267442 -1.7018218908890508,-12.082935425312257 c-0.9360020399889777,-2.5527328363335755 -2.5527328363335755,-4.765101294489341 -4.680010199944888,-6.466923185378391 c-1.7018218908890508,-1.2763664181667878 -3.6589170654114582,-2.127277363611313 -5.701103334478319,-2.467641741789123 c-1.8720040799779554,-0.3403643781778101 -3.7440081599559107,-0.42545547272226264 -5.616012239933866,-0.17018218908890503 c-3.9141903490448158,0.42545547272226264 -7.743289603545179,1.7869129854335029 -10.891660101689922,4.169463632678173 c-3.7440081599559107,2.8930972145113856 -6.807287563556201,6.552014279922844 -8.849473832623062,10.80656900714547 c-2.808006119966933,5.871285523567224 -4.594919105400436,12.16802651985671 -5.275647861756056,18.6349497052351 c-1.1061842290778827,9.10474711625642 -1.1912753236223352,18.379676421601744 -0.25527328363335766,27.48442353785816 c0.25527328363335766,2.7229150254224805 0.5105465672667153,5.360738956300509 0.9360020399889777,7.998562887178537 C338.06691862510985,478.57890777543395 338.40728300328766,478.57890777543395 338.40728300328766,478.40872558634504 L338.40728300328766,478.40872558634504 z" id="svg_176"/>
	<line class="st3" x1="363.08372244241764" y1="409.6551187048899" x2="348.5331232540775" y2="478.32364601577865" id="svg_177"/>
	<path class="st10" d="M383.1651987336697,478.8341810590673 c9.955658061700944,-14.805850450734738 29.952065279647286,-48.58701498488239 14.89094154527919,-60.49976822110574 c-8.253836170811894,-6.552014279922844 -23.400050999724442,1.5316397018001453 -31.48370498144743,15.997125774357073 c-7.743289603545179,14.040030599834665 -13.784757316201308,28.930972145113856 -18.039312043423934,44.33246025765976 " id="svg_178"/>
	<path class="st35" d="M383.42047201730304,479.0043632481562 c2.3825506472446705,-3.4887348763225527 4.594919105400436,-6.9774697526451055 6.72219646901175,-10.636386818056565 c2.5527328363335755,-4.254554727222626 4.935283483578246,-8.679291643534157 6.9774697526451055,-13.18911965439014 c2.127277363611313,-4.424736916311531 3.8290992545003633,-9.019656021711967 5.1905567672116035,-13.784757316201308 c1.1912753236223352,-4.084372538133721 1.7018218908890508,-8.4240183599008 1.3614575127112405,-12.678573087123425 c-0.25527328363335766,-3.6589170654114582 -1.8720040799779554,-7.06256084718956 -4.424736916311531,-9.700384778067587 c-1.3614575127112405,-1.3614575127112405 -3.0632794036002906,-2.297459552700218 -4.8501923890337935,-2.8930972145113856 c-1.9570951745224079,-0.5105465672667153 -3.9141903490448158,-0.5956376618111677 -5.871285523567224,-0.25527328363335766 c-4.680010199944888,0.7658198509000728 -9.019656021711967,3.3185526872336486 -12.678573087123425,6.381832090833939 c-2.127277363611313,1.7869129854335029 -4.084372538133721,3.8290992545003633 -5.871285523567224,6.041467712656129 c-1.8720040799779554,2.467641741789123 -3.4887348763225527,5.0203745781226985 -4.935283483578246,7.743289603545179 c-3.148370498144743,5.871285523567224 -5.956376618111676,11.8276621416789 -8.509109454445252,17.95422094887948 c-2.637823930878028,6.381832090833939 -4.935283483578246,12.933846370756783 -6.9774697526451055,19.485860650679626 c-0.5105465672667153,1.7018218908890508 -1.0210931345334302,3.3185526872336486 -1.5316397018001453,5.0203745781226985 c0,0.17018218908890503 0.08509109454445256,0.42545547272226264 0.3403643781778101,0.42545547272226264 c0.17018218908890503,0 0.3403643781778101,-0.08509109454445256 0.42545547272226264,-0.25527328363335766 c1.8720040799779554,-6.552014279922844 3.9992814435892683,-13.104028559845688 6.466923185378391,-19.485860650679626 c2.3825506472446705,-6.126558807200581 5.0203745781226985,-12.16802651985671 7.998562887178537,-18.039312043423934 c2.7229150254224805,-5.445830050844961 5.616012239933866,-10.80656900714547 9.78547587261204,-15.316397018001453 c3.4036437817781007,-3.7440081599559107 7.573107414456274,-6.72219646901175 12.338208708945615,-8.509109454445252 c3.6589170654114582,-1.2763664181667878 7.913471792634084,-1.6167307963445978 11.402206668956637,0.5105465672667153 c2.978188309055838,1.9570951745224079 5.105465672667151,5.105465672667151 5.786194429022771,8.594200548989704 c0.6807287563556202,3.9992814435892683 0.5956376618111677,8.168745076267442 -0.42545547272226264,12.082935425312257 c-1.0210931345334302,4.680010199944888 -2.5527328363335755,9.189838210800872 -4.509828010855983,13.52948403256795 c-1.9570951745224079,4.509828010855983 -4.169463632678173,8.934564927167514 -6.637105374467296,13.18911965439014 c-2.127277363611313,3.8290992545003633 -4.424736916311531,7.4880163199118215 -6.807287563556201,11.14693338532328 c-0.5105465672667153,0.7658198509000728 -0.9360020399889777,1.4465486072556928 -1.4465486072556928,2.2123684581557654 C382.7397432609474,478.91927215361176 383.1651987336697,479.25963653178957 383.42047201730304,479.0043632481562 L383.42047201730304,479.0043632481562 z" id="svg_179"/>
	<line class="st3" x1="394.65248383631115" y1="416.97295532459975" x2="368.10408874228597" y2="479.6000061035156" id="svg_180"/>
	<path class="st10" d="M374.1455427119577,478.3236344918006 c13.104028559845688,-18.6349497052351 24.421144134257872,-23.570233188813347 35.14262204685889,-22.123684581557654 c8.338927265356347,1.1912753236223352 9.615293683523134,9.78547587261204 -7.913471792634084,22.038593487013202 " id="svg_181"/>
	<path class="st35" d="M374.3157249010466,478.40872558634504 c1.2763664181667878,-1.5316397018001453 2.467641741789123,-3.2334615926891956 3.6589170654114582,-4.765101294489341 c1.1061842290778827,-1.4465486072556928 2.297459552700218,-2.808006119966933 3.5738259708670057,-4.169463632678173 c2.127277363611313,-2.297459552700218 4.339645821767078,-4.509828010855983 6.807287563556201,-6.466923185378391 c3.7440081599559107,-3.0632794036002906 8.168745076267442,-5.1905567672116035 12.84875527621233,-6.296740996289486 c1.9570951745224079,-0.42545547272226264 3.9992814435892683,-0.5105465672667153 6.041467712656129,-0.42545547272226264 c1.7018218908890508,0 3.3185526872336486,0.3403643781778101 4.8501923890337935,1.0210931345334302 c1.1061842290778827,0.5105465672667153 2.0421862690668604,1.4465486072556928 2.467641741789123,2.637823930878028 c0.42545547272226264,1.3614575127112405 0.3403643781778101,2.8930972145113856 -0.25527328363335766,4.169463632678173 c-0.8509109454445252,2.0421862690668604 -2.0421862690668604,3.9141903490448158 -3.5738259708670057,5.530921145389414 c-2.2123684581557654,2.467641741789123 -4.680010199944888,4.680010199944888 -7.3178341308229164,6.637105374467296 l-2.297459552700218,1.7869129854335029 c-0.25527328363335766,0.17018218908890503 0.08509109454445256,0.5105465672667153 0.3403643781778101,0.42545547272226264 c3.148370498144743,-1.9570951745224079 6.041467712656129,-4.339645821767078 8.594200548989704,-6.9774697526451055 c1.7869129854335029,-1.7018218908890508 3.3185526872336486,-3.7440081599559107 4.424736916311531,-5.956376618111676 c1.2763664181667878,-2.637823930878028 1.6167307963445978,-5.956376618111676 -0.9360020399889777,-7.998562887178537 c-1.1912753236223352,-0.9360020399889777 -2.637823930878028,-1.4465486072556928 -4.169463632678173,-1.6167307963445978 c-2.0421862690668604,-0.3403643781778101 -4.169463632678173,-0.3403643781778101 -6.211649901745034,-0.08509109454445256 c-4.765101294489341,0.5956376618111677 -9.274929305345324,2.467641741789123 -13.18911965439014,5.275647861756056 c-5.530921145389414,3.9141903490448158 -10.12584025078985,9.10474711625642 -14.12512169437912,14.55057716710138 c-0.6807287563556202,0.8509109454445252 -1.2763664181667878,1.7018218908890508 -1.7869129854335029,2.637823930878028 C373.89026942832436,478.40872558634504 374.1455427119577,478.57890777543395 374.3157249010466,478.40872558634504 L374.3157249010466,478.40872558634504 z" id="svg_182"/>
	<line class="st3" x1="407.67144537888817" y1="456.19996035209624" x2="387.6750265281007" y2="478.1534425088321" id="svg_183"/>
	<line class="st36" x1="0" y1="478.9192751829105" x2="425.45546796091367" y2="478.9192751829105" id="svg_184"/>
	<path class="st37" d="M44.417551352204214,435.4377228413965 c-2.978188309055838,-10.040749156245397 -10.636386818056565,-31.994251548714146 1.9570951745224079,-60.07431274838348 c14.295303883468023,20.421862690668604 12.338208708945615,42.88591165040407 8.168745076267442,64.07359419197275 " id="svg_185"/>
	<path class="st38" d="M46.37464652672662,375.36341009301304 c0,0 -4.8501923890337935,26.548421497869185 1.7018218908890508,62.11649901745034 " id="svg_186"/>
	<path class="st38" d="M49.01247045760465,437.73518239409674 c0,0 2.637823930878028,-47.480830755804504 -2.637823930878028,-62.371772301083695 " id="svg_187"/>
	<path class="st38" d="M50.7142923484937,438.07554677227455 c0,0 7.6581985090007265,-43.821913690393046 -4.339645821767078,-62.712136679261505 " id="svg_188"/>
	<path class="st37" d="M34.54698438504772,442.0748282158638 c-5.956376618111676,-5.360738956300509 -19.826225028857436,-16.50767234162379 -21.61313801429094,-40.758634286792756 c17.27349219252386,6.296740996289486 25.186963985157945,22.97459552700218 30.37752075236955,38.8866302068148 " id="svg_189"/>
	<path class="st38" d="M12.933846370756783,401.31619392907106 c0,0 6.041467712656129,20.421862690668604 24.33605303971342,41.098998664970566 " id="svg_190"/>
	<path class="st38" d="M40.16299662498159,440.96864398678593 c0,0 -20.166589407035246,-29.271336523291666 -27.229150254224805,-39.56735896317042 " id="svg_191"/>
	<path class="st38" d="M41.52445413769283,440.37300632497477 c0,0 -13.954939505290211,-29.44151871238057 -28.590607766936046,-39.056812395903705 " id="svg_192"/>
	<path class="st37" d="M40.16299662498159,436.11845159775214 c-4.765101294489341,-6.9774697526451055 -18.54985861069065,-27.994970105124878 -14.380394978012474,-50.37392797031589 c15.997125774357073,11.997844330767805 22.378957865191012,35.82335080321451 23.740415377902252,51.905567672116035 " id="svg_193"/>
	<path class="st38" d="M25.867692741513565,385.74452362743625 c0,0 5.956376618111676,33.52589125051429 16.50767234162379,50.544110159404795 " id="svg_194"/>
	<path class="st38" d="M44.502642446748666,437.1395447322856 c0,0 -14.295303883468023,-44.757915730382024 -18.720040799779554,-51.39502110484932 " id="svg_195"/>
	<path class="st38" d="M47.39573966126005,437.4799091104634 c0,0 -8.594200548989704,-40.418269908614946 -21.528046919746487,-51.73538548302713 " id="svg_196"/>
	<path class="st37" d="M63.052501057439315,435.6929961250299 c4.084372538133721,-9.019656021711967 13.954939505290211,-28.590607766936046 7.147651941734011,-57.606671006594354 c-14.89094154527919,15.486579207090358 -16.93312781434605,38.63135692318144 -16.50767234162379,59.648857275661214 " id="svg_197"/>
	<path class="st38" d="M70.20015299917333,378.0012340238911 l-12.338208708945615,58.71285523567224 " id="svg_198"/>
	<path class="st38" d="M70.20015299917333,378.0012340238911 c0,0 1.6167307963445978,26.293148214235828 -9.360020399889777,58.968128519305594 " id="svg_199"/>
	<path class="st38" d="M55.47939364298304,437.0544536377411 c0,0 3.0632794036002906,-39.48226786862597 14.720759356190285,-59.05321961385005 " id="svg_200"/>
	<path class="st37" d="M63.47795653016158,445.1381076194641 c5.275647861756056,-6.041467712656129 18.720040799779554,-21.102591447024224 19.826225028857436,-41.35427194860392 c-15.57167030163481,9.10474711625642 -22.123684581557654,25.782601646969113 -26.208057119691375,41.35427194860392 " id="svg_201"/>
	<path class="st38" d="M83.30418155901901,403.86892676540464 c0,0 -9.700384778067587,25.612419457880208 -21.61313801429094,40.418269908614946 " id="svg_202"/>
	<path class="st38" d="M58.79794633021669,444.2871966740196 c0,0 14.55057716710138,-30.71788513054736 24.506235228802325,-40.418269908614946 " id="svg_203"/>
	<path class="st19" d="M75.22052757729602,433.99117423414083 v9.530202588978682 c0,21.187682541568677 -10.210931345334302,34.80225766868108 -10.210931345334302,34.80225766868108 H33.270617966880934 c0,0 -10.296022439878755,-13.614575127112403 -10.296022439878755,-34.80225766868108 V433.99117423414083 H75.22052757729602 z" id="svg_204"/>
</g></g></svg>